<?xml version="1.0" encoding="utf-8"?>
<!-- Generator: Adobe Illustrator 24.0.1, SVG Export Plug-In . SVG Version: 6.00 Build 0)  -->
<svg version="1.1" id="Layer_1" xmlns="http://www.w3.org/2000/svg" xmlns:xlink="http://www.w3.org/1999/xlink" x="0px" y="0px"
	 viewBox="0 0 180 180" style="enable-background:new 0 0 180 180;" xml:space="preserve">
<style type="text/css">
	.st0{fill:#FFFFFF;}
	.st1{fill:#f56e9f;}
</style>
<g>
	
		<image style="overflow:visible;opacity:0.12;" width="196" height="196" xlink:href="208E70C4.png"  transform="matrix(1 0 0 1 -9 -8)">
	</image>
	<g>
		<circle class="st0" cx="88.7" cy="90" r="79.5"/>
	</g>
</g>
<g>
	<g id="XMLID_2_">
		<g id="XMLID_1818_">
			<g id="XMLID_1925_">
				<path id="XMLID_2693_" class="st1" d="M95.4,134.4c-0.2,0-0.4-0.2-0.4-0.4v-20.9c0-0.2,0.2-0.4,0.4-0.4c0.2,0,0.4,0.2,0.4,0.4
					V134C95.8,134.2,95.6,134.4,95.4,134.4z"/>
			</g>
			<g id="XMLID_1855_">
				<g id="XMLID_1856_">
					<path id="XMLID_2614_" class="st1" d="M66.4,134.5c-0.2,0-0.4-0.2-0.4-0.4V118c0-0.2,0.2-0.4,0.4-0.4c0.2,0,0.4,0.2,0.4,0.4
						v16.2C66.8,134.4,66.6,134.5,66.4,134.5z"/>
				</g>
			</g>
			<g id="XMLID_1854_">
				<path id="XMLID_2613_" class="st1" d="M115.1,136.4H47.9c-0.3,0-0.5-0.2-0.5-0.5c0-0.3,0.2-0.5,0.5-0.5h67.2
					c0.3,0,0.5,0.2,0.5,0.5C115.6,136.2,115.4,136.4,115.1,136.4z"/>
			</g>
		</g>
		<g id="XMLID_1991_">
			<path id="XMLID_2764_" class="st1" d="M101.2,83c-0.9,0-1.8,0-2.6-0.1c-0.1,0-0.3,0-0.4-0.1l0,0c0,0-0.1,0-0.1,0
				c-0.5-0.3-0.5-1.5-0.3-3.5c0-0.2,0-0.4,0-0.5c0-0.3,0-0.6,0.1-0.8c0-0.4,0.1-0.8,0-1.3c0-0.7,0.1-1.5,1.3-1.5c1,0,2,0,3,0
				c0.1,0,0.3,0,0.5,0c1-0.1,1.9-0.1,2.3,0.3c0.7,0.6,0.6,2,0.5,3c0,0.1,0,0.3,0,0.4c0,0.5-0.1,1-0.1,1.4c0,0.6-0.1,1.1-0.1,1.8
				c0,1-0.3,1.1-1.2,1.1h0C103.1,83,102.1,83,101.2,83z M98.5,82c0,0,0.1,0,0.1,0c1.8,0.2,3.5,0.1,5.5,0h0c0.2,0,0.3,0,0.4,0
				c0-0.1,0-0.1,0-0.3c0-0.7,0.1-1.2,0.1-1.8c0-0.4,0.1-0.9,0.1-1.4c0-0.1,0-0.2,0-0.4c0-0.6,0.1-2-0.2-2.3
				c-0.2-0.2-1.3-0.1-1.8-0.1c-0.2,0-0.4,0-0.6,0c-1,0-2,0-3,0c-0.5,0-0.6,0.1-0.5,0.7c0,0.6,0,1,0,1.4c0,0.2,0,0.5-0.1,0.8
				c0,0.1,0,0.3,0,0.5C98.4,80.8,98.4,81.8,98.5,82z"/>
		</g>
		<g id="XMLID_1980_">
			<path id="XMLID_2752_" class="st1" d="M87.9,83c-0.9,0-1.8,0-2.6-0.1c-0.1,0-0.3,0-0.4-0.1l0,0c0,0-0.1,0-0.1,0
				c-0.5-0.3-0.5-1.5-0.3-3.5c0-0.2,0-0.4,0-0.5c0-0.3,0-0.6,0.1-0.8c0-0.4,0.1-0.8,0-1.3c0-0.7,0.1-1.5,1.3-1.5c1,0,2,0,3,0
				c0.1,0,0.3,0,0.5,0c1-0.1,1.9-0.1,2.3,0.3c0.7,0.6,0.6,2,0.5,3c0,0.1,0,0.3,0,0.4c0,0.5-0.1,1-0.1,1.4c0,0.6-0.1,1.1-0.1,1.8
				c0,1-0.3,1.1-1.2,1.1h0C89.8,83,88.8,83,87.9,83z M85.2,82c0,0,0.1,0,0.1,0c1.8,0.2,3.5,0.1,5.5,0h0c0.2,0,0.3,0,0.4,0
				c0-0.1,0-0.1,0-0.3c0-0.7,0.1-1.2,0.1-1.8c0-0.4,0.1-0.9,0.1-1.4c0-0.1,0-0.2,0-0.4c0-0.6,0.1-2-0.2-2.3
				c-0.2-0.2-1.3-0.1-1.8-0.1c-0.2,0-0.4,0-0.6,0c-1,0-2,0-3,0c-0.5,0-0.6,0.1-0.5,0.7c0,0.6,0,1,0,1.4c0,0.2,0,0.5-0.1,0.8
				c0,0.1,0,0.3,0,0.5C85.1,80.8,85.1,81.8,85.2,82z"/>
		</g>
		<g id="XMLID_1969_">
			<path id="XMLID_2740_" class="st1" d="M101.2,93.6c-0.9,0-1.8,0-2.6-0.1c-0.1,0-0.3,0-0.4-0.1l0,0c0,0-0.1,0-0.1,0
				c-0.5-0.3-0.5-1.5-0.3-3.5c0-0.2,0-0.4,0-0.5c0-0.3,0-0.6,0.1-0.8c0-0.4,0.1-0.8,0-1.3c0-0.7,0.1-1.5,1.3-1.5c1,0,2,0,3,0
				c0.1,0,0.3,0,0.5,0c1-0.1,1.9-0.1,2.3,0.3c0.7,0.6,0.6,2,0.5,3c0,0.1,0,0.3,0,0.4c0,0.5-0.1,1-0.1,1.4c0,0.6-0.1,1.1-0.1,1.8
				c0,1-0.3,1.1-1.2,1.1h0C103.1,93.6,102.1,93.6,101.2,93.6z M98.5,92.7c0,0,0.1,0,0.1,0c1.8,0.2,3.5,0.1,5.5,0h0
				c0.2,0,0.3,0,0.4,0c0-0.1,0-0.1,0-0.3c0-0.7,0.1-1.2,0.1-1.8c0-0.4,0.1-0.9,0.1-1.4c0-0.1,0-0.2,0-0.4c0-0.6,0.1-2-0.2-2.3
				c-0.2-0.2-1.3-0.1-1.8-0.1c-0.2,0-0.4,0-0.6,0c-1,0-2,0-3,0c-0.5,0-0.6,0.1-0.5,0.7c0,0.6,0,1,0,1.4c0,0.2,0,0.5-0.1,0.8
				c0,0.1,0,0.3,0,0.5C98.4,91.5,98.4,92.4,98.5,92.7z"/>
		</g>
		<g id="XMLID_1958_">
			<path id="XMLID_2727_" class="st1" d="M87.9,93.6c-0.9,0-1.8,0-2.6-0.1c-0.1,0-0.3,0-0.4-0.1l0,0c0,0-0.1,0-0.1,0
				c-0.5-0.3-0.5-1.5-0.3-3.5c0-0.2,0-0.4,0-0.5c0-0.3,0-0.6,0.1-0.8c0-0.4,0.1-0.8,0-1.3c0-0.7,0.1-1.5,1.3-1.5c1,0,2,0,3,0
				c0.1,0,0.3,0,0.5,0c1-0.1,1.9-0.1,2.3,0.3c0.7,0.6,0.6,2,0.5,3c0,0.1,0,0.3,0,0.4c0,0.5-0.1,1-0.1,1.4c0,0.6-0.1,1.1-0.1,1.8
				c0,1-0.3,1.1-1.2,1.1h0C89.8,93.6,88.8,93.6,87.9,93.6z M85.2,92.7c0,0,0.1,0,0.1,0c1.8,0.2,3.5,0.1,5.5,0h0c0.2,0,0.3,0,0.4,0
				c0-0.1,0-0.1,0-0.3c0-0.7,0.1-1.2,0.1-1.8c0-0.4,0.1-0.9,0.1-1.4c0-0.1,0-0.2,0-0.4c0-0.6,0.1-2-0.2-2.3
				c-0.2-0.2-1.3-0.1-1.8-0.1c-0.2,0-0.4,0-0.6,0c-1,0-2,0-3,0c-0.5,0-0.6,0.1-0.5,0.7c0,0.6,0,1,0,1.4c0,0.2,0,0.5-0.1,0.8
				c0,0.1,0,0.3,0,0.5C85.1,91.5,85.1,92.4,85.2,92.7z"/>
		</g>
		<g id="XMLID_1947_">
			<path id="XMLID_2715_" class="st1" d="M101.2,105.3c-0.9,0-1.8,0-2.6-0.1c-0.1,0-0.3,0-0.4-0.1l0,0c0,0-0.1,0-0.1,0
				c-0.5-0.3-0.5-1.5-0.3-3.5c0-0.2,0-0.4,0-0.5c0-0.3,0-0.6,0.1-0.8c0-0.4,0.1-0.8,0-1.3c0-0.7,0.1-1.5,1.3-1.5c1,0,2,0,3,0
				c0.1,0,0.3,0,0.5,0c1-0.1,1.9-0.1,2.3,0.3c0.7,0.6,0.6,2,0.5,3c0,0.1,0,0.3,0,0.4c0,0.5-0.1,1-0.1,1.4c0,0.6-0.1,1.1-0.1,1.8
				c0,1-0.3,1.1-1.2,1.1h0C103.1,105.2,102.1,105.3,101.2,105.3z M98.5,104.3c0,0,0.1,0,0.1,0c1.8,0.2,3.5,0.1,5.5,0h0
				c0.2,0,0.3,0,0.4,0c0-0.1,0-0.1,0-0.3c0-0.7,0.1-1.2,0.1-1.8c0-0.4,0.1-0.9,0.1-1.4c0-0.1,0-0.2,0-0.4c0-0.6,0.1-2-0.2-2.3
				c-0.2-0.2-1.3-0.1-1.8-0.1c-0.2,0-0.4,0-0.6,0c-1,0-2,0-3,0c-0.5,0-0.6,0.1-0.5,0.7c0,0.6,0,1,0,1.4c0,0.2,0,0.5-0.1,0.8
				c0,0.1,0,0.3,0,0.5C98.4,103.1,98.4,104,98.5,104.3z"/>
		</g>
		<g id="XMLID_1936_">
			<path id="XMLID_2703_" class="st1" d="M87.9,105.3c-0.9,0-1.8,0-2.6-0.1c-0.1,0-0.3,0-0.4-0.1l0,0c0,0-0.1,0-0.1,0
				c-0.5-0.3-0.5-1.5-0.3-3.5c0-0.2,0-0.4,0-0.5c0-0.3,0-0.6,0.1-0.8c0-0.4,0.1-0.8,0-1.3c0-0.7,0.1-1.5,1.3-1.5c1,0,2,0,3,0
				c0.1,0,0.3,0,0.5,0c1-0.1,1.9-0.1,2.3,0.3c0.7,0.6,0.6,2,0.5,3c0,0.1,0,0.3,0,0.4c0,0.5-0.1,1-0.1,1.4c0,0.6-0.1,1.1-0.1,1.8
				c0,1-0.3,1.1-1.2,1.1h0C89.8,105.2,88.8,105.3,87.9,105.3z M85.2,104.3c0,0,0.1,0,0.1,0c1.8,0.2,3.5,0.1,5.5,0h0
				c0.2,0,0.3,0,0.4,0c0-0.1,0-0.1,0-0.3c0-0.7,0.1-1.2,0.1-1.8c0-0.4,0.1-0.9,0.1-1.4c0-0.1,0-0.2,0-0.4c0-0.6,0.1-2-0.2-2.3
				C91,98,89.9,98,89.5,98c-0.2,0-0.4,0-0.6,0c-1,0-2,0-3,0c-0.5,0-0.6,0.1-0.5,0.7c0,0.6,0,1,0,1.4c0,0.2,0,0.5-0.1,0.8
				c0,0.1,0,0.3,0,0.5C85.1,103.1,85.1,104,85.2,104.3z"/>
		</g>
		<g id="XMLID_1993_">
			<path id="XMLID_2768_" class="st1" d="M109.6,135c-0.1,0-0.3,0-0.4,0s-0.2,0-0.3,0H80.2c-0.3,0-0.5-0.2-0.5-0.5V68
				c0-0.3,0.2-0.5,0.5-0.5h30.4c0.3,0,0.5,0.2,0.5,0.5v44.9c0,1.6,0,3.3,0,4.9c0,4.7-0.1,9.6,0.2,14.4c0,0.1,0,0.2,0,0.4
				c0.1,0.8,0.2,2.2-1.3,2.4C109.9,135,109.8,135,109.6,135z M80.7,133.9h28.1c0.1,0,0.3,0,0.4,0c0.2,0,0.5,0,0.7,0
				c0.3-0.1,0.4-0.2,0.3-1.2c0-0.2,0-0.3,0-0.4c-0.2-4.8-0.2-9.7-0.2-14.4c0-1.6,0-3.3,0-4.9V68.5H80.7V133.9z"/>
		</g>
		<g id="XMLID_1924_">
			<path id="XMLID_2690_" class="st1" d="M80,134.7H53.1c-0.3,0-0.5-0.2-0.5-0.5V80c0-0.3,0.2-0.5,0.5-0.5H80c0.3,0,0.5,0.2,0.5,0.5
				v54.1C80.5,134.4,80.3,134.7,80,134.7z M53.6,133.6h25.8V80.6H53.6V133.6z"/>
		</g>
		<g id="XMLID_1923_">
			<path id="XMLID_2687_" class="st1" d="M73,91c-0.9,0-1.8,0-2.6-0.1c-0.1,0-0.3,0-0.4-0.1c0,0-0.1,0-0.1,0
				c-0.5-0.3-0.5-1.5-0.3-3.5c0-0.2,0-0.4,0-0.5c0-0.3,0-0.6,0.1-0.8c0-0.4,0.1-0.8,0-1.3c0-0.7,0.1-1.5,1.3-1.5c1,0,2,0,3,0
				c0.1,0,0.3,0,0.5,0c1-0.1,1.9-0.1,2.3,0.3c0.7,0.6,0.6,2,0.5,3c0,0.1,0,0.3,0,0.4c0,0.5-0.1,1-0.1,1.4c0,0.6-0.1,1.1-0.1,1.8
				c0,1-0.3,1.1-1.2,1.1h0C75,90.9,74,91,73,91z M70.3,90c0,0,0.1,0,0.1,0c1.8,0.2,3.5,0.1,5.5,0h0c0.2,0,0.3,0,0.4,0
				c0-0.1,0-0.1,0-0.3c0-0.7,0.1-1.2,0.1-1.8c0-0.4,0.1-0.9,0.1-1.4c0-0.1,0-0.2,0-0.4c0-0.6,0.1-2-0.2-2.3
				c-0.2-0.2-1.3-0.1-1.8-0.1c-0.2,0-0.4,0-0.6,0c-1,0-2,0-3,0c-0.5,0-0.6,0.1-0.5,0.7c0,0.6,0,1,0,1.4c0,0.2,0,0.5-0.1,0.8
				c0,0.1,0,0.3,0,0.5C70.2,88.8,70.2,89.7,70.3,90z"/>
		</g>
		<g id="XMLID_1912_">
			<path id="XMLID_2675_" class="st1" d="M60.7,91.5c-0.9,0-1.8,0-2.6-0.1c-0.1,0-0.3,0-0.4-0.1c0,0-0.1,0-0.1,0
				c-0.5-0.3-0.5-1.5-0.3-3.5c0-0.2,0-0.4,0-0.5c0-0.3,0-0.6,0.1-0.8c0-0.4,0.1-0.8,0-1.3c0-0.7,0.1-1.5,1.3-1.5c1,0,2,0,3,0
				c0.1,0,0.3,0,0.5,0c1-0.1,1.9-0.1,2.3,0.3c0.7,0.6,0.6,2,0.5,3c0,0.1,0,0.3,0,0.4c0,0.5-0.1,1-0.1,1.4c0,0.6-0.1,1.1-0.1,1.8
				c0,1-0.3,1.1-1.2,1.1h0C62.6,91.4,61.6,91.5,60.7,91.5z M58,90.5c0,0,0.1,0,0.1,0c1.8,0.2,3.5,0.1,5.5,0h0c0.2,0,0.3,0,0.4,0
				c0-0.1,0-0.1,0-0.3c0-0.7,0.1-1.2,0.1-1.8c0-0.4,0.1-0.9,0.1-1.4c0-0.1,0-0.2,0-0.4c0-0.6,0.1-2-0.2-2.3
				c-0.2-0.2-1.3-0.1-1.8-0.1c-0.2,0-0.4,0-0.6,0c-1,0-2,0-3,0c-0.5,0-0.6,0.1-0.5,0.7c0,0.6,0,1,0,1.4c0,0.2,0,0.5-0.1,0.8
				c0,0.1,0,0.3,0,0.5C57.9,89.3,57.9,90.2,58,90.5z"/>
		</g>
		<g id="XMLID_1901_">
			<path id="XMLID_2663_" class="st1" d="M73,101.6c-0.9,0-1.8,0-2.6-0.1c-0.1,0-0.3,0-0.4-0.1l0,0c0,0-0.1,0-0.1,0
				c-0.5-0.3-0.5-1.5-0.3-3.5c0-0.2,0-0.4,0-0.5c0-0.3,0-0.6,0.1-0.8c0-0.4,0.1-0.8,0-1.3c0-0.7,0.1-1.5,1.3-1.5c1,0,2,0,3,0
				c0.1,0,0.3,0,0.5,0c1-0.1,1.9-0.1,2.3,0.3c0.7,0.6,0.6,2,0.5,3c0,0.1,0,0.3,0,0.4c0,0.5-0.1,1-0.1,1.4c0,0.6-0.1,1.1-0.1,1.8
				c0,1-0.3,1.1-1.2,1.1h0C75,101.5,74,101.6,73,101.6z M70.3,100.6c0,0,0.1,0,0.1,0c1.8,0.2,3.5,0.1,5.5,0h0c0.2,0,0.3,0,0.4,0
				c0-0.1,0-0.1,0-0.3c0-0.7,0.1-1.2,0.1-1.8c0-0.4,0.1-0.9,0.1-1.4c0-0.1,0-0.2,0-0.4c0-0.6,0.1-2-0.2-2.3
				c-0.2-0.2-1.3-0.1-1.8-0.1c-0.2,0-0.4,0-0.6,0c-1,0-2,0-3,0c-0.5,0-0.6,0.1-0.5,0.7c0,0.6,0,1,0,1.4c0,0.2,0,0.5-0.1,0.8
				c0,0.1,0,0.3,0,0.5C70.2,99.4,70.2,100.3,70.3,100.6z"/>
		</g>
		<g id="XMLID_1890_">
			<path id="XMLID_2651_" class="st1" d="M60.7,102.1c-0.9,0-1.8,0-2.6-0.1c-0.1,0-0.3,0-0.4-0.1c0,0-0.1,0-0.1,0
				c-0.5-0.3-0.5-1.5-0.3-3.5c0-0.2,0-0.4,0-0.5c0-0.3,0-0.6,0.1-0.8c0-0.4,0.1-0.8,0-1.3c0-0.7,0.1-1.5,1.3-1.5c1,0,2,0,3,0
				c0.1,0,0.3,0,0.5,0c1-0.1,1.9-0.1,2.3,0.3c0.7,0.6,0.6,2,0.5,3c0,0.1,0,0.3,0,0.4c0,0.5-0.1,1-0.1,1.4c0,0.6-0.1,1.1-0.1,1.8
				c0,1-0.3,1.1-1.2,1.1h0C62.6,102,61.6,102.1,60.7,102.1z M58,101.1c0,0,0.1,0,0.1,0c1.8,0.2,3.5,0.1,5.5,0h0c0.2,0,0.3,0,0.4,0
				c0-0.1,0-0.1,0-0.3c0-0.7,0.1-1.2,0.1-1.8c0-0.4,0.1-0.9,0.1-1.4c0-0.1,0-0.2,0-0.4c0-0.6,0.1-2-0.2-2.3
				c-0.2-0.2-1.3-0.1-1.8-0.1c-0.2,0-0.4,0-0.6,0c-1,0-2,0-3,0c-0.5,0-0.6,0.1-0.5,0.7c0,0.6,0,1,0,1.4c0,0.2,0,0.5-0.1,0.8
				c0,0.1,0,0.3,0,0.5C57.9,99.9,57.9,100.8,58,101.1z"/>
		</g>
		<g id="XMLID_1879_">
			<path id="XMLID_2639_" class="st1" d="M73,113.2c-0.9,0-1.8,0-2.6-0.1c-0.1,0-0.3,0-0.4-0.1l0,0c0,0-0.1,0-0.1,0
				c-0.5-0.3-0.5-1.5-0.3-3.5c0-0.2,0-0.4,0-0.5c0-0.3,0-0.6,0.1-0.8c0-0.4,0.1-0.8,0-1.3c0-0.7,0.1-1.5,1.3-1.5c1,0,2,0,3,0
				c0.1,0,0.3,0,0.5,0c1-0.1,1.9-0.1,2.3,0.3c0.7,0.6,0.6,2,0.5,3c0,0.1,0,0.3,0,0.4c0,0.5-0.1,1-0.1,1.4c0,0.6-0.1,1.1-0.1,1.8
				c0,1-0.3,1.1-1.2,1.1h0C75,113.2,74,113.2,73,113.2z M70.3,112.2c0,0,0.1,0,0.1,0c1.8,0.2,3.5,0.1,5.5,0h0c0.2,0,0.3,0,0.4,0
				c0-0.1,0-0.1,0-0.3c0-0.7,0.1-1.2,0.1-1.8c0-0.4,0.1-0.9,0.1-1.4c0-0.1,0-0.2,0-0.4c0-0.6,0.1-2-0.2-2.3
				c-0.2-0.2-1.3-0.1-1.8-0.1c-0.2,0-0.4,0-0.6,0c-1,0-2,0-3,0c-0.5,0-0.6,0.1-0.5,0.7c0,0.6,0,1,0,1.4c0,0.2,0,0.5-0.1,0.8
				c0,0.1,0,0.3,0,0.5C70.2,111,70.2,112,70.3,112.2z"/>
		</g>
		<g id="XMLID_1992_">
			<path id="XMLID_2627_" class="st1" d="M60.7,113.7c-0.9,0-1.8,0-2.6-0.1c-0.1,0-0.3,0-0.4-0.1l0,0c0,0-0.1,0-0.1,0
				c-0.5-0.3-0.5-1.5-0.3-3.5c0-0.2,0-0.4,0-0.5c0-0.3,0-0.6,0.1-0.8c0-0.4,0.1-0.8,0-1.3c0-0.7,0.1-1.5,1.3-1.5c1,0,2,0,3,0
				c0.1,0,0.3,0,0.5,0c1-0.1,1.9-0.1,2.3,0.3c0.7,0.6,0.6,2,0.5,3c0,0.1,0,0.3,0,0.4c0,0.5-0.1,1-0.1,1.4c0,0.6-0.1,1.1-0.1,1.8
				c0,1-0.3,1.1-1.2,1.1h0C62.6,113.7,61.6,113.7,60.7,113.7z M58,112.7c0,0,0.1,0,0.1,0c1.8,0.2,3.5,0.1,5.5,0h0c0.2,0,0.3,0,0.4,0
				c0-0.1,0-0.1,0-0.3c0-0.7,0.1-1.2,0.1-1.8c0-0.4,0.1-0.9,0.1-1.4c0-0.1,0-0.2,0-0.4c0-0.6,0.1-2-0.2-2.3
				c-0.2-0.2-1.3-0.1-1.8-0.1c-0.2,0-0.4,0-0.6,0c-1,0-2,0-3,0c-0.5,0-0.6,0.1-0.5,0.7c0,0.6,0,1,0,1.4c0,0.2,0,0.5-0.1,0.8
				c0,0.1,0,0.3,0,0.5C57.9,111.5,57.9,112.5,58,112.7z"/>
		</g>
		<g id="XMLID_1995_">
			<path id="XMLID_2615_" class="st1" d="M73,134.5H59.9c-0.2,0-0.4-0.2-0.4-0.4v-9.7c0-3.8,3.1-6.9,6.9-6.9h0.1
				c3.8,0,6.9,3.1,6.9,6.9v9.7C73.4,134.4,73.2,134.5,73,134.5z M60.4,133.7h12.2v-9.3c0-3.3-2.7-6-6-6h-0.1c-3.3,0-6,2.7-6,6
				L60.4,133.7L60.4,133.7z"/>
		</g>
		<g id="XMLID_2172_">
			<path id="XMLID_2767_" class="st1" d="M104.8,134.8c-0.2,0-0.4-0.2-0.4-0.4v-21h-18v20.7c0,0.2-0.2,0.4-0.4,0.4
				c-0.2,0-0.4-0.2-0.4-0.4v-21.1c0-0.2,0.2-0.4,0.4-0.4h18.8c0.2,0,0.4,0.2,0.4,0.4v21.4C105.2,134.7,105,134.8,104.8,134.8z"/>
		</g>
	</g>
	<g id="Check_Circle">
		<path class="st1" d="M122.3,43.6c-5.7,0-10.3,4.6-10.3,10.3s4.6,10.3,10.3,10.3c5.7,0,10.3-4.6,10.3-10.3
			C132.6,48.2,128,43.6,122.3,43.6z M122.3,62.9c-5,0-9-4-9-9s4-9,9-9s9,4,9,9S127.3,62.9,122.3,62.9z"/>
		<path class="st1" d="M127,50.3l-6.6,6.6l-2.8-2.7c-0.3-0.3-0.7-0.3-0.9,0c-0.3,0.3-0.3,0.7,0,0.9l3.2,3.2c0.3,0.2,0.7,0.3,0.9,0
			l7.1-7c0.3-0.3,0.3-0.7,0-0.9C127.7,50,127.3,50,127,50.3z"/>
	</g>
</g>
</svg>
