<svg xmlns="http://www.w3.org/2000/svg" width="18" height="18" viewBox="0 0 18 18">
    <g fill="none" fill-rule="evenodd">
        <g fill="#000" fill-rule="nonzero">
            <g>
                <path d="M16.854.084H1.202C.587.084.084.587.084 1.202v11.46c0 .614.503 1.118 1.118 1.118h5.31v3.074H4.276c-.28 0-.559.28-.559.559 0 .335.28.559.56.559h9.503c.279 0 .559-.224.559-.559 0-.28-.28-.559-.56-.559h-2.236V13.78h5.311c.615 0 1.118-.504 1.118-1.119V1.201c0-.614-.503-1.117-1.118-1.117zm-6.429 16.77H7.63V13.78h2.795v3.074zm6.429-4.193H1.202V1.201h15.652v11.46z" transform="translate(-1027 -147) translate(1027 147)"/>
                <path d="M9.906 10.742c-1.55 0-2.727-.914-3.077-2.355h-.27c-.275 0-.498-.223-.498-.498 0-.274.223-.498.498-.498h.172c0-.145.001-.306.004-.453h-.176c-.275 0-.498-.224-.498-.498 0-.275.223-.498.498-.498h.301C7.255 4.5 8.442 3.555 9.906 3.555c.644 0 1.265.216 1.795.625.105.08.173.198.19.33.017.132-.018.263-.1.368-.095.124-.238.194-.394.194-.11 0-.218-.037-.304-.104-.354-.272-.765-.417-1.187-.417-.92 0-1.664.532-1.999 1.39h2.835c.274 0 .498.224.498.499s-.224.498-.498.498H7.73c-.003.142-.004.307-.004.453h2.803c.275 0 .498.224.498.498 0 .275-.223.499-.498.499H7.866c.3.859 1.035 1.358 2.04 1.358.437 0 .86-.154 1.223-.446.088-.07.199-.11.312-.11.151 0 .293.068.388.186.083.104.121.234.107.366-.014.132-.08.251-.183.334-.542.436-1.18.666-1.847.666z" transform="translate(-1027 -147) translate(1027 147)"/>
            </g>
        </g>
    </g>
</svg>
