<svg xmlns="http://www.w3.org/2000/svg" width="16" height="16" viewBox="0 0 16 16">
    <defs>
        <filter id="jdoddxw5va">
            <feColorMatrix in="SourceGraphic" values="0 0 0 0 0.074510 0 0 0 0 0.074510 0 0 0 0 0.074510 0 0 0 1.000000 0"/>
        </filter>
    </defs>
    <g fill="none" fill-rule="evenodd">
        <g filter="url(#jdoddxw5va)" transform="translate(-977 -85)">
            <g>
                <path fill="#000" fill-rule="nonzero" d="M15.72.075c-.17-.1-.382-.1-.557 0L10.25 2.881 6.076.094 6.054.083c-.03-.019-.06-.034-.093-.045L5.927.027c-.04-.011-.085-.022-.126-.022h-.03c-.037 0-.07.003-.104.007-.015.004-.026.004-.041.008-.037.01-.07.022-.104.04l-.019.008L5.5.072c-.004 0-.008.003-.008.003L.282 3.052C.109 3.148 0 3.334 0 3.535v11.906c0 .2.104.383.28.484.17.1.382.1.557 0l4.912-2.806 4.178 2.787c.004.004.012.004.015.007.008.004.011.008.015.012.026.015.056.022.082.033.015.008.03.015.045.019.048.015.096.022.145.022h.011c.045 0 .086-.007.13-.015.015-.004.03-.011.045-.018.03-.012.06-.019.085-.034.004 0 .008-.004.008-.004l5.21-2.976c.174-.1.282-.283.282-.484V.56c0-.2-.104-.383-.28-.484zM9.675 3.833v10.566l-3.348-2.232V1.601l3.348 2.232zm-8.558.026L5.21 1.52v10.618l-4.093 2.34V3.86zm13.768 8.282l-4.093 2.34V3.86l4.093-2.34V12.14z" transform="translate(977 85)"/>
            </g>
        </g>
    </g>
</svg>
