<svg xmlns="http://www.w3.org/2000/svg" width="42" height="58" viewBox="0 0 42 58">
    <defs>
        <linearGradient id="h97zhjov2c" x1="69.151%" x2="69.151%" y1="100%" y2="29.887%">
            <stop offset="0%" stop-color="#D18D46"/>
            <stop offset="100%" stop-color="#FFC985"/>
        </linearGradient>
        <linearGradient id="u659hsci4d" x1="69.151%" x2="69.151%" y1="100%" y2="29.887%">
            <stop offset="0%" stop-color="#D18D46"/>
            <stop offset="100%" stop-color="#FFC985"/>
        </linearGradient>
        <filter id="s3mrre5x0a" width="175%" height="172%" x="-37.5%" y="-36%" filterUnits="objectBoundingBox">
            <feGaussianBlur in="SourceGraphic" stdDeviation="3"/>
        </filter>
        <filter id="lu8q75mexb">
            <feColorMatrix in="SourceGraphic" values="0 0 0 0 0.133333 0 0 0 0 0.176471 0 0 0 0 0.227451 0 0 0 1.000000 0"/>
        </filter>
    </defs>
    <g fill="none" fill-rule="evenodd">
        <g>
            <g>
                <g>
                    <path fill="#000" fill-opacity=".558" d="M17.444 49S33 43.406 33 36.505c0-6.901-3.31-10.503-10.222-12.496C15.866 23.772 9 28.09 9 34.99S17.444 49 17.444 49z" filter="url(#s3mrre5x0a)" transform="translate(-220 -304) translate(220 304)"/>
                    <g filter="url(#lu8q75mexb)" transform="translate(-220 -304) translate(220 304)">
                        <path fill="#000" fill-rule="nonzero" d="M16.5 0C7.387 0 0 7.312 0 16.333 0 28.856 13.2 49 16.5 49 19.8 49 33 29.468 33 16.333 33 7.313 25.613 0 16.5 0z"/>
                    </g>
                </g>
                <g>
                    <path fill="url(#h97zhjov2c)" d="M1.022 15.568c1.749-2.428 3.801-4.82 7.127-7.302 2.217-1.654 2.836-4.22 1.855-7.698C8.098 2.97 5.687 5.373 2.771 7.78c-.873.723-3.447 3.113-1.749 7.788z" transform="translate(-220 -304) translate(220 304) translate(10.545 7.432)"/>
                    <path fill="url(#u659hsci4d)" d="M7.043 26.568c1.382-1.75 1.473-3.495.272-5.236-1.115-1.517-.899-2.84.65-3.97 3.172-2.464 4.182-5.062 3.03-7.794-2.062 1.584-3.6 2.775-4.615 3.573C4.857 14.338.272 18.366 3.697 23.1c.695 1.127 2.73 2.598 3.346 3.468z" transform="translate(-220 -304) translate(220 304) translate(10.545 7.432)"/>
                </g>
            </g>
        </g>
    </g>
</svg>
