<?xml version="1.0" encoding="utf-8"?>
<!-- Generator: Adobe Illustrator 24.0.1, SVG Export Plug-In . SVG Version: 6.00 Build 0)  -->
<svg version="1.1" id="Layer_1" xmlns="http://www.w3.org/2000/svg" xmlns:xlink="http://www.w3.org/1999/xlink" x="0px" y="0px"
	 viewBox="0 0 363 363" style="enable-background:new 0 0 363 363;" xml:space="preserve">
<style type="text/css">
	.st0{fill:#f56e9f;}
</style>
<g>
	<path class="st0" d="M181.5,0C181.5,0,181.5,0,181.5,0C181.4,0,181.4,0,181.5,0c-0.1,0-0.1,0-0.1,0c0,0,0,0,0,0c0,0,0,0,0,0
		c0,0,0,0,0,0c0,0,0,0,0,0c0,0,0,0,0,0c0,0,0,0-0.1,0c0,0,0,0,0,0c0,0,0,0-0.1,0c0,0,0,0,0,0c0,0,0,0-0.1,0c0,0,0,0,0,0
		c0,0,0,0-0.1,0c0,0,0,0,0,0c0,0,0,0,0,0c0,0,0,0,0,0c0,0,0,0-0.1,0c0,0,0,0,0,0c0,0,0,0-0.1,0c0,0,0,0,0,0c0,0-0.1,0-0.1,0
		c0,0,0,0,0,0c0,0,0,0-0.1,0c0,0,0,0,0,0c0,0,0,0-0.1,0c0,0,0,0,0,0c0,0,0,0-0.1,0c0,0,0,0,0,0c-0.1,0-0.1,0-0.2,0c0,0,0,0,0,0
		c0,0,0,0-0.1,0c0,0,0,0,0,0c0,0,0,0-0.1,0c0,0,0,0,0,0c0,0,0,0-0.1,0c0,0,0,0,0,0c-0.1,0-0.1,0-0.2,0c0,0,0,0,0,0c0,0,0,0-0.1,0
		c0,0,0,0,0,0c0,0,0,0-0.1,0c0,0,0,0,0,0c0,0,0,0-0.1,0c0,0,0,0,0,0c0,0-0.1,0-0.1,0c0,0,0,0,0,0c0,0,0,0-0.1,0c0,0,0,0,0,0
		c0,0,0,0,0,0c0,0,0,0,0,0c0,0,0,0,0,0c0,0,0,0,0,0c0,0,0,0,0,0c0,0,0,0,0,0c0,0,0,0,0,0c0,0,0,0-0.1,0c0,0,0,0,0,0c0,0,0,0,0,0
		c0,0,0,0,0,0c0,0,0,0,0,0c0,0,0,0,0,0c0,0,0,0-0.1,0c0,0,0,0,0,0c-0.4,0-0.8,0-1.2,0l0,1c1.3,0,2.7,0,4,0V0L181.5,0L181.5,0z
		 M173.5,0.2c-0.2,0-0.3,0-0.5,0l0,0c0,0,0,0-0.1,0l0,0c-0.1,0-0.2,0-0.2,0c0,0,0,0,0,0c0,0,0,0,0,0c0,0,0,0,0,0c0,0,0,0,0,0
		c0,0,0,0,0,0c0,0,0,0,0,0c0,0,0,0,0,0c0,0,0,0,0,0c0,0,0,0-0.1,0c0,0,0,0,0,0c0,0,0,0-0.1,0c0,0,0,0,0,0c0,0,0,0-0.1,0c0,0,0,0,0,0
		c0,0,0,0,0,0c0,0,0,0,0,0c0,0,0,0,0,0c0,0,0,0,0,0c0,0,0,0-0.1,0c0,0,0,0,0,0c-0.1,0-0.1,0-0.2,0c0,0,0,0,0,0c0,0,0,0-0.1,0
		c0,0,0,0,0,0c0,0,0,0-0.1,0c0,0,0,0,0,0c-0.7,0-1.4,0.1-2.1,0.1l0.1,1c1.3-0.1,2.7-0.2,4-0.2L173.5,0.2L173.5,0.2z M165.5,0.7
		c-0.2,0-0.4,0-0.6,0.1c0,0,0,0,0,0c0,0,0,0,0,0c0,0,0,0,0,0c0,0,0,0,0,0c0,0,0,0,0,0c0,0,0,0,0,0c0,0,0,0,0,0c0,0,0,0,0,0
		c0,0,0,0-0.1,0l0,0c-1,0.1-2.1,0.2-3.1,0.3c0,0,0,0,0,0l0.1,1c1.3-0.1,2.6-0.3,4-0.4L165.5,0.7L165.5,0.7z M157.6,1.6
		C157.6,1.6,157.6,1.6,157.6,1.6C157.5,1.6,157.5,1.6,157.6,1.6C157.5,1.6,157.5,1.6,157.6,1.6c-0.1,0-0.1,0-0.1,0c0,0,0,0,0,0
		c0,0,0,0,0,0c0,0-0.1,0-0.1,0c0,0,0,0,0,0c0,0,0,0-0.1,0c0,0,0,0,0,0c0,0,0,0-0.1,0c0,0,0,0,0,0c0,0,0,0-0.1,0c0,0,0,0,0,0
		c0,0,0,0-0.1,0c0,0,0,0,0,0c-0.5,0.1-0.9,0.1-1.4,0.2c0,0,0,0,0,0c-0.1,0-0.3,0-0.4,0.1c0,0,0,0,0,0c0,0,0,0-0.1,0c0,0,0,0,0,0
		c0,0,0,0-0.1,0c0,0,0,0,0,0c0,0,0,0-0.1,0c0,0,0,0,0,0c0,0,0,0-0.1,0c0,0,0,0,0,0c0,0,0,0-0.1,0c0,0,0,0,0,0c0,0,0,0-0.1,0
		c0,0,0,0,0,0c0,0,0,0,0,0c0,0,0,0,0,0c0,0,0,0,0,0c0,0,0,0,0,0c0,0,0,0,0,0c0,0,0,0,0,0c0,0,0,0,0,0c0,0,0,0,0,0c0,0,0,0,0,0
		c0,0,0,0,0,0c0,0,0,0-0.1,0c0,0,0,0,0,0c0,0,0,0,0,0c0,0,0,0,0,0c0,0,0,0,0,0c0,0,0,0,0,0c0,0,0,0,0,0c0,0,0,0,0,0c0,0,0,0,0,0
		c0,0,0,0,0,0c0,0,0,0,0,0c0,0,0,0,0,0c0,0,0,0,0,0c0,0-0.1,0-0.1,0c0,0,0,0,0,0c0,0,0,0,0,0c0,0,0,0,0,0c0,0,0,0,0,0c0,0,0,0,0,0
		l0.2,1c1.3-0.2,2.6-0.4,3.9-0.6L157.6,1.6L157.6,1.6z M149.7,2.8C149.7,2.8,149.7,2.8,149.7,2.8C149.6,2.8,149.6,2.8,149.7,2.8
		C149.6,2.8,149.6,2.8,149.7,2.8C149.6,2.8,149.6,2.8,149.7,2.8c-0.1,0-0.1,0-0.1,0c0,0,0,0,0,0c0,0,0,0,0,0c0,0,0,0,0,0
		c0,0,0,0,0,0c0,0,0,0,0,0c0,0,0,0,0,0c0,0,0,0,0,0c0,0,0,0-0.1,0c0,0,0,0,0,0c0,0,0,0-0.1,0c0,0,0,0,0,0c0,0,0,0-0.1,0c0,0,0,0,0,0
		c0,0,0,0,0,0c0,0,0,0,0,0c0,0,0,0,0,0c0,0,0,0,0,0c0,0,0,0,0,0c0,0,0,0,0,0c0,0,0,0,0,0c0,0,0,0,0,0c0,0,0,0-0.1,0c0,0,0,0,0,0
		c0,0-0.1,0-0.1,0c0,0,0,0,0,0c0,0,0,0-0.1,0c0,0,0,0,0,0c0,0,0,0-0.1,0c0,0,0,0,0,0c0,0,0,0-0.1,0c0,0,0,0,0,0c0,0,0,0-0.1,0
		c0,0,0,0,0,0c0,0,0,0-0.1,0c0,0,0,0,0,0c-0.1,0-0.1,0-0.2,0c0,0,0,0,0,0c0,0,0,0-0.1,0c0,0,0,0,0,0c0,0,0,0-0.1,0c0,0,0,0,0,0
		c0,0,0,0-0.1,0c0,0,0,0,0,0c-0.7,0.1-1.4,0.3-2.1,0.4l0.2,1c1.3-0.3,2.6-0.5,3.9-0.7L149.7,2.8L149.7,2.8z M141.8,4.4
		C141.8,4.4,141.8,4.4,141.8,4.4C141.7,4.4,141.7,4.4,141.8,4.4c-0.1,0-0.1,0-0.1,0c0,0,0,0,0,0c0,0,0,0,0,0c0,0,0,0,0,0
		c0,0,0,0,0,0c0,0,0,0,0,0c0,0,0,0,0,0c0,0,0,0,0,0c0,0,0,0,0,0c-1,0.2-2,0.5-3,0.7l0,0c0,0,0,0,0,0c0,0,0,0,0,0c0,0,0,0,0,0
		c0,0,0,0,0,0c0,0,0,0,0,0c0,0,0,0,0,0c0,0,0,0,0,0c0,0,0,0-0.1,0c0,0,0,0,0,0c-0.1,0-0.2,0-0.3,0.1l0.2,1c1.3-0.3,2.6-0.6,3.9-0.9
		L141.8,4.4L141.8,4.4z M134,6.3c-1.3,0.3-2.6,0.7-3.8,1.1l0.3,1c1.3-0.4,2.6-0.7,3.8-1.1L134,6.3L134,6.3z M126.4,8.5
		c-0.5,0.2-1.1,0.3-1.6,0.5c0,0,0,0,0,0c0,0,0,0-0.1,0c0,0,0,0,0,0c0,0,0,0-0.1,0c0,0,0,0,0,0c0,0,0,0-0.1,0c0,0,0,0,0,0
		c0,0,0,0,0,0c0,0,0,0,0,0c0,0,0,0,0,0c-0.1,0-0.1,0-0.2,0.1c0,0,0,0,0,0c0,0,0,0-0.1,0l0,0c-0.5,0.2-1.1,0.4-1.6,0.5l0.3,0.9
		c1.2-0.4,2.5-0.8,3.8-1.2L126.4,8.5L126.4,8.5z M118.8,11.1c-1.3,0.5-2.5,0.9-3.7,1.4l0.4,0.9c1.2-0.5,2.5-1,3.7-1.4L118.8,11.1
		L118.8,11.1z M111.4,14c-0.2,0.1-0.4,0.2-0.7,0.3c0,0,0,0,0,0c0,0,0,0,0,0c0,0,0,0,0,0c0,0,0,0,0,0c0,0,0,0-0.1,0c0,0,0,0,0,0
		c0,0,0,0-0.1,0c0,0,0,0,0,0c-0.2,0.1-0.4,0.2-0.6,0.3c0,0,0,0,0,0c-0.1,0.1-0.2,0.1-0.4,0.2c0,0,0,0,0,0c0,0,0,0,0,0c0,0,0,0,0,0
		c0,0,0,0,0,0c0,0,0,0,0,0c0,0,0,0,0,0c0,0,0,0,0,0l0,0c-0.5,0.2-1,0.4-1.5,0.7l0.4,0.9c1.2-0.5,2.4-1.1,3.7-1.6L111.4,14L111.4,14z
		 M104.1,17.3c-0.9,0.4-1.8,0.8-2.6,1.3l0,0c0,0,0,0-0.1,0l0,0c0,0,0,0-0.1,0l0,0c0,0,0,0-0.1,0c0,0,0,0,0,0c0,0,0,0-0.1,0l0,0
		c-0.1,0.1-0.2,0.1-0.3,0.2l0,0c0,0,0,0,0,0c0,0,0,0,0,0c0,0,0,0,0,0c0,0,0,0,0,0c0,0,0,0,0,0c0,0,0,0,0,0c0,0,0,0,0,0c0,0,0,0,0,0
		c0,0,0,0,0,0c0,0,0,0,0,0c0,0,0,0,0,0c0,0,0,0,0,0c0,0,0,0,0,0l0,0l0.4,0.9c1.2-0.6,2.4-1.2,3.6-1.7L104.1,17.3L104.1,17.3z
		 M96.9,20.9c-1.2,0.6-2.3,1.3-3.5,1.9l0.5,0.9c1.2-0.6,2.3-1.3,3.5-1.9L96.9,20.9L96.9,20.9z M89.9,24.8c-1.2,0.7-2.3,1.4-3.4,2.1
		l0.5,0.9c1.1-0.7,2.3-1.4,3.4-2L89.9,24.8L89.9,24.8z M83.1,29c-0.1,0.1-0.2,0.1-0.3,0.2c0,0,0,0,0,0c0,0,0,0,0,0c0,0,0,0,0,0
		c0,0,0,0,0,0c0,0,0,0,0,0c0,0,0,0,0,0c-0.5,0.3-1.1,0.7-1.6,1.1c0,0,0,0,0,0c0,0,0,0,0,0l0,0c0,0,0,0,0,0c0,0,0,0,0,0c0,0,0,0,0,0
		c0,0,0,0,0,0c0,0,0,0,0,0c0,0,0,0,0,0c0,0,0,0,0,0c-0.3,0.2-0.7,0.4-1,0.7l0.6,0.8c1.1-0.7,2.2-1.5,3.3-2.2L83.1,29L83.1,29z
		 M76.5,33.5c-1.1,0.8-2.2,1.6-3.2,2.4l0.6,0.8c1.1-0.8,2.1-1.6,3.2-2.3L76.5,33.5L76.5,33.5z M70.1,38.2c-0.8,0.6-1.6,1.2-2.3,1.8
		c0,0,0,0,0,0c0,0,0,0,0,0c0,0,0,0,0,0c0,0,0,0,0,0c0,0,0,0,0,0c0,0,0,0,0,0c0,0,0,0,0,0c0,0,0,0,0,0c-0.2,0.2-0.4,0.3-0.6,0.5
		l0.6,0.8c1-0.8,2.1-1.7,3.1-2.5L70.1,38.2L70.1,38.2z M63.9,43.3c-0.2,0.2-0.4,0.4-0.6,0.6c0,0,0,0,0,0c0,0,0,0,0,0c0,0,0,0,0,0
		c0,0,0,0,0,0c0,0,0,0,0,0c0,0,0,0,0,0c0,0,0,0,0,0c0,0,0,0,0,0c0,0,0,0,0,0c0,0,0,0,0,0c0,0,0,0,0,0c0,0,0,0,0,0
		c-0.7,0.6-1.4,1.2-2.1,1.8l0.7,0.7c1-0.9,2-1.8,3-2.6L63.9,43.3L63.9,43.3z M57.9,48.6C57.9,48.6,57.9,48.6,57.9,48.6
		C57.9,48.6,57.9,48.6,57.9,48.6C57.8,48.6,57.8,48.6,57.9,48.6C57.8,48.7,57.8,48.7,57.9,48.6c-0.1,0.1-0.1,0.1-0.1,0.1
		c0,0,0,0,0,0c0,0,0,0,0,0c0,0,0,0,0,0c0,0,0,0,0,0c0,0,0,0,0,0c-0.6,0.6-1.3,1.2-1.9,1.8c0,0,0,0,0,0c0,0,0,0,0,0c0,0,0,0,0,0
		c0,0,0,0,0,0c0,0,0,0,0,0c0,0,0,0,0,0c0,0,0,0,0,0c0,0,0,0,0,0c0,0,0,0,0,0c0,0,0,0,0,0c-0.2,0.2-0.4,0.4-0.6,0.6l0.7,0.7
		c0.9-0.9,1.9-1.8,2.9-2.7L57.9,48.6L57.9,48.6z M52.2,54.2c-0.1,0.1-0.2,0.2-0.3,0.4c0,0,0,0,0,0c0,0,0,0,0,0c0,0,0,0,0,0
		c0,0,0,0,0,0c0,0,0,0,0,0c0,0,0,0,0,0c0,0,0,0,0,0c0,0,0,0,0,0c-0.8,0.8-1.5,1.6-2.3,2.3l0.7,0.7c0.9-1,1.8-1.9,2.8-2.9L52.2,54.2
		L52.2,54.2z M46.7,60c-0.2,0.2-0.4,0.4-0.6,0.6l0,0c0,0,0,0,0,0c0,0,0,0,0,0c0,0,0,0,0,0c0,0,0,0,0,0c0,0,0,0,0,0c0,0,0,0,0,0
		c0,0,0,0,0,0c-0.4,0.5-0.8,0.9-1.3,1.4c0,0,0,0,0,0c0,0,0,0,0,0c0,0,0,0,0,0c0,0,0,0,0,0c0,0,0,0,0,0c0,0,0,0,0,0c0,0,0,0,0,0
		c0,0,0,0,0,0c0,0,0,0,0,0c0,0,0,0,0,0c-0.1,0.2-0.3,0.3-0.4,0.5l0.8,0.7c0.9-1,1.7-2,2.6-3L46.7,60L46.7,60z M41.4,66.1
		c-0.3,0.3-0.5,0.6-0.8,0.9c0,0,0,0,0,0c0,0,0,0,0,0l0,0c0,0,0,0,0,0c0,0,0,0,0,0c0,0,0,0,0,0c0,0,0,0,0,0c0,0,0,0,0,0c0,0,0,0,0,0
		c0,0,0,0,0,0c0,0,0,0,0,0c0,0,0,0,0,0c0,0,0,0,0,0c0,0,0,0-0.1,0.1c0,0,0,0,0,0c0,0,0,0,0,0c0,0,0,0,0,0c0,0,0,0,0,0c0,0,0,0,0,0
		c0,0,0,0,0,0c0,0,0,0,0,0c0,0,0,0,0,0c0,0,0,0,0,0c0,0,0,0,0,0c0,0,0,0,0,0c0,0,0,0,0,0c0,0,0,0,0,0c0,0,0,0,0,0
		c-0.4,0.5-0.8,1-1.2,1.5l0.8,0.6c0.8-1,1.7-2.1,2.5-3.1L41.4,66.1L41.4,66.1z M36.5,72.3c-0.2,0.2-0.3,0.5-0.5,0.7c0,0,0,0,0,0
		c0,0,0,0,0,0c0,0,0,0,0,0c0,0,0,0,0,0c-0.6,0.8-1.2,1.6-1.8,2.4l0.8,0.6c0.8-1.1,1.6-2.1,2.4-3.2L36.5,72.3L36.5,72.3z M31.8,78.8
		c-0.8,1.1-1.5,2.2-2.2,3.3l0.8,0.5c0.7-1.1,1.5-2.2,2.2-3.3L31.8,78.8L31.8,78.8z M27.4,85.5c-0.1,0.2-0.2,0.4-0.3,0.5
		c-0.5,0.9-1,1.7-1.6,2.6c0,0,0,0,0,0c0,0,0,0,0,0c0,0,0,0,0,0c0,0,0,0,0,0c0,0,0,0,0,0c0,0,0,0,0,0c0,0,0,0,0,0c0,0,0,0,0,0
		c0,0,0,0,0,0l0,0c0,0,0,0,0,0.1l0,0l0.9,0.5c0.7-1.1,1.4-2.3,2.1-3.4L27.4,85.5L27.4,85.5z M23.3,92.4c-0.4,0.7-0.8,1.3-1.1,2l0,0
		c0,0,0,0,0,0.1l0,0c0,0,0,0,0,0c0,0,0,0,0,0c0,0,0,0,0,0c0,0,0,0,0,0c0,0,0,0,0,0c0,0,0,0,0,0c0,0,0,0,0,0c0,0,0,0,0,0.1
		c0,0,0,0,0,0c0,0,0,0.1-0.1,0.1c0,0,0,0,0,0c0,0,0,0,0,0.1c0,0,0,0,0,0c0,0,0,0,0,0.1c0,0,0,0,0,0c0,0,0,0,0,0.1c0,0,0,0,0,0
		c-0.1,0.2-0.2,0.4-0.3,0.6c0,0,0,0,0,0c0,0,0,0,0,0.1c0,0,0,0,0,0c0,0,0,0,0,0c0,0,0,0,0,0c0,0,0,0,0,0c0,0,0,0,0,0c0,0,0,0,0,0
		c0,0,0,0,0,0c0,0,0,0,0,0l0.9,0.5c0.6-1.2,1.3-2.3,1.9-3.5L23.3,92.4L23.3,92.4z M19.6,99.4c-0.4,0.7-0.7,1.5-1.1,2.2c0,0,0,0,0,0
		c0,0,0,0,0,0.1c0,0,0,0,0,0c0,0,0,0,0,0c0,0,0,0,0,0c0,0,0,0,0,0c0,0,0,0,0,0c0,0,0,0,0,0c0,0,0,0,0,0c0,0,0,0,0,0c0,0,0,0,0,0l0,0
		c-0.2,0.4-0.3,0.7-0.5,1.1l0.9,0.4c0.6-1.2,1.2-2.4,1.8-3.6L19.6,99.4L19.6,99.4z M16.1,106.7c-0.4,0.8-0.7,1.6-1.1,2.4
		c0,0,0,0,0,0c0,0,0,0,0,0.1c0,0,0,0,0,0c0,0,0,0,0,0c0,0,0,0,0,0c0,0,0,0,0,0c0,0,0,0,0,0c0,0,0,0,0,0c0,0,0,0,0,0c0,0,0,0,0,0
		c0,0,0,0,0,0c0,0,0,0,0,0c-0.1,0.3-0.3,0.6-0.4,0.9l0.9,0.4c0.5-1.2,1.1-2.4,1.6-3.6L16.1,106.7L16.1,106.7z M13,114
		c-0.1,0.2-0.2,0.5-0.3,0.7l0,0c0,0,0,0,0,0.1l0,0c0,0,0,0,0,0.1l0,0c0,0,0,0.1,0,0.1c0,0,0,0,0,0c0,0,0,0,0,0c0,0,0,0,0,0
		c0,0,0,0,0,0c0,0,0,0,0,0c0,0,0,0,0,0c0,0,0,0,0,0c0,0,0,0,0,0c0,0,0,0,0,0.1c0,0,0,0,0,0c0,0,0,0,0,0.1c0,0,0,0,0,0
		c-0.1,0.4-0.3,0.7-0.4,1.1c0,0,0,0,0,0c0,0,0,0,0,0.1c0,0,0,0,0,0c0,0,0,0,0,0.1c0,0,0,0,0,0c0,0,0,0,0,0.1c0,0,0,0,0,0
		c0,0,0,0,0,0.1c0,0,0,0,0,0c0,0,0,0.1,0,0.1c0,0,0,0,0,0c0,0,0,0,0,0c0,0,0,0,0,0c0,0,0,0,0,0c0,0,0,0,0,0c0,0,0,0,0,0c0,0,0,0,0,0
		l0,0c0,0,0,0,0,0.1l0,0c-0.1,0.2-0.2,0.5-0.3,0.7l0.9,0.4c0.5-1.2,0.9-2.5,1.4-3.7L13,114L13,114z M10.1,121.5
		C10.1,121.5,10.1,121.5,10.1,121.5L10.1,121.5c0,0.1,0,0.1,0,0.1c0,0,0,0,0,0c0,0,0,0,0,0.1c0,0,0,0,0,0c0,0,0,0,0,0.1l0,0
		c-0.4,1.2-0.8,2.4-1.2,3.6l1,0.3c0.4-1.3,0.8-2.5,1.3-3.8L10.1,121.5L10.1,121.5z M7.7,129.1c-0.1,0.2-0.1,0.4-0.2,0.6l0,0
		c0,0,0,0,0,0.1c0,0,0,0,0,0c0,0,0,0,0,0c0,0,0,0,0,0c0,0,0,0,0,0c0,0,0,0,0,0c0,0,0,0,0,0c0,0,0,0,0,0c0,0,0,0,0,0
		c-0.3,1-0.6,2-0.8,3l1,0.3c0.4-1.3,0.7-2.6,1.1-3.8L7.7,129.1L7.7,129.1z M5.5,136.8c-0.3,1.3-0.6,2.6-0.9,3.9l1,0.2
		c0.3-1.3,0.6-2.6,0.9-3.9L5.5,136.8L5.5,136.8z M3.7,144.6c-0.3,1.3-0.5,2.5-0.7,3.8c0,0,0,0,0,0c0,0.1,0,0.1,0,0.1l1,0.2
		c0.2-1.3,0.5-2.6,0.8-3.9L3.7,144.6L3.7,144.6z M2.3,152.5c0,0.3-0.1,0.6-0.1,0.9l0,0c0,0,0,0,0,0c0,0,0,0,0,0c0,0,0,0,0,0
		c0,0,0,0,0,0c0,0,0,0,0,0c0,0,0,0,0,0.1c0,0,0,0,0,0c-0.1,0.6-0.2,1.2-0.3,1.8c0,0,0,0,0,0c0,0,0,0,0,0c0,0,0,0,0,0c0,0,0,0,0,0
		c0,0,0,0,0,0l0,0c0,0.3-0.1,0.6-0.1,0.9l1,0.1c0.2-1.3,0.4-2.6,0.6-3.9L2.3,152.5L2.3,152.5z M1.2,160.4c-0.1,0.4-0.1,0.9-0.1,1.3
		c0,0,0,0,0,0c0,0,0,0,0,0c0,0,0,0,0,0c0,0,0,0,0,0c0,0,0,0,0,0c0,0,0,0,0,0c0,0,0,0,0,0c0,0,0,0,0,0c-0.1,0.8-0.2,1.6-0.2,2.4
		l1,0.1c0.1-1.3,0.3-2.6,0.4-4L1.2,160.4L1.2,160.4z M0.5,168.4L0.5,168.4C0.5,168.4,0.5,168.4,0.5,168.4
		C0.5,168.4,0.5,168.4,0.5,168.4c0,0.1,0,0.1,0,0.1c0,0,0,0,0,0c0,0,0,0,0,0c0,0,0,0,0,0c0,0,0,0,0,0c-0.1,1.3-0.2,2.5-0.2,3.8l1,0
		c0.1-1.3,0.1-2.7,0.2-4L0.5,168.4L0.5,168.4z M0.1,176.4c0,0.1,0,0.1,0,0.2c0,0,0,0,0,0c0,0,0,0,0,0.1c0,0,0,0,0,0c0,0,0,0,0,0.1
		c0,0,0,0,0,0c0,0,0,0,0,0.1c0,0,0,0,0,0c0,0,0,0,0,0c0,0,0,0,0,0c0,0,0,0,0,0c0,0,0,0,0,0c0,0,0,0,0,0c0,0,0,0,0,0c0,0,0,0,0,0
		c0,0,0,0,0,0.1l0,0c0,0.1,0,0.2,0,0.2l0,0c0,0,0,0,0,0.1l0,0c0,1,0,2,0,3l1,0c0-1.3,0-2.7,0.1-4L0.1,176.4L0.1,176.4z M1,184.4
		l-1,0c0,0.4,0,0.7,0,1.1c0,0,0,0,0,0c0,0,0,0,0,0c0,0,0,0,0,0c0,0,0,0,0,0c0,0,0,0,0,0c0,0,0,0,0,0c0,0.9,0,1.8,0.1,2.7l1,0
		C1.1,187,1,185.7,1,184.4L1,184.4z M1.3,192.3l-1,0.1c0.1,1.3,0.2,2.7,0.3,4l1-0.1C1.5,195,1.4,193.6,1.3,192.3L1.3,192.3z
		 M2,200.2l-1,0.1c0.1,0.7,0.1,1.4,0.2,2.1c0,0,0,0,0,0c0,0,0,0,0,0.1c0,0,0,0,0,0c0,0,0,0,0,0.1c0,0,0,0,0,0c0,0,0,0,0,0.1
		c0,0,0,0,0,0c0,0,0,0,0,0.1c0,0,0,0,0,0c0,0,0,0,0,0.1c0,0,0,0,0,0c0,0,0,0,0,0c0,0,0,0,0,0c0,0,0,0,0,0c0,0,0,0,0,0.1l0,0
		c0,0,0,0,0,0.1c0,0,0,0,0,0c0.1,0.4,0.1,0.9,0.2,1.3l1-0.1C2.2,202.9,2.1,201.5,2,200.2L2,200.2z M3,208.1l-1,0.1
		c0.1,1,0.3,2,0.5,3c0,0,0,0,0,0c0,0,0,0,0,0c0,0,0,0,0,0c0,0,0,0,0,0c0,0,0,0,0,0c0,0,0,0,0,0c0,0,0,0,0,0.1c0,0,0,0,0,0
		c0,0.2,0.1,0.5,0.1,0.7l1-0.2C3.4,210.8,3.1,209.4,3,208.1L3,208.1z M4.3,216l-1,0.2c0.1,0.3,0.1,0.7,0.2,1c0,0,0,0,0,0
		c0,0,0,0,0,0.1c0,0,0,0,0,0c0,0,0,0,0,0c0,0,0,0,0,0c0,0,0,0,0,0c0,0,0,0.1,0,0.1l0,0c0,0,0,0,0,0.1c0,0,0,0,0,0c0,0,0,0,0,0.1l0,0
		c0.1,0.5,0.2,1,0.3,1.4c0,0,0,0,0,0c0,0,0,0,0,0c0,0,0,0,0,0c0,0,0,0,0,0c0,0,0,0,0,0c0,0,0,0,0,0c0,0,0,0,0,0.1c0,0,0,0,0,0
		c0.1,0.3,0.1,0.5,0.2,0.8l1-0.2C4.8,218.6,4.5,217.3,4.3,216L4.3,216z M6,223.7L5,224c0.1,0.3,0.2,0.7,0.3,1c0,0,0,0,0,0
		c0,0,0,0,0,0.1c0,0,0,0,0,0c0,0,0,0,0,0c0,0,0,0,0,0c0,0,0,0,0,0c0,0,0,0,0,0c0,0,0,0,0,0c0,0,0,0,0,0c0,0,0,0,0,0c0,0,0,0,0,0l0,0
		c0.2,0.7,0.3,1.3,0.5,2c0,0,0,0,0,0c0,0,0,0,0,0c0,0,0,0,0,0c0,0,0,0,0,0c0,0,0,0,0,0c0,0,0,0,0,0c0,0,0,0,0,0.1c0,0,0,0,0,0
		c0,0.1,0,0.2,0.1,0.2l1-0.3C6.6,226.3,6.3,225,6,223.7L6,223.7z M8,231.4l-1,0.3c0.3,1,0.6,2,0.9,3c0,0,0,0,0,0c0,0,0,0,0,0.1
		c0,0,0,0,0,0c0,0,0,0,0,0c0,0,0,0,0,0c0,0,0,0,0,0c0,0,0,0,0,0c0,0,0,0,0,0c0,0,0,0,0,0l0,0c0.1,0.2,0.1,0.4,0.2,0.6l1-0.3
		C8.7,234,8.4,232.7,8,231.4L8,231.4z M10.4,239l-0.9,0.3c0.4,1.3,0.9,2.5,1.3,3.8l0.9-0.3C11.2,241.5,10.8,240.3,10.4,239L10.4,239
		z M13.1,246.5l-0.9,0.4c0.2,0.4,0.3,0.9,0.5,1.3c0,0,0,0,0,0c0,0,0,0,0,0c0,0,0,0,0,0c0,0,0,0,0,0c0,0,0,0,0,0c0,0,0,0,0,0
		c0,0,0,0,0,0c0,0,0,0,0,0c0,0,0,0,0,0c0,0,0,0,0,0c0.3,0.7,0.6,1.4,0.9,2.1l0.9-0.4C14,249,13.5,247.7,13.1,246.5L13.1,246.5z
		 M16.1,253.9l-0.9,0.4c0.4,0.8,0.7,1.6,1.1,2.5l0,0c0,0,0,0,0,0.1c0,0,0,0,0,0c0,0,0,0,0,0c0,0,0,0,0,0c0,0,0,0,0,0c0,0,0,0,0,0
		c0,0,0,0,0,0c0,0,0,0.1,0.1,0.1c0,0,0,0,0,0c0,0,0,0,0,0.1c0,0,0,0,0,0c0,0,0,0,0,0.1c0,0,0,0,0,0c0.1,0.2,0.2,0.5,0.3,0.7l0.9-0.4
		C17.2,256.3,16.6,255.1,16.1,253.9L16.1,253.9z M19.4,261.1l-0.9,0.4c0.3,0.7,0.7,1.4,1.1,2.1c0,0,0,0,0,0c0,0.1,0.1,0.1,0.1,0.2
		c0,0,0,0,0,0c0,0,0,0,0,0c0,0,0,0,0,0c0,0,0,0,0,0c0,0,0,0,0,0c0,0,0,0,0,0c0,0,0,0,0,0c0,0,0,0,0,0c0,0,0,0,0,0c0,0,0,0,0,0
		c0,0,0,0,0,0c0,0,0,0,0,0c0,0,0,0,0,0l0,0c0.2,0.3,0.3,0.6,0.5,0.9l0.9-0.5C20.6,263.5,20,262.3,19.4,261.1L19.4,261.1z
		 M23.1,268.1l-0.9,0.5c0,0,0,0.1,0.1,0.1c0,0,0,0,0,0c0,0,0,0,0,0c0,0,0,0,0,0c0,0,0,0,0,0c0,0,0,0,0,0c0,0,0,0,0,0c0,0,0,0,0,0
		l0,0c0.6,1.1,1.2,2.1,1.8,3.2l0.9-0.5C24.4,270.5,23.7,269.3,23.1,268.1L23.1,268.1z M27.1,275l-0.9,0.5c0,0.1,0.1,0.2,0.1,0.2
		c0,0,0,0,0,0c0,0,0,0,0,0c0,0,0,0,0,0c0,0,0,0,0,0c0,0,0,0,0,0c0,0,0,0,0,0c0,0,0,0,0,0l0,0c0.6,1,1.2,2,1.9,3l0.8-0.5
		C28.5,277.3,27.8,276.2,27.1,275L27.1,275z M31.4,281.7l-0.8,0.6c0,0.1,0.1,0.1,0.1,0.2c0,0,0,0,0,0c0,0,0,0,0,0c0,0,0,0,0,0
		c0,0,0,0,0,0c0,0,0,0,0,0c0,0,0,0,0,0c0,0,0,0,0,0c0,0,0,0,0,0c0,0,0,0,0,0c0,0,0,0,0,0c0,0,0,0,0,0c0,0,0,0,0,0c0,0,0,0,0,0
		c0,0,0,0,0,0c0,0,0,0,0,0c0,0,0,0,0,0.1c0,0,0,0,0,0c0,0,0,0,0,0c0,0,0,0,0,0c0,0,0,0,0,0c0,0,0,0,0,0c0,0,0,0,0,0c0,0,0,0,0,0
		c0,0,0,0,0,0c0,0,0,0,0,0c0,0,0,0,0,0c0,0,0,0,0,0c0,0,0,0,0,0c0,0,0,0,0,0c0,0,0,0,0,0c0,0,0,0,0,0c0,0,0,0,0,0c0,0,0,0,0,0
		c0,0,0,0,0,0c0,0,0,0,0,0c0,0,0,0,0,0c0,0,0,0,0,0c0,0,0,0,0,0c0,0,0,0,0,0.1c0,0,0,0,0,0c0,0,0,0,0,0c0,0,0,0,0,0c0,0,0,0,0,0
		c0,0,0,0,0,0c0,0,0,0,0,0c0,0,0,0,0,0c0,0,0,0,0,0c0,0,0,0,0,0c0,0,0,0,0,0c0,0,0,0,0,0c0,0,0,0,0,0c0,0,0,0,0,0c0,0,0,0,0,0
		c0,0,0,0,0,0l0,0c0.4,0.5,0.8,1.1,1.1,1.6l0.8-0.6C32.9,283.9,32.1,282.8,31.4,281.7L31.4,281.7z M35.9,288.3l-0.8,0.6
		c0.5,0.7,1.1,1.5,1.6,2.2l0,0c0.3,0.3,0.5,0.7,0.8,1l0.8-0.6C37.5,290.4,36.7,289.3,35.9,288.3L35.9,288.3z M40.8,294.6l-0.8,0.6
		c0.3,0.3,0.5,0.7,0.8,1c0,0,0,0,0,0c0,0,0,0,0,0c0,0,0,0,0,0c0,0,0,0,0,0c0,0,0,0,0,0c0,0,0,0,0,0c0,0,0,0,0,0l0,0
		c0.5,0.6,1,1.3,1.6,1.9l0.8-0.6C42.5,296.6,41.6,295.6,40.8,294.6L40.8,294.6z M45.9,300.6l-0.8,0.7c0.1,0.2,0.3,0.3,0.4,0.5
		c0,0,0,0,0,0c0,0,0,0,0,0c0,0,0,0,0,0c0,0,0,0,0,0c0,0,0,0,0,0c0,0,0,0,0,0c0,0,0,0,0,0c0,0,0,0,0,0c0,0,0,0,0,0c0,0,0,0,0,0
		c0,0,0,0,0,0c0,0,0,0,0,0c0,0,0,0,0,0c0,0,0,0,0,0c0,0,0,0,0,0c0,0,0,0,0,0c0,0,0,0,0,0c0,0,0,0,0,0c0,0,0,0,0,0c0,0,0,0,0,0
		c0,0,0,0,0,0c0,0,0,0,0,0c0,0,0,0,0,0c0,0,0,0,0,0c0,0,0,0,0,0c0,0,0,0,0,0c0,0,0,0,0,0c0,0,0,0,0,0c0,0,0,0,0,0c0,0,0,0,0,0
		c0,0,0,0,0,0c0,0,0,0,0,0c0,0,0,0,0,0c0,0,0,0,0,0c0,0,0,0,0,0c0,0,0,0,0,0c0,0,0,0,0,0c0,0,0,0,0,0c0,0,0,0,0,0c0,0,0,0,0,0
		c0,0,0,0,0,0c0,0,0,0,0,0c0,0,0,0,0,0c0,0,0,0,0,0c0,0,0,0,0,0c0.4,0.5,0.8,0.9,1.3,1.4l0.7-0.7C47.7,302.6,46.8,301.6,45.9,300.6
		L45.9,300.6z M51.3,306.5l-0.7,0.7c0.7,0.7,1.4,1.4,2.1,2.1c0,0,0,0,0,0c0,0,0,0,0,0c0,0,0,0,0,0c0,0,0,0,0,0c0,0,0,0,0,0
		c0,0,0,0,0,0c0,0,0,0,0,0l0,0c0,0,0,0,0,0l0,0c0.2,0.2,0.4,0.4,0.5,0.5l0.7-0.7C53.1,308.4,52.2,307.5,51.3,306.5L51.3,306.5z
		 M56.9,312.1l-0.7,0.7c0.3,0.3,0.6,0.6,0.9,0.9l0,0c0,0,0,0,0,0l0,0c0,0,0,0,0,0c0,0,0,0,0,0c0,0,0,0,0,0c0,0,0,0,0,0c0,0,0,0,0,0
		c0,0,0,0,0,0c0,0,0,0,0,0c0,0,0,0,0,0c0,0,0,0,0,0c0,0,0,0,0,0c0,0,0,0,0,0c0,0,0,0,0,0c0,0,0,0,0,0c0,0,0,0,0,0c0,0,0,0,0,0
		c0,0,0,0,0,0c0,0,0,0,0,0c0,0,0,0,0,0c0,0,0,0,0,0c0,0,0,0,0,0c0,0,0,0,0,0c0,0,0,0,0,0c0,0,0,0,0,0c0,0,0,0,0,0c0,0,0,0,0,0
		c0,0,0,0,0,0c0,0,0,0,0,0c0,0,0,0,0,0c0,0,0,0,0,0c0,0,0,0,0,0h0c0,0,0.1,0.1,0.1,0.1c0,0,0,0,0,0c0,0,0,0,0,0c0,0,0,0,0,0
		c0,0,0,0,0,0c0,0,0,0,0,0c0,0,0,0,0,0c0,0,0,0,0,0c0,0,0,0,0,0c0,0,0,0,0,0c0,0,0,0,0,0c0,0,0,0,0,0c0,0,0,0,0,0c0,0,0,0,0,0
		c0,0,0,0,0,0c0.2,0.2,0.5,0.4,0.7,0.7l0.7-0.7C58.9,313.9,57.9,313,56.9,312.1L56.9,312.1z M62.8,317.5l-0.7,0.8c1,0.9,2,1.7,3,2.6
		l0.6-0.8C64.8,319.2,63.8,318.4,62.8,317.5L62.8,317.5z M68.9,322.6l-0.6,0.8c0.7,0.6,1.5,1.2,2.2,1.8c0,0,0,0,0,0c0,0,0,0,0.1,0
		c0,0,0,0,0,0c0,0,0,0,0,0c0,0,0,0,0,0c0,0,0,0,0,0c0,0,0,0,0,0c0,0,0,0,0,0c0,0,0,0,0,0c0,0,0,0,0,0c0,0,0,0,0,0c0,0,0,0,0.1,0
		c0,0,0,0,0,0c0,0,0,0,0,0c0,0,0,0,0,0c0,0,0,0,0,0c0,0,0,0,0,0c0,0,0,0,0,0c0,0,0,0,0,0c0,0,0,0,0,0c0,0,0,0,0,0l0,0c0,0,0,0,0,0
		l0,0c0.1,0.1,0.2,0.2,0.3,0.2L72,325C71,324.2,69.9,323.4,68.9,322.6L68.9,322.6z M75.2,327.4l-0.6,0.8c1.1,0.8,2.2,1.6,3.3,2.3
		l0.6-0.8C77.4,329,76.3,328.2,75.2,327.4L75.2,327.4z M81.8,332l-0.6,0.8c0.2,0.1,0.4,0.3,0.6,0.4l0,0c0,0,0,0,0,0c0,0,0,0,0,0
		c0,0,0,0,0,0c0,0,0,0,0,0c0,0,0,0,0,0c0,0,0,0,0,0c0,0,0,0,0,0c0,0,0,0,0,0c0,0,0,0,0,0c0,0,0,0,0,0c0,0,0,0,0,0
		c0.3,0.2,0.7,0.4,1,0.7c0,0,0,0,0,0c0,0,0,0,0.1,0c0,0,0,0,0,0c0,0,0,0,0,0c0,0,0,0,0,0c0,0,0,0,0,0c0,0,0,0,0,0c0,0,0,0,0,0
		c0,0,0,0,0,0c0,0,0,0,0,0c0,0,0,0,0,0c0,0,0,0,0,0c0,0,0,0,0,0c0,0,0,0,0,0c0,0,0.1,0.1,0.1,0.1l0,0c0,0,0,0,0,0c0,0,0,0,0,0
		c0,0,0,0,0,0c0,0,0,0,0,0c0,0,0,0,0,0c0,0,0,0,0,0c0,0,0,0,0,0l0,0c0,0,0,0,0,0l0,0c0.2,0.1,0.4,0.3,0.6,0.4l0.5-0.8
		C84,333.4,82.9,332.7,81.8,332L81.8,332z M88.5,336.2l-0.5,0.9c0.6,0.4,1.3,0.7,1.9,1.1c0,0,0,0,0,0c0,0,0,0,0,0c0,0,0,0,0,0
		c0,0,0,0,0,0c0,0,0,0,0,0c0,0,0,0,0,0c0,0,0,0,0,0l0,0c0.4,0.3,0.9,0.5,1.4,0.8l0.5-0.9C90.8,337.6,89.6,336.9,88.5,336.2
		L88.5,336.2z M95.4,340.2l-0.5,0.9c1,0.5,1.9,1,2.9,1.6c0,0,0,0,0,0c0,0,0,0,0,0c0,0,0,0,0,0c0,0,0,0,0,0c0,0,0,0,0,0c0,0,0,0,0,0
		c0.2,0.1,0.3,0.2,0.5,0.2l0.5-0.9C97.7,341.4,96.5,340.8,95.4,340.2L95.4,340.2z M102.5,343.8l-0.4,0.9c0.1,0,0.1,0.1,0.2,0.1
		c0,0,0,0,0,0c0,0,0,0,0,0c0,0,0,0,0,0c0,0,0,0,0,0c0,0,0,0,0,0c0,0,0,0,0,0c0,0,0,0,0,0l0,0c0,0,0,0,0,0c0,0,0,0,0,0
		c1,0.5,2.1,1,3.2,1.5l0.4-0.9C104.8,345,103.6,344.4,102.5,343.8L102.5,343.8z M109.7,347.1l-0.4,0.9c0.3,0.1,0.6,0.3,0.9,0.4
		c0,0,0,0,0,0c0,0,0,0,0.1,0c0,0,0,0,0,0c0,0,0,0,0.1,0c0,0,0,0,0,0c0,0,0,0,0.1,0c0,0,0,0,0,0c0,0,0,0,0.1,0c0,0,0,0,0,0
		c0.1,0.1,0.3,0.1,0.4,0.2c0,0,0,0,0,0c0,0,0,0,0.1,0c0,0,0,0,0,0c0.6,0.2,1.1,0.5,1.7,0.7c0,0,0,0,0,0c0,0,0,0,0,0c0,0,0,0,0,0
		c0,0,0,0,0,0c0,0,0,0,0,0c0,0,0,0,0,0c0,0,0,0,0,0c0,0,0,0,0,0c0,0,0,0,0,0c0,0,0,0,0,0c0,0,0.1,0,0.1,0l0.4-0.9
		C112.1,348.2,110.9,347.7,109.7,347.1L109.7,347.1z M117,350.2l-0.4,0.9c0.3,0.1,0.7,0.3,1.1,0.4l0,0c0,0,0.1,0,0.1,0c0,0,0,0,0,0
		c0,0,0,0,0,0c0,0,0,0,0.1,0c0,0,0,0,0,0c0,0,0,0,0.1,0c0,0,0,0,0,0c0,0,0,0,0.1,0c0,0,0,0,0,0c0,0,0,0,0.1,0c0,0,0,0,0,0
		c0.8,0.3,1.5,0.6,2.3,0.8l0.3-0.9C119.5,351.1,118.3,350.6,117,350.2L117,350.2z M124.5,352.8l-0.3,0.9c0.6,0.2,1.3,0.4,1.9,0.6
		c0,0,0,0,0,0c0,0,0,0,0.1,0c0,0,0,0,0,0c0,0,0,0,0,0c0,0,0,0,0,0c0,0,0,0,0,0c0,0,0,0,0,0c0,0,0,0,0,0c0,0,0,0,0,0c0,0,0,0,0,0
		c0.5,0.2,1.1,0.3,1.6,0.5l0,0l0.3-1C127.1,353.7,125.8,353.2,124.5,352.8L124.5,352.8z M132.1,355.2l-0.3,1
		c0.6,0.2,1.2,0.3,1.8,0.5c0,0,0,0,0,0c0,0,0,0,0.1,0c0,0,0,0,0,0c0,0,0,0,0,0c0,0,0,0,0,0c0,0,0,0,0,0c0,0,0,0,0,0c0,0,0,0,0,0
		c0,0,0,0,0,0c0,0,0,0,0,0c0.1,0,0.1,0,0.2,0l0,0c0,0,0,0,0.1,0c0,0,0,0,0,0c0,0,0,0,0.1,0l0,0c0,0,0,0,0.1,0l0,0
		c0.5,0.1,1,0.3,1.4,0.4l0.3-1C134.7,355.9,133.4,355.5,132.1,355.2L132.1,355.2z M139.8,357.2l-0.2,1c0.7,0.2,1.5,0.3,2.3,0.5
		c0,0,0,0,0,0c0,0,0,0,0.1,0l0,0c0,0,0,0,0.1,0c0,0,0,0,0,0c0,0,0,0,0.1,0c0,0,0,0,0,0c0.1,0,0.2,0,0.3,0.1c0,0,0,0,0,0c0,0,0,0,0,0
		c0,0,0,0,0,0c0,0,0,0,0,0l0,0c0,0,0,0,0,0c0,0,0,0,0,0c0,0,0,0,0.1,0l0,0c0.3,0.1,0.6,0.1,0.9,0.2l0.2-1
		C142.4,357.8,141.1,357.5,139.8,357.2L139.8,357.2z M147.6,358.8l-0.2,1c0.6,0.1,1.2,0.2,1.8,0.3c0,0,0,0,0,0c0,0,0,0,0,0
		c0,0,0,0,0,0c0,0,0,0,0,0c0,0,0,0,0,0c0,0,0,0,0,0c0,0,0,0,0,0c0,0,0,0,0,0c0,0,0,0,0,0c0,0,0,0,0,0c0.1,0,0.1,0,0.2,0c0,0,0,0,0,0
		c0.5,0.1,1.1,0.2,1.6,0.3l0.2-1C150.2,359.3,148.9,359.1,147.6,358.8L147.6,358.8z M155.5,360.1l-0.1,1c1.3,0.2,2.6,0.4,4,0.5
		l0.1-1C158.1,360.5,156.8,360.3,155.5,360.1L155.5,360.1z M163.4,361.1l-0.1,1c0.3,0,0.6,0.1,0.9,0.1l0,0c0,0,0,0,0.1,0
		c0,0,0,0,0,0c0,0,0,0,0.1,0l0,0c0.1,0,0.1,0,0.2,0c0,0,0,0,0,0c0,0,0,0,0,0c0,0,0,0,0,0c0,0,0,0,0,0c0,0,0,0,0,0c0,0,0,0,0,0
		c0,0,0,0,0,0c0,0,0,0,0,0c0,0,0,0,0,0c0,0,0,0,0,0c0,0,0,0,0,0c0,0,0,0,0,0c0,0,0,0,0.1,0c0,0,0,0,0,0c0,0,0,0,0,0c0,0,0,0,0,0
		c0,0,0,0,0,0c0,0,0,0,0,0c0,0,0,0,0,0c0,0,0,0,0,0c0,0,0,0,0,0c0,0,0,0,0,0c0,0,0,0,0,0c0,0,0,0,0,0c0,0,0,0,0,0c0,0,0,0,0.1,0
		c0,0,0,0,0,0c0,0,0,0,0,0c0,0,0,0,0,0c0,0,0,0,0,0c0,0,0,0,0,0c0,0,0,0,0,0c0,0,0,0,0,0c0,0,0,0,0,0c0,0,0,0,0,0c0,0,0,0,0,0
		c0,0,0,0,0,0c0,0,0.1,0,0.1,0c0,0,0,0,0,0c0,0,0,0,0,0c0,0,0,0,0,0c0,0,0,0,0,0c0,0,0,0,0,0c0,0,0,0,0,0c0,0,0,0,0,0c0,0,0,0,0,0
		c0,0,0,0,0,0c0,0,0,0,0,0c0,0,0,0,0,0c0,0,0,0,0,0c0,0,0.1,0,0.1,0c0,0,0,0,0,0c0,0,0,0,0.1,0c0,0,0,0,0,0c0,0,0,0,0.1,0
		c0,0,0,0,0,0c0.2,0,0.5,0,0.7,0.1l0.1-1C166,361.3,164.7,361.2,163.4,361.1L163.4,361.1z M171.3,361.7l-0.1,1c0.7,0,1.3,0.1,2,0.1
		c0,0,0,0,0,0c0,0,0,0,0.1,0c0,0,0,0,0,0c0,0,0,0,0,0c0,0,0,0,0,0c0,0,0,0,0,0c0,0,0,0,0,0c0,0,0,0,0,0c0,0,0.1,0,0.1,0c0,0,0,0,0,0
		c0,0,0,0,0,0c0,0,0,0,0,0c0,0,0,0,0.1,0l0,0c0,0,0,0,0.1,0c0,0,0,0,0,0c0.5,0,0.9,0,1.4,0.1l0-1
		C173.9,361.8,172.6,361.8,171.3,361.7L171.3,361.7z M179.2,362l0,1c0.5,0,0.9,0,1.4,0h0c0,0,0,0,0.1,0c0,0,0,0,0,0c0,0,0,0,0.1,0
		c0,0,0,0,0,0c0,0,0,0,0.1,0c0,0,0,0,0,0c0,0,0,0,0.1,0c0,0,0,0,0,0c0,0,0,0,0.1,0c0,0,0,0,0,0c0,0,0,0,0.1,0c0,0,0,0,0,0
		c0,0,0,0,0,0c0,0,0,0,0,0c0,0,0,0,0,0c0,0,0,0,0,0c0,0,0,0,0,0c0,0,0,0,0,0c0,0,0,0,0,0c0,0,0,0,0,0c0,0,0,0,0,0c0,0,0,0,0.1,0l0,0
		l0,0c0,0,0,0,0.1,0c0,0,0,0,0,0c0,0,0,0,0.1,0c0,0,0,0,0,0c0,0,0.1,0,0.1,0c0,0,0,0,0,0c0.4,0,0.8,0,1.2,0c0,0,0,0,0,0c0,0,0,0,0,0
		c0,0,0,0,0,0l0,0c0,0,0.1,0,0.1,0l0-1c-0.6,0-1.2,0-1.7,0C180.7,362,180,362,179.2,362L179.2,362z M191.2,361.7
		c-1.3,0.1-2.7,0.1-4,0.2l0,1c0.3,0,0.6,0,0.8,0c0,0,0,0,0,0c0,0,0,0,0.1,0c0,0,0,0,0,0c0,0,0,0,0.1,0c0,0,0,0,0,0c0,0,0.1,0,0.1,0
		c0,0,0,0,0,0c0,0,0,0,0,0c0,0,0,0,0,0c0,0,0,0,0,0c0,0,0,0,0,0c0,0,0,0,0,0c0,0,0,0,0,0c0,0,0,0,0,0c0,0,0,0,0,0c0,0,0,0,0.1,0
		c0,0,0,0,0,0c0,0,0,0,0.1,0c0,0,0,0,0,0c0,0,0,0,0,0c0,0,0,0,0,0c0,0,0,0,0,0c0,0,0,0,0,0c0,0,0,0,0,0c0,0,0,0,0,0c0,0,0,0,0,0
		c0,0,0,0,0,0c0,0,0,0,0.1,0c0,0,0,0,0,0c0,0,0,0,0.1,0c0,0,0,0,0,0c0,0,0,0,0.1,0c0,0,0,0,0,0c0,0,0,0,0.1,0c0,0,0,0,0,0
		c0,0,0,0,0.1,0c0,0,0,0,0,0c0,0,0,0,0.1,0c0,0,0,0,0,0c0.1,0,0.1,0,0.2,0c0,0,0,0,0,0c0,0,0,0,0.1,0c0,0,0,0,0,0c0,0,0,0,0.1,0
		c0,0,0,0,0,0c0,0,0,0,0.1,0c0,0,0,0,0,0c0.1,0,0.1,0,0.2,0c0,0,0,0,0,0c0,0,0,0,0.1,0c0,0,0,0,0,0c0,0,0,0,0,0c0,0,0,0,0,0
		c0,0,0,0,0,0c0,0,0,0,0,0c0,0,0,0,0,0c0,0,0,0,0,0c0,0,0,0,0,0c0,0,0.1,0,0.1,0l0,0c0,0,0,0,0.1,0c0,0,0,0,0,0c0,0,0,0,0.1,0l0,0
		c0.2,0,0.3,0,0.5,0L191.2,361.7L191.2,361.7z M199.1,361.2c-1.3,0.1-2.6,0.2-4,0.3l0.1,1c0.3,0,0.5,0,0.8-0.1c0,0,0,0,0,0
		c0,0,0,0,0.1,0c0,0,0,0,0,0c0,0,0,0,0,0c0,0,0,0,0,0c0,0,0,0,0,0c0,0,0,0,0,0c0,0,0,0,0,0c1-0.1,1.9-0.2,2.9-0.3L199.1,361.2
		L199.1,361.2z M207,360.2c-1.3,0.2-2.6,0.4-3.9,0.5l0.1,1c1.3-0.2,2.6-0.3,4-0.5L207,360.2L207,360.2z M214.9,358.9
		c-1.3,0.2-2.6,0.5-3.9,0.7l0.2,1c0.2,0,0.5-0.1,0.7-0.1c0,0,0,0,0,0c0,0,0,0,0,0c0,0,0,0,0,0c0,0,0,0,0,0c0,0,0,0,0,0c0,0,0,0,0,0
		c1-0.2,2-0.4,3.1-0.5L214.9,358.9L214.9,358.9z M222.6,357.3c-1.3,0.3-2.6,0.6-3.9,0.9l0.2,1c0.4-0.1,0.7-0.2,1.1-0.2c0,0,0,0,0,0
		c0,0,0,0,0.1,0c0,0,0,0,0,0c0,0,0,0,0,0c0,0,0,0,0,0c0,0,0,0,0,0c0,0,0,0,0,0c0,0,0,0,0,0c0,0,0,0,0,0c0,0,0,0,0,0c0,0,0,0,0,0
		c0,0,0,0,0,0c0.1,0,0.1,0,0.2,0l0,0c0,0,0,0,0,0c0,0,0,0,0,0c0,0,0,0,0,0c0,0,0,0,0,0c0,0,0,0,0,0c0,0,0,0,0,0c0,0,0,0,0,0
		c0,0,0,0,0,0c0,0,0,0,0.1,0c0,0,0,0,0,0c0.1,0,0.2-0.1,0.4-0.1l0,0c0.5-0.1,1.1-0.2,1.6-0.4L222.6,357.3L222.6,357.3z M230.4,355.3
		c-1.3,0.4-2.6,0.7-3.8,1l0.2,1c0,0,0,0,0,0c0,0,0,0,0,0c0,0,0,0,0,0c0,0,0,0,0.1,0l0,0c1.2-0.3,2.3-0.6,3.5-0.9c0,0,0,0,0,0
		c0,0,0,0,0,0c0,0,0,0,0.1,0c0,0,0,0,0,0c0,0,0.1,0,0.1,0L230.4,355.3L230.4,355.3z M238,353c-1.3,0.4-2.5,0.8-3.8,1.2l0.3,1
		c1-0.3,2-0.6,2.9-0.9c0,0,0,0,0,0c0,0,0,0,0,0c0,0,0,0,0,0c0,0,0,0,0,0c0,0,0,0,0,0c0,0,0,0,0,0c0.2-0.1,0.5-0.2,0.7-0.2L238,353
		L238,353z M245.5,350.3c-1.2,0.5-2.5,0.9-3.7,1.4l0.3,0.9c0.8-0.3,1.6-0.6,2.3-0.8l0,0c0,0,0,0,0.1,0c0,0,0,0,0,0c0,0,0,0,0,0
		c0,0,0,0,0,0c0,0,0,0,0,0c0,0,0,0,0,0c0,0,0,0,0,0c0,0,0,0,0,0c0,0,0,0,0,0c0,0,0,0,0,0c0,0,0,0,0,0c0,0,0,0,0,0c0,0,0,0,0,0
		c0,0,0,0,0.1,0c0,0,0,0,0,0c0,0,0,0,0,0c0,0,0,0,0,0c0,0,0,0,0,0c0,0,0,0,0,0c0,0,0,0,0,0c0,0,0,0,0,0c0,0,0,0,0,0c0,0,0,0,0,0
		c0,0,0,0,0,0c0,0,0,0,0,0c0,0,0,0,0,0c0,0,0,0,0,0c0,0,0,0,0.1,0c0,0,0,0,0,0c0.2-0.1,0.3-0.1,0.5-0.2L245.5,350.3L245.5,350.3z
		 M252.8,347.4c-1.2,0.5-2.4,1-3.7,1.5l0.4,0.9c0.7-0.3,1.4-0.6,2.1-0.9c0,0,0,0,0,0c0,0,0,0,0,0c0,0,0,0,0,0c0,0,0,0,0,0l0,0
		c0,0,0,0,0,0c0,0,0,0,0,0c0,0,0,0,0,0l0,0c0.1,0,0.2-0.1,0.3-0.1l0,0c0,0,0,0,0,0c0,0,0,0,0,0c0,0,0,0,0,0c0,0,0,0,0,0c0,0,0,0,0,0
		c0,0,0,0,0,0c0,0,0,0,0,0c0,0,0,0,0,0c0,0,0,0,0,0c0,0,0,0,0,0c0,0,0,0,0,0c0,0,0,0,0,0c0,0,0,0,0,0c0,0,0,0,0,0c0,0,0,0,0,0
		c0,0,0,0,0.1,0c0,0,0,0,0,0c0,0,0,0,0.1,0c0,0,0,0,0,0c0,0,0,0,0.1,0c0,0,0,0,0,0c0,0,0,0,0.1,0c0,0,0,0,0,0c0.1,0,0.2-0.1,0.3-0.1
		L252.8,347.4L252.8,347.4z M260.1,344c-1.2,0.6-2.4,1.1-3.6,1.7l0.4,0.9c0.5-0.2,0.9-0.4,1.4-0.7l0,0c0,0,0,0,0,0c0,0,0,0,0,0
		c0,0,0,0,0,0c0,0,0,0,0,0c0,0,0,0,0,0c0,0,0,0,0,0c0,0,0,0,0,0c0,0,0,0,0,0c0,0,0,0,0,0c0,0,0,0,0.1,0c0,0,0,0,0,0
		c0.6-0.3,1.1-0.5,1.7-0.8c0,0,0,0,0,0c0,0,0,0,0,0c0,0,0,0,0,0c0,0,0,0,0,0c0,0,0,0,0,0c0,0,0,0,0,0c0,0,0,0,0,0L260.1,344
		L260.1,344z M267.2,340.4c-1.2,0.6-2.3,1.3-3.5,1.9l0.5,0.9c1.2-0.6,2.4-1.2,3.5-1.9L267.2,340.4L267.2,340.4z M274.1,336.5
		c-1.1,0.7-2.3,1.4-3.4,2l0.5,0.9c0.5-0.3,1-0.6,1.5-0.9c0,0,0,0,0,0c0,0,0,0,0.1,0c0,0,0,0,0,0c0,0,0,0,0.1,0c0,0,0,0,0,0
		c0,0,0,0,0,0c0,0,0,0,0,0c0,0,0,0,0.1,0c0,0,0,0,0,0c0.1,0,0.1-0.1,0.2-0.1c0,0,0,0,0,0c0,0,0,0,0,0c0,0,0,0,0,0c0,0,0,0,0,0
		c0,0,0,0,0,0c0,0,0,0,0,0c0,0,0,0,0,0c0,0,0,0,0,0c0,0,0,0,0,0c0,0,0,0,0,0c0,0,0,0,0,0c0,0,0,0,0,0c0,0,0,0,0,0c0,0,0,0,0,0
		c0,0,0,0,0,0c0,0,0,0,0,0c0,0,0,0,0,0c0,0,0,0,0,0c0,0,0,0,0,0c0,0,0,0,0,0c0,0,0,0,0,0c0,0,0,0,0,0c0,0,0,0,0,0c0,0,0,0,0,0
		c0,0,0,0,0,0c0,0,0,0,0,0c0,0,0,0,0,0c0,0,0,0,0,0c0,0,0,0,0,0c0,0,0,0,0,0c0,0,0,0,0,0c0,0,0,0,0,0c0,0,0,0,0,0c0,0,0,0,0.1,0
		c0,0,0,0,0,0c0.2-0.1,0.4-0.2,0.6-0.3L274.1,336.5L274.1,336.5z M280.8,332.3c-1.1,0.7-2.2,1.5-3.3,2.2l0.5,0.8
		c0.2-0.1,0.4-0.3,0.6-0.4l0,0c0,0,0,0,0,0c0,0,0,0,0,0c0,0,0,0,0,0c0,0,0,0,0,0c0,0,0,0,0,0c0.9-0.6,1.7-1.1,2.6-1.7L280.8,332.3
		L280.8,332.3z M287.3,327.7c-1.1,0.8-2.2,1.5-3.2,2.3l0.6,0.8c0.7-0.5,1.3-0.9,2-1.4c0,0,0,0,0,0c0,0,0,0,0,0c0,0,0,0,0,0
		c0,0,0,0,0,0c0,0,0,0,0,0c0,0,0,0,0,0c0,0,0,0,0,0c0,0,0,0,0,0c0,0,0,0,0,0c0,0,0,0,0,0c0,0,0,0,0,0c0,0,0,0,0,0c0,0,0,0,0,0
		c0.1,0,0.1-0.1,0.2-0.1c0,0,0,0,0,0c0,0,0,0,0,0c0,0,0,0,0,0c0,0,0,0,0,0c0,0,0,0,0,0c0,0,0,0,0,0c0,0,0,0,0,0c0,0,0,0,0,0
		c0,0,0,0,0,0c0,0,0,0,0,0c0,0,0,0,0,0c0,0,0,0,0,0c0,0,0,0,0,0c0,0,0,0,0.1,0c0,0,0,0,0,0c0.1-0.1,0.2-0.2,0.4-0.3L287.3,327.7
		L287.3,327.7z M293.7,322.9c-1,0.8-2.1,1.6-3.1,2.4l0.6,0.8c0.5-0.4,1-0.8,1.6-1.2c0,0,0,0,0,0c0,0,0,0,0.1,0c0,0,0,0,0,0
		c0,0,0,0,0.1,0c0,0,0,0,0,0c0,0,0,0,0.1,0c0,0,0,0,0,0c0.1-0.1,0.3-0.2,0.4-0.3c0,0,0,0,0,0c0,0,0,0,0,0c0,0,0,0,0,0c0,0,0,0,0,0
		c0,0,0,0,0,0c0,0,0,0,0,0c0,0,0,0,0,0c0,0,0,0,0,0c0,0,0,0,0,0c0,0,0,0,0,0c0,0,0,0,0,0c0.1-0.1,0.1-0.1,0.2-0.2c0,0,0,0,0,0
		c0,0,0,0,0,0c0,0,0,0,0,0c0,0,0,0,0,0c0,0,0,0,0,0c0,0,0,0,0,0c0,0,0,0,0,0c0,0,0,0,0,0c0,0,0,0,0,0c0,0,0,0,0,0c0,0,0,0,0,0
		c0,0,0,0,0,0c0,0,0,0,0,0c0,0,0,0,0,0c0.1,0,0.1-0.1,0.2-0.1L293.7,322.9L293.7,322.9z M299.8,317.8c-1,0.9-2,1.7-3,2.6l0.6,0.8
		c0.4-0.3,0.7-0.6,1.1-0.9c0,0,0,0,0,0c0,0,0,0,0,0c0,0,0,0,0,0c0,0,0,0,0,0c0,0,0,0,0,0c0,0,0,0,0,0c0,0,0,0,0,0c0,0,0,0,0,0
		c0,0,0,0,0,0c0,0,0,0,0,0c0,0,0,0,0,0c0,0,0,0,0,0c0,0,0,0,0,0c0,0,0,0,0,0c0,0,0,0,0,0l0,0c0.1-0.1,0.2-0.1,0.2-0.2l0,0
		c0,0,0,0,0,0l0,0c0,0,0,0,0,0l0,0c0,0,0,0,0,0l0,0c0,0,0,0,0,0c0,0,0,0,0,0c0.1-0.1,0.2-0.2,0.4-0.3l0,0c0,0,0,0,0,0c0,0,0,0,0,0
		c0,0,0,0,0,0c0,0,0,0,0,0c0,0,0,0,0,0l0,0c0,0,0,0,0,0c0,0,0,0,0,0c0,0,0,0,0,0c0,0,0,0,0,0c0,0,0,0,0,0c0,0,0,0,0,0c0,0,0,0,0,0
		c0,0,0,0,0,0c0,0,0,0,0,0c0,0,0,0,0,0c0,0,0,0,0,0c0,0,0,0,0.1,0c0,0,0,0,0,0c0,0,0,0,0,0c0,0,0,0,0,0c0,0,0,0,0,0c0,0,0,0,0,0
		c0,0,0,0,0,0c0,0,0,0,0,0c0,0,0,0,0,0c0,0,0,0,0,0c0,0,0,0,0.1-0.1L299.8,317.8L299.8,317.8z M305.7,312.5c-1,0.9-1.9,1.8-2.9,2.7
		l0.7,0.7c0.1-0.1,0.1-0.1,0.2-0.2c0,0,0,0,0,0c0,0,0,0,0,0c0,0,0,0,0,0c0,0,0,0,0,0c0,0,0,0,0,0c0,0,0,0,0,0c0,0,0,0,0,0
		c0,0,0,0,0,0c0,0,0,0,0,0c0,0,0,0,0,0c0.9-0.8,1.7-1.6,2.5-2.4L305.7,312.5L305.7,312.5z M311.3,306.9c-0.9,0.9-1.9,1.9-2.8,2.8
		l0.7,0.7c0.7-0.7,1.5-1.5,2.2-2.2c0,0,0,0,0,0c0,0,0,0,0,0c0,0,0,0,0,0c0,0,0,0,0,0c0,0,0,0,0,0c0,0,0,0,0,0c0,0,0,0,0,0
		c0,0,0,0,0,0c0,0,0,0,0,0c0,0,0,0,0,0c0.1-0.1,0.3-0.3,0.4-0.4L311.3,306.9L311.3,306.9z M316.7,301c-0.9,1-1.8,2-2.7,3l0.7,0.7
		c0.7-0.7,1.3-1.4,2-2.1c0,0,0,0,0,0c0,0,0,0,0,0c0,0,0,0,0,0c0,0,0,0,0,0c0,0,0,0,0,0c0.2-0.2,0.4-0.5,0.6-0.7L316.7,301L316.7,301
		z M321.9,295c-0.8,1-1.7,2.1-2.5,3.1l0.8,0.6c0.2-0.3,0.5-0.6,0.7-0.9c0,0,0,0,0,0c0,0,0,0,0,0c0,0,0,0,0,0c0,0,0,0,0,0
		c0,0,0,0,0,0c0,0,0,0,0,0c0.6-0.7,1.1-1.3,1.6-2c0,0,0,0,0,0c0,0,0,0,0,0c0,0,0,0,0,0L321.9,295L321.9,295z M326.7,288.7
		c-0.8,1.1-1.6,2.1-2.4,3.2l0.8,0.6c0.4-0.5,0.8-1,1.1-1.5c0,0,0,0,0,0c0,0,0,0,0,0c0,0,0,0,0,0c0,0,0,0,0,0c0,0,0,0,0,0
		c0,0,0,0,0,0c0,0,0,0,0,0l0,0c0,0,0,0,0,0l0,0c0.3-0.4,0.6-0.8,0.9-1.2l0,0c0,0,0,0,0,0c0,0,0,0,0,0c0,0,0,0,0,0c0,0,0,0,0,0
		c0,0,0,0,0,0c0,0,0.1-0.1,0.1-0.1L326.7,288.7L326.7,288.7z M331.3,282.2c-0.7,1.1-1.5,2.2-2.3,3.3l0.8,0.6
		c0.4-0.6,0.9-1.2,1.3-1.8c0,0,0,0,0,0c0,0,0,0,0-0.1l0,0c0,0,0,0,0,0l0,0c0,0,0,0,0,0c0,0,0,0,0,0c0,0,0,0,0,0l0,0
		c0.3-0.4,0.6-0.8,0.8-1.2L331.3,282.2L331.3,282.2z M335.6,275.5c-0.7,1.1-1.4,2.3-2.1,3.4l0.8,0.5c0.1-0.2,0.3-0.4,0.4-0.6l0,0
		c0,0,0,0,0,0c0,0,0,0,0,0c0,0,0,0,0,0c0,0,0,0,0,0c0,0,0,0,0,0c0,0,0,0,0,0c0,0,0,0,0,0c0,0,0,0,0,0c0,0,0,0,0,0c0,0,0,0,0,0
		c0,0,0,0,0,0c0,0,0,0,0,0c0,0,0,0,0,0c0.4-0.7,0.9-1.4,1.3-2.1c0,0,0,0,0,0c0,0,0,0,0-0.1c0,0,0,0,0,0c0,0,0,0,0,0c0,0,0,0,0,0
		c0,0,0,0,0,0c0,0,0,0,0,0c0,0,0,0,0,0c0,0,0,0,0,0c0,0,0,0,0,0c0,0,0,0,0,0l0,0L335.6,275.5L335.6,275.5z M339.6,268.6
		c-0.6,1.2-1.3,2.3-2,3.5l0.9,0.5c0,0,0-0.1,0.1-0.1l0,0c0,0,0,0,0,0c0,0,0,0,0,0c0,0,0,0,0,0c0,0,0,0,0,0c0,0,0,0,0,0c0,0,0,0,0,0
		c0,0,0,0,0,0c0.3-0.6,0.7-1.1,1-1.7c0,0,0,0,0,0c0,0,0,0,0-0.1c0,0,0,0,0,0c0,0,0,0,0,0c0,0,0,0,0,0c0,0,0,0,0,0c0,0,0,0,0,0
		c0,0,0,0,0,0c0,0,0,0,0,0c0,0,0,0,0,0c0,0,0.1-0.1,0.1-0.1l0,0c0,0,0,0,0-0.1l0,0c0,0,0,0,0-0.1c0,0,0,0,0,0
		c0.2-0.3,0.3-0.6,0.5-0.9L339.6,268.6L339.6,268.6z M343.3,261.6c-0.6,1.2-1.2,2.4-1.8,3.5l0.9,0.5c0.4-0.8,0.8-1.6,1.3-2.4l0,0
		c0,0,0,0,0-0.1c0,0,0,0,0,0c0,0,0,0,0-0.1c0,0,0,0,0,0c0,0,0,0,0,0c0,0,0,0,0,0c0,0,0,0,0,0c0,0,0,0,0,0c0,0,0,0,0,0c0,0,0,0,0-0.1
		c0,0,0,0,0,0c0,0,0,0,0,0c0,0,0,0,0,0c0,0,0,0,0,0c0,0,0,0,0,0c0,0,0,0,0,0c0,0,0,0,0,0c0,0,0,0,0-0.1c0,0,0,0,0,0
		c0.1-0.2,0.2-0.4,0.3-0.5L343.3,261.6L343.3,261.6z M346.7,254.4c-0.5,1.2-1.1,2.4-1.6,3.6l0.9,0.4c0.1-0.3,0.2-0.5,0.4-0.8l0,0
		c0,0,0,0,0-0.1c0,0,0,0,0,0c0,0,0,0,0,0c0,0,0,0,0,0c0,0,0,0,0,0l0,0c0,0,0,0,0,0c0,0,0,0,0,0c0,0,0,0,0-0.1c0,0,0,0,0,0
		c0,0,0,0,0,0c0,0,0,0,0,0c0,0,0,0,0,0c0,0,0,0,0,0c0,0,0,0,0,0c0,0,0,0,0,0c0,0,0,0,0,0c0,0,0,0,0-0.1c0,0,0,0,0,0c0,0,0,0,0-0.1
		c0,0,0,0,0,0c0.2-0.4,0.3-0.7,0.5-1.1c0,0,0,0,0,0c0,0,0,0,0-0.1c0,0,0,0,0,0c0,0,0,0,0-0.1c0,0,0,0,0,0c0,0,0,0,0,0c0,0,0,0,0,0
		c0,0,0,0,0,0c0,0,0,0,0,0c0,0,0,0,0,0c0,0,0,0,0,0c0,0,0,0,0,0c0.1-0.3,0.2-0.5,0.3-0.8L346.7,254.4L346.7,254.4z M349.7,247
		c-0.5,1.2-1,2.5-1.5,3.7l0.9,0.4c0.5-1.2,1-2.5,1.5-3.7L349.7,247L349.7,247z M352.5,239.5c-0.4,1.2-0.9,2.5-1.3,3.8l0.9,0.3
		c0.5-1.3,0.9-2.5,1.3-3.8L352.5,239.5L352.5,239.5z M354.9,231.9c-0.4,1.3-0.8,2.5-1.2,3.8l1,0.3c0.1-0.3,0.2-0.5,0.3-0.8
		c0,0,0,0,0,0c0,0,0,0,0,0c0,0,0,0,0,0c0,0,0,0,0,0c0,0,0,0,0,0c0,0,0,0,0,0c0,0,0,0,0-0.1c0,0,0,0,0,0c0,0,0,0,0-0.1c0,0,0,0,0,0
		c0.2-0.5,0.3-1,0.4-1.5c0,0,0,0,0,0c0,0,0,0,0-0.1c0,0,0,0,0,0c0,0,0,0,0,0c0,0,0,0,0,0c0,0,0,0,0,0c0,0,0,0,0,0c0,0,0,0,0,0
		c0,0,0,0,0,0c0,0,0,0,0,0c0,0,0,0,0,0l0,0c0.1-0.3,0.2-0.6,0.3-0.9L354.9,231.9L354.9,231.9z M356.9,224.3c-0.3,1.3-0.6,2.6-1,3.9
		l1,0.3c0.1-0.3,0.2-0.7,0.3-1c0,0,0,0,0,0c0,0,0,0,0,0c0,0,0,0,0,0c0,0,0,0,0,0c0,0,0,0,0-0.1l0,0c0.2-0.7,0.4-1.4,0.5-2.1l0,0
		c0,0,0,0,0,0c0,0,0,0,0,0c0,0,0,0,0,0c0,0,0,0,0,0c0,0,0,0,0,0c0,0,0,0,0-0.1c0,0,0,0,0,0c0-0.1,0.1-0.3,0.1-0.4L356.9,224.3
		L356.9,224.3z M358.6,216.5c-0.3,1.3-0.5,2.6-0.8,3.9l1,0.2c0,0,0,0,0,0c0,0,0,0,0,0c0,0,0,0,0,0c0,0,0,0,0,0c0,0,0,0,0,0
		c0,0,0,0,0,0c0-0.1,0-0.2,0.1-0.3c0,0,0,0,0,0c0,0,0,0,0-0.1c0,0,0,0,0,0c0-0.2,0.1-0.4,0.1-0.5c0,0,0,0,0,0c0-0.1,0-0.2,0.1-0.3
		c0,0,0,0,0,0c0,0,0,0,0-0.1c0,0,0,0,0,0c0,0,0,0,0,0c0,0,0,0,0,0c0,0,0,0,0,0c0,0,0,0,0,0c0,0,0,0,0,0c0,0,0,0,0,0c0,0,0,0,0,0
		c0,0,0,0,0,0c0,0,0,0,0,0c0.1-0.7,0.3-1.4,0.4-2.1L358.6,216.5L358.6,216.5z M360,208.6c-0.2,1.3-0.4,2.6-0.6,3.9l1,0.2l0,0
		c0,0,0,0,0,0c0,0,0,0,0,0c0,0,0,0,0,0c0,0,0,0,0,0c0,0,0,0,0,0c0,0,0,0,0,0c0,0,0,0,0,0c0,0,0,0,0,0c0,0,0-0.1,0-0.1c0,0,0,0,0,0
		c0,0,0,0,0,0c0,0,0,0,0,0c0,0,0,0,0,0c0,0,0,0,0,0c0,0,0,0,0,0c0,0,0,0,0,0c0,0,0,0,0,0c0,0,0,0,0,0c0,0,0,0,0,0c0,0,0,0,0,0
		c0,0,0,0,0,0c0,0,0,0,0,0c0,0,0,0,0-0.1c0,0,0,0,0,0c0,0,0,0,0,0c0,0,0,0,0,0c0,0,0,0,0,0c0,0,0,0,0,0c0,0,0,0,0,0c0,0,0,0,0,0
		c0,0,0,0,0,0c0,0,0,0,0,0c0,0,0,0,0,0c0,0,0,0,0,0c0,0,0,0,0,0c0,0,0,0,0-0.1c0,0,0,0,0,0c0,0,0-0.1,0-0.1c0,0,0,0,0,0
		c0,0,0,0,0-0.1c0,0,0,0,0,0c0,0,0,0,0-0.1c0,0,0,0,0,0c0,0,0,0,0-0.1c0,0,0,0,0,0c0.1-0.8,0.2-1.5,0.4-2.3L360,208.6L360,208.6z
		 M361,200.8c-0.1,1.3-0.3,2.6-0.5,4l1,0.1c0.1-0.5,0.1-1,0.2-1.5c0,0,0,0,0,0c0,0,0,0,0,0c0,0,0,0,0,0c0,0,0,0,0,0c0,0,0,0,0,0
		c0,0,0,0,0,0c0,0,0,0,0-0.1c0,0,0,0,0,0c0.1-0.8,0.2-1.5,0.3-2.3L361,200.8L361,200.8z M361.7,192.8c-0.1,1.3-0.2,2.7-0.3,4l1,0.1
		l0,0c0-0.6,0.1-1.1,0.1-1.7c0,0,0,0,0,0c0,0,0,0,0-0.1l0,0c0,0,0,0,0,0c0,0,0,0,0,0c0,0,0,0,0,0c0,0,0,0,0,0c0,0,0,0,0,0
		c0,0,0,0,0-0.1c0,0,0,0,0,0c0,0,0,0,0,0c0,0,0,0,0,0c0,0,0,0,0,0c0,0,0,0,0,0c0,0,0,0,0,0c0,0,0,0,0,0c0,0,0,0,0-0.1c0,0,0,0,0,0
		c0-0.6,0.1-1.1,0.1-1.7c0,0,0,0,0,0c0,0,0,0,0,0L361.7,192.8L361.7,192.8z M362,184.9c0,1.3-0.1,2.7-0.1,4l1,0c0-1,0.1-2,0.1-3
		c0,0,0,0,0,0c0,0,0,0,0,0c0,0,0,0,0,0c0,0,0,0,0,0c0,0,0,0,0-0.1c0,0,0,0,0,0c0-0.3,0-0.5,0-0.8L362,184.9L362,184.9z M362.9,176.9
		l-1,0c0,1.3,0.1,2.7,0.1,4l1,0c0-0.9,0-1.9,0-2.8c0,0,0,0,0,0c0,0,0,0,0-0.1l0,0c0,0,0,0,0-0.1c0,0,0,0,0,0c0,0,0,0,0-0.1l0,0
		c0-0.1,0-0.1,0-0.2l0,0c0,0,0,0,0-0.1c0,0,0,0,0,0c0,0,0,0,0-0.1l0,0c0,0,0,0,0-0.1c0,0,0,0,0,0C363,177.3,362.9,177.1,362.9,176.9
		L362.9,176.9z M362.6,168.9l-1,0.1c0.1,1.3,0.2,2.7,0.2,4l1,0c0-1-0.1-1.9-0.2-2.9l0,0c0,0,0,0,0-0.1c0,0,0,0,0,0c0,0,0,0,0,0
		c0,0,0,0,0-0.1c0,0,0,0,0,0C362.6,169.5,362.6,169.2,362.6,168.9L362.6,168.9z M361.8,160.9l-1,0.1c0.1,1.3,0.3,2.6,0.4,4l1-0.1
		c0-0.1,0-0.2,0-0.3c0,0,0,0,0,0c0,0,0,0,0,0c0,0,0,0,0,0c0,0,0,0,0,0c0,0,0,0,0,0c0,0,0,0,0,0c0,0,0,0,0,0c0,0,0,0,0,0
		c0-0.4-0.1-0.8-0.1-1.2c0,0,0,0,0,0c0,0,0,0,0,0c0,0,0,0,0,0c0,0,0,0,0,0c0,0,0,0,0,0c0,0,0,0,0,0c0,0,0,0,0,0c0,0,0,0,0,0
		c0,0,0,0,0-0.1c0,0,0,0,0,0C362,162.2,361.9,161.6,361.8,160.9L361.8,160.9z M360.8,153l-1,0.2c0.2,1.3,0.4,2.6,0.6,3.9l1-0.1
		c-0.1-1.1-0.3-2.1-0.5-3.1c0,0,0,0,0,0c0,0,0,0,0,0c0,0,0,0,0,0s0,0,0,0c0,0,0,0,0,0c0,0,0,0,0,0c0,0,0,0,0-0.1c0,0,0,0,0,0
		C360.8,153.4,360.8,153.2,360.8,153L360.8,153z M359.4,145.1l-1,0.2c0.3,1.3,0.5,2.6,0.7,3.9l1-0.2c-0.1-0.5-0.2-0.9-0.2-1.4l0,0
		c0,0,0,0,0,0c0,0,0,0,0,0c0,0,0,0,0,0c0,0,0,0,0,0c0,0,0,0,0,0c0,0,0,0,0,0c0,0,0,0,0,0c0,0,0,0,0,0c0,0,0,0,0,0c0,0,0,0,0,0
		c0,0,0,0,0,0c0,0,0,0,0,0c0,0,0,0,0-0.1c0,0,0,0,0,0c0,0,0,0,0,0c0,0,0,0,0,0c0,0,0,0,0,0c0,0,0,0,0,0c0,0,0,0,0,0c0,0,0,0,0,0
		c0,0,0,0,0,0c0,0,0,0,0,0c0,0,0,0,0,0c0,0,0,0,0,0c0,0,0,0,0,0c0,0,0-0.1,0-0.1c0,0,0,0,0,0c0,0,0,0,0-0.1c0,0,0,0,0,0
		c0,0,0,0,0-0.1c0,0,0,0,0,0c0,0,0,0,0,0c0,0,0,0,0,0c0,0,0,0,0-0.1c0,0,0,0,0,0c0,0,0,0,0-0.1c0,0,0,0,0,0c0-0.1,0-0.2-0.1-0.3
		c0,0,0,0,0,0c0,0,0,0,0-0.1c0,0,0,0,0,0c0,0,0,0,0-0.1c0,0,0,0,0,0C359.5,145.7,359.4,145.4,359.4,145.1L359.4,145.1z M357.6,137.3
		l-1,0.2c0.3,1.3,0.6,2.6,0.9,3.9l1-0.2C358.2,139.9,357.9,138.6,357.6,137.3L357.6,137.3z M355.5,129.6l-1,0.3
		c0.4,1.3,0.7,2.6,1.1,3.8l1-0.3c0,0,0,0,0,0c0,0,0,0,0,0c0,0,0,0,0,0c0,0,0,0,0,0c0,0,0,0,0,0c-0.3-1.2-0.7-2.4-1-3.6c0,0,0,0,0,0
		C355.5,129.7,355.5,129.7,355.5,129.6C355.5,129.7,355.5,129.7,355.5,129.6C355.5,129.7,355.5,129.7,355.5,129.6
		C355.5,129.6,355.5,129.6,355.5,129.6L355.5,129.6z M353,122l-0.9,0.3c0.4,1.2,0.9,2.5,1.3,3.8l1-0.3
		C353.9,124.5,353.5,123.3,353,122L353,122z M350.2,114.5l-0.9,0.4c0.5,1.2,1,2.5,1.4,3.7l0.9-0.3c-0.1-0.3-0.2-0.5-0.3-0.8l0,0
		c0,0,0,0,0-0.1c0,0,0,0,0,0c0,0,0,0,0,0c0,0,0,0,0,0c0,0,0,0,0,0c0,0,0,0,0,0c0,0,0,0,0,0c0,0,0,0,0,0c0,0,0,0,0,0c0,0,0,0,0,0
		c0,0,0,0,0,0c0,0,0,0,0,0c0,0,0-0.1,0-0.1c0,0,0,0,0,0c0,0,0,0,0,0c0,0,0,0,0,0c0,0,0,0,0,0c0,0,0,0,0,0c0,0,0,0,0,0c0,0,0,0,0,0
		c0,0,0,0,0,0c0,0,0,0,0,0c0,0,0,0,0,0c0,0,0,0,0,0c0,0,0,0,0,0c0,0,0,0,0,0c0,0,0,0,0,0c0,0,0,0,0,0c0,0,0,0,0,0
		c0-0.1,0-0.1-0.1-0.2c0,0,0,0,0,0c0,0,0,0,0,0c0,0,0,0,0,0c0,0,0,0,0,0c0,0,0,0,0,0c0,0,0,0,0,0c0,0,0,0,0,0c0,0,0,0,0,0
		c0,0,0,0,0,0c0,0,0,0,0,0c0,0,0,0,0,0c0,0,0,0,0,0c0,0,0,0,0,0c0,0,0,0,0,0c0,0,0,0,0,0c0,0,0,0,0-0.1c0,0,0,0,0,0c0,0,0,0,0,0
		c0,0,0,0,0,0c0,0,0,0,0,0c0,0,0,0,0,0c0,0,0,0,0,0c0,0,0,0,0,0c0,0,0,0,0,0c0,0,0,0,0,0c0,0,0,0,0,0c0,0,0,0,0,0c0,0,0,0,0,0
		c0,0,0,0,0,0c0,0,0,0,0,0c0,0,0,0,0,0c0,0,0,0,0,0c0,0,0,0,0,0c0,0,0,0,0,0c0,0,0,0,0,0c0,0,0,0,0,0c0,0,0,0,0,0c0,0,0,0,0,0
		c0,0,0,0,0,0c0,0,0,0,0,0c0,0,0,0,0,0c0,0,0,0,0,0c0,0,0,0,0,0c0,0,0,0,0,0c0,0,0,0,0,0c0,0,0,0,0,0c0,0,0,0,0,0c0,0,0,0,0,0
		c0,0,0,0,0,0c0,0,0,0,0-0.1c0,0,0,0,0,0C350.3,114.6,350.3,114.6,350.2,114.5L350.2,114.5z M347.1,107.1l-0.9,0.4
		c0.5,1.2,1.1,2.4,1.6,3.6l0.9-0.4c-0.5-1.1-1-2.2-1.4-3.3l0,0c0,0,0,0,0-0.1C347.2,107.3,347.2,107.2,347.1,107.1L347.1,107.1z
		 M343.7,99.9l-0.9,0.5c0.6,1.2,1.2,2.4,1.8,3.6l0.9-0.4c-0.3-0.6-0.6-1.3-0.9-1.9c0,0,0,0,0,0c0,0,0,0,0-0.1c0,0,0,0,0,0
		c0,0,0,0,0,0c0,0,0,0,0,0c0,0,0,0,0,0c0,0,0,0,0,0c0,0,0,0,0,0c0,0,0,0,0,0c0,0,0,0,0,0C344.2,100.9,343.9,100.4,343.7,99.9
		L343.7,99.9z M339.9,92.9l-0.9,0.5c0.6,1.2,1.3,2.3,1.9,3.5l0.9-0.5c0,0-0.1-0.1-0.1-0.1c0,0,0,0,0,0c0,0,0,0,0,0c0,0,0,0,0,0
		c0,0,0,0,0,0c0,0,0,0,0,0c0,0,0,0,0,0c0,0,0,0,0,0c0,0,0,0,0,0c0,0,0,0,0,0c0,0,0,0,0,0c0,0,0,0,0,0c0,0,0,0,0,0c0,0,0,0,0,0
		c0,0,0,0,0,0c0,0,0,0,0-0.1c0,0,0,0,0,0c0-0.1-0.1-0.1-0.1-0.2c0,0,0,0,0,0c0,0,0,0,0-0.1c0,0,0,0,0,0c0,0,0,0,0,0c0,0,0,0,0,0
		c0,0,0,0,0,0c0,0,0,0,0,0c0,0,0,0,0,0c0,0,0,0,0,0c0,0,0,0,0,0c0,0,0,0,0,0c0,0,0,0,0,0c0,0,0,0,0,0c0,0,0,0,0,0c0,0,0,0,0,0
		c0,0,0,0,0,0c0-0.1-0.1-0.2-0.1-0.3l0,0c0,0,0,0,0-0.1c0,0,0,0,0,0c0,0,0,0,0-0.1l0,0c0,0,0,0,0-0.1l0,0c-0.2-0.4-0.4-0.7-0.6-1.1
		c0,0,0,0,0,0c0,0,0,0,0,0c0,0,0,0,0,0c0,0,0,0,0,0c0,0,0,0,0,0c0,0,0,0,0,0c0,0,0,0,0,0c0,0,0,0,0,0C340.1,93.2,340,93,339.9,92.9
		L339.9,92.9z M335.9,86l-0.8,0.5c0.7,1.1,1.4,2.3,2.1,3.4l0.9-0.5c-0.1-0.2-0.3-0.5-0.4-0.7c0,0,0,0,0,0c0,0,0,0,0-0.1c0,0,0,0,0,0
		c0,0,0,0,0,0c0,0,0,0,0,0c0,0,0,0,0,0c0,0,0,0,0,0c0,0,0,0,0,0c0,0,0,0,0,0c0,0,0,0,0,0C336.9,87.6,336.4,86.8,335.9,86L335.9,86z
		 M331.5,79.3l-0.8,0.6c0.7,1.1,1.5,2.2,2.2,3.3l0.8-0.5c0,0,0,0,0,0c0,0,0,0,0,0c0,0,0,0,0-0.1c0,0,0,0,0,0c0,0,0,0,0-0.1
		c0,0,0,0,0,0c0,0,0,0,0-0.1c0,0,0,0,0,0C332.9,81.4,332.2,80.3,331.5,79.3L331.5,79.3z M326.8,72.8l-0.8,0.6
		c0.8,1.1,1.6,2.1,2.4,3.2l0.8-0.6c0,0,0,0,0-0.1c0,0,0,0,0,0c0,0,0,0,0,0c0,0,0,0,0,0c0,0,0,0,0,0c0,0,0,0,0,0c0,0,0,0,0,0
		C328.3,74.8,327.6,73.8,326.8,72.8L326.8,72.8z M321.9,66.5l-0.8,0.6c0.8,1,1.7,2.1,2.5,3.1l0.8-0.6c0,0,0,0,0,0c0,0,0,0,0,0
		c-0.7-0.9-1.4-1.8-2.1-2.7c0,0,0,0,0,0c0,0,0,0,0-0.1c0,0,0,0,0,0c0,0,0,0,0,0c0,0,0,0,0,0c0,0,0,0,0,0c0,0,0,0,0,0c0,0,0,0,0,0
		c0,0,0,0,0,0c0,0,0,0,0,0c0,0,0,0,0,0c0,0,0,0,0,0c0,0,0,0,0,0C322,66.6,322,66.6,321.9,66.5C322,66.5,321.9,66.5,321.9,66.5
		C321.9,66.5,321.9,66.5,321.9,66.5C321.9,66.5,321.9,66.5,321.9,66.5L321.9,66.5z M316.7,60.4l-0.7,0.7c0.9,1,1.8,2,2.6,3l0.8-0.7
		c-0.2-0.2-0.4-0.4-0.6-0.7l0,0c0,0,0,0,0,0c0,0,0,0,0,0c0,0,0,0,0,0c0,0,0,0,0,0c0,0,0,0,0,0c0,0,0,0,0,0c0,0,0,0,0,0c0,0,0,0,0,0
		c0,0,0,0,0,0c0,0,0,0,0,0c0,0,0,0,0,0c0,0,0,0,0,0c0,0,0,0,0,0C317.9,61.8,317.3,61.1,316.7,60.4C316.8,60.5,316.8,60.5,316.7,60.4
		C316.7,60.5,316.7,60.4,316.7,60.4C316.7,60.4,316.7,60.4,316.7,60.4C316.7,60.4,316.7,60.4,316.7,60.4L316.7,60.4z M311.2,54.6
		l-0.7,0.7c0.9,0.9,1.8,1.9,2.8,2.9l0.7-0.7c-0.6-0.7-1.2-1.3-1.9-2c0,0,0,0,0,0c0,0,0,0,0,0c0,0,0,0,0,0c0,0,0,0,0,0c0,0,0,0,0,0
		c0,0,0,0,0,0c0,0,0,0,0,0l0,0c0,0,0,0,0,0l0,0C311.7,55,311.5,54.8,311.2,54.6L311.2,54.6z M305.5,49l-0.7,0.7
		c1,0.9,1.9,1.8,2.9,2.8l0.7-0.7C307.4,50.8,306.5,49.9,305.5,49L305.5,49z M299.5,43.6l-0.7,0.8c1,0.9,2,1.7,3,2.6l0.7-0.7
		c0,0,0,0,0,0c0,0,0,0,0,0c0,0,0,0,0,0c0,0,0,0,0,0c0,0,0,0,0,0c0,0,0,0,0,0c-0.1-0.1-0.2-0.2-0.3-0.3c0,0,0,0,0,0c0,0,0,0,0,0
		c0,0,0,0,0,0c0,0,0,0,0,0c0,0,0,0,0,0c0,0,0,0,0,0c0,0,0,0,0,0c0,0,0,0,0,0c0,0,0,0,0,0c0,0,0,0,0,0c0,0,0,0,0,0
		c-0.1-0.1-0.2-0.1-0.3-0.2c0,0,0,0,0,0c0,0,0,0,0,0c0,0,0,0,0,0c0,0,0,0,0,0c0,0,0,0,0,0c0,0,0,0,0,0c0,0,0,0,0,0c0,0,0,0,0,0
		c0,0,0,0,0,0c0,0,0,0,0,0c0,0,0,0,0,0c0,0,0,0,0,0c0,0,0,0,0,0c0,0,0,0,0,0c0,0,0,0,0,0c0,0,0,0,0,0
		C300.7,44.6,300.1,44.1,299.5,43.6L299.5,43.6z M293.4,38.6l-0.6,0.8c1,0.8,2.1,1.7,3.1,2.5l0.6-0.8c0,0,0,0-0.1,0c0,0,0,0,0,0
		c0,0,0,0,0,0c0,0,0,0,0,0c0,0,0,0,0,0c0,0,0,0,0,0c0,0,0,0,0,0c0,0,0,0,0,0c0,0,0,0,0,0c0,0,0,0,0,0l0,0c0,0,0,0,0,0c0,0,0,0,0,0
		c0,0,0,0,0,0l0,0c-0.7-0.5-1.3-1.1-2-1.6c0,0,0,0,0,0c0,0,0,0,0,0c0,0,0,0,0,0c0,0,0,0,0,0c0,0,0,0,0,0c0,0,0,0,0,0
		C293.7,38.9,293.5,38.7,293.4,38.6L293.4,38.6z M287,33.8l-0.6,0.8c1.1,0.8,2.2,1.6,3.2,2.3l0.6-0.8c-0.2-0.1-0.3-0.2-0.5-0.4
		c0,0,0,0,0,0c0,0,0,0-0.1,0c0,0,0,0,0,0c0,0,0,0,0,0c0,0,0,0,0,0c0,0,0,0,0,0c0,0,0,0,0,0c0,0,0,0,0,0c0,0,0,0,0,0c0,0,0,0-0.1,0
		c0,0,0,0,0,0c-0.1-0.1-0.1-0.1-0.2-0.2c0,0,0,0,0,0c0,0,0,0,0,0c0,0,0,0,0,0c0,0,0,0,0,0c0,0,0,0,0,0c0,0,0,0,0,0c0,0,0,0,0,0
		c0,0,0,0,0,0c0,0,0,0,0,0c0,0,0,0,0,0c0,0,0,0,0,0c0,0,0,0,0,0c0,0,0,0,0,0c0,0,0,0,0,0c0,0,0,0,0,0c0,0,0,0,0,0c0,0,0,0,0,0
		c0,0,0,0-0.1,0c0,0,0,0,0,0c0,0,0,0,0,0c0,0,0,0,0,0c0,0,0,0,0,0c0,0,0,0,0,0c0,0,0,0,0,0c0,0,0,0,0,0c0,0,0,0,0,0c0,0,0,0,0,0
		c0,0,0,0,0,0c0,0,0,0,0,0c0,0,0,0,0,0c0,0,0,0,0,0c0,0,0,0,0,0c0,0,0,0,0,0c0,0,0,0,0,0c0,0,0,0,0,0c0,0,0,0,0,0c0,0,0,0,0,0
		c0,0,0,0,0,0c0,0,0,0,0,0c0,0,0,0,0,0c0,0,0,0-0.1,0c0,0,0,0,0,0c0,0,0,0,0,0c0,0,0,0,0,0c0,0,0,0,0,0c0,0,0,0,0,0c0,0,0,0,0,0
		c0,0,0,0,0,0c0,0,0,0,0,0c0,0,0,0,0,0c0,0,0,0,0,0c0,0,0,0,0,0c0,0,0,0,0,0c0,0,0,0,0,0c0,0,0,0,0,0c0,0,0,0,0,0c0,0,0,0,0,0
		c0,0,0,0,0,0c0,0,0,0,0,0c0,0,0,0,0,0c-0.1,0-0.1-0.1-0.2-0.1l0,0c0,0,0,0,0,0c0,0,0,0,0,0c0,0,0,0,0,0c0,0,0,0,0,0c0,0,0,0,0,0
		c0,0,0,0,0,0c0,0,0,0,0,0c0,0,0,0,0,0c0,0,0,0,0,0c0,0,0,0,0,0c0,0,0,0,0,0c0,0,0,0,0,0c0,0,0,0,0,0L287,33.8
		C287,33.8,287,33.8,287,33.8L287,33.8z M280.3,29.3l-0.5,0.8c1.1,0.7,2.2,1.5,3.3,2.2l0.6-0.8c-0.6-0.4-1.2-0.8-1.8-1.2l0,0
		c0,0,0,0,0,0c0,0,0,0,0,0c0,0,0,0,0,0c0,0,0,0,0,0c0,0,0,0,0,0c0,0,0,0,0,0c0,0,0,0,0,0c0,0,0,0,0,0c0,0,0,0,0,0
		C281.2,29.8,280.8,29.5,280.3,29.3L280.3,29.3z M273.5,25l-0.5,0.9c1.1,0.7,2.3,1.4,3.4,2.1l0.5-0.9c-0.2-0.1-0.4-0.2-0.6-0.4
		c0,0,0,0,0,0c0,0,0,0-0.1,0c0,0,0,0,0,0c0,0,0,0,0,0c0,0,0,0,0,0c0,0,0,0,0,0c0,0,0,0,0,0l0,0C275.3,26.1,274.4,25.6,273.5,25
		L273.5,25z M266.6,21.1l-0.5,0.9c1.2,0.6,2.3,1.3,3.5,1.9l0.5-0.9c-0.9-0.5-1.7-0.9-2.6-1.4l0,0c0,0,0,0,0,0c0,0,0,0,0,0
		c0,0,0,0,0,0c0,0,0,0,0,0c0,0,0,0,0,0c0,0,0,0,0,0c0,0,0,0,0,0C267,21.4,266.8,21.3,266.6,21.1L266.6,21.1z M259.4,17.5l-0.4,0.9
		c1.2,0.6,2.4,1.2,3.6,1.7l0.4-0.9c-0.7-0.4-1.5-0.7-2.2-1.1c0,0,0,0,0,0c0,0,0,0-0.1,0l0,0C260.3,18,259.9,17.7,259.4,17.5
		L259.4,17.5z M252.1,14.3l-0.4,0.9c1.2,0.5,2.4,1,3.6,1.6l0.4-0.9c-0.4-0.2-0.7-0.3-1.1-0.5c0,0,0,0,0,0c0,0,0,0,0,0c0,0,0,0,0,0
		c0,0,0,0,0,0c0,0,0,0,0,0c0,0,0,0,0,0c0,0,0,0,0,0c0,0,0,0,0,0C253.7,14.9,252.9,14.6,252.1,14.3L252.1,14.3z M244.7,11.3l-0.3,0.9
		c1.2,0.5,2.5,0.9,3.7,1.4l0.4-0.9c-0.5-0.2-1-0.4-1.4-0.6l0,0c0,0,0,0,0,0c0,0,0,0,0,0c0,0,0,0,0,0c0,0,0,0,0,0c0,0,0,0,0,0
		c0,0,0,0,0,0c0,0,0,0,0,0c0,0,0,0,0,0c0,0,0,0,0,0c0,0,0,0-0.1,0c0,0,0,0,0,0C246,11.8,245.3,11.5,244.7,11.3L244.7,11.3z
		 M237.1,8.7l-0.3,1c1.3,0.4,2.5,0.8,3.8,1.3l0.3-0.9c-0.2-0.1-0.4-0.1-0.5-0.2c0,0,0,0,0,0c0,0,0,0-0.1,0l0,0c0,0,0,0-0.1,0l0,0
		c0,0,0,0-0.1,0c0,0,0,0,0,0c0,0,0,0-0.1,0l0,0c-0.1,0-0.2-0.1-0.3-0.1l0,0c0,0,0,0-0.1,0c0,0,0,0,0,0c0,0,0,0-0.1,0l0,0
		c0,0,0,0-0.1,0l0,0c0,0,0,0-0.1,0l0,0C238.8,9.2,238,9,237.1,8.7L237.1,8.7z M229.5,6.4l-0.3,1c1.3,0.3,2.6,0.7,3.8,1.1l0.3-1
		c0,0,0,0,0,0c0,0,0,0,0,0l0,0c-0.5-0.2-1.1-0.3-1.6-0.5l0,0c0,0,0,0-0.1,0l0,0c0,0,0,0-0.1,0l0,0c0,0-0.1,0-0.1,0c0,0,0,0,0,0
		c0,0,0,0,0,0c0,0,0,0,0,0c0,0,0,0,0,0c0,0,0,0-0.1,0c0,0,0,0,0,0c0,0,0,0-0.1,0c0,0,0,0,0,0C230.6,6.7,230,6.6,229.5,6.4L229.5,6.4
		z M221.7,4.5l-0.2,1c1.3,0.3,2.6,0.6,3.9,0.9l0.2-1c-0.2-0.1-0.4-0.1-0.6-0.2c0,0,0,0,0,0c0,0,0,0-0.1,0c0,0,0,0,0,0c0,0,0,0,0,0
		c0,0,0,0,0,0c0,0,0,0,0,0C223.8,4.9,222.7,4.7,221.7,4.5L221.7,4.5z M213.9,2.9l-0.2,1c1.3,0.2,2.6,0.5,3.9,0.7l0.2-1
		c-0.3-0.1-0.5-0.1-0.8-0.2c0,0,0,0,0,0c0,0,0,0-0.1,0c0,0,0,0,0,0c0,0,0,0,0,0c0,0,0,0,0,0c0,0,0,0,0,0c0,0,0,0,0,0c0,0,0,0,0,0
		c-0.1,0-0.1,0-0.2,0c0,0,0,0,0,0c0,0,0,0-0.1,0c0,0,0,0,0,0c0,0,0,0-0.1,0c0,0,0,0,0,0c-0.3-0.1-0.6-0.1-1-0.2c0,0,0,0,0,0
		c0,0,0,0-0.1,0c0,0,0,0,0,0c0,0,0,0-0.1,0c0,0,0,0,0,0c0,0,0,0,0,0c0,0,0,0,0,0c0,0,0,0,0,0c0,0,0,0,0,0c0,0,0,0-0.1,0c0,0,0,0,0,0
		c0,0,0,0,0,0c0,0,0,0,0,0c0,0,0,0,0,0c0,0,0,0,0,0c0,0,0,0,0,0c0,0,0,0,0,0l0,0c0,0,0,0-0.1,0l0,0C214.5,3,214.2,2.9,213.9,2.9
		L213.9,2.9z M206,1.6l-0.1,1c1.3,0.2,2.6,0.4,3.9,0.6l0.2-1c-0.3,0-0.5-0.1-0.8-0.1c0,0,0,0,0,0c-0.1,0-0.2,0-0.3-0.1c0,0,0,0,0,0
		c0,0,0,0-0.1,0c0,0,0,0,0,0c0,0,0,0-0.1,0c0,0,0,0,0,0c0,0,0,0-0.1,0c0,0,0,0,0,0c-0.1,0-0.2,0-0.3,0c0,0,0,0,0,0c0,0,0,0-0.1,0
		c0,0,0,0,0,0c0,0,0,0-0.1,0c0,0,0,0,0,0c-0.1,0-0.3,0-0.4-0.1c0,0,0,0,0,0c-0.1,0-0.3,0-0.4-0.1c0,0,0,0,0,0c0,0,0,0-0.1,0
		c0,0,0,0,0,0c0,0,0,0-0.1,0c0,0,0,0,0,0c0,0,0,0-0.1,0c0,0,0,0,0,0c0,0,0,0-0.1,0c0,0,0,0,0,0c0,0,0,0-0.1,0c0,0,0,0,0,0
		c0,0,0,0-0.1,0c0,0,0,0,0,0c0,0,0,0,0,0c0,0,0,0,0,0c0,0,0,0,0,0c0,0,0,0-0.1,0l0,0C206.5,1.7,206.2,1.7,206,1.6L206,1.6z M198,0.7
		l-0.1,1c1.3,0.1,2.6,0.3,4,0.4l0.1-1c-0.4,0-0.7-0.1-1.1-0.1l0,0c0,0,0,0-0.1,0l0,0c0,0,0,0-0.1,0l0,0c-0.1,0-0.2,0-0.2,0l0,0
		c0,0,0,0-0.1,0c0,0,0,0,0,0c0,0,0,0-0.1,0l0,0c0,0,0,0-0.1,0c0,0,0,0,0,0c0,0,0,0-0.1,0c0,0,0,0,0,0c-0.1,0-0.2,0-0.2,0
		c0,0,0,0,0,0c0,0,0,0,0,0c0,0,0,0,0,0c0,0,0,0,0,0c0,0,0,0,0,0c0,0,0,0,0,0c0,0,0,0,0,0c0,0,0,0,0,0c0,0,0,0,0,0c0,0,0,0,0,0
		c0,0,0,0-0.1,0c0,0,0,0,0,0c0,0,0,0,0,0c0,0,0,0,0,0c0,0,0,0,0,0c0,0,0,0,0,0c0,0,0,0,0,0c0,0,0,0,0,0c0,0,0,0-0.1,0c0,0,0,0,0,0
		C198.9,0.8,198.5,0.8,198,0.7L198,0.7z M190,0.2l0,1c1.3,0.1,2.7,0.1,4,0.2l0.1-1c-0.5,0-1-0.1-1.6-0.1l0,0c0,0,0,0-0.1,0
		c0,0,0,0,0,0c0,0,0,0-0.1,0l0,0c-0.1,0-0.1,0-0.2,0l0,0c0,0,0,0,0,0c0,0,0,0,0,0c0,0,0,0,0,0c0,0,0,0,0,0c0,0,0,0,0,0c0,0,0,0,0,0
		c0,0,0,0,0,0c0,0,0,0,0,0c0,0,0,0,0,0c0,0,0,0,0,0c0,0-0.1,0-0.1,0c0,0,0,0,0,0c0,0,0,0,0,0c0,0,0,0,0,0c0,0,0,0,0,0c0,0,0,0,0,0
		c0,0,0,0,0,0c0,0,0,0,0,0c0,0,0,0,0,0c0,0,0,0,0,0C191,0.2,190.5,0.2,190,0.2L190,0.2z M182,0l0,1c1.3,0,2.7,0,4,0.1l0-1
		c0,0,0,0,0,0c0,0,0,0-0.1,0l0,0c0,0,0,0-0.1,0c0,0,0,0,0,0c0,0,0,0-0.1,0l0,0c-0.7,0-1.4,0-2.1,0c0,0,0,0,0,0c0,0,0,0,0,0
		c0,0,0,0,0,0c0,0,0,0,0,0c0,0,0,0,0,0c0,0,0,0,0,0c0,0,0,0,0,0c0,0,0,0,0,0c0,0-0.1,0-0.1,0c0,0,0,0,0,0c0,0,0,0-0.1,0c0,0,0,0,0,0
		C182.8,0,182.4,0,182,0L182,0z"/>
</g>
</svg>
