<svg width="24" height="24" viewBox="0 0 24 24" fill="none" xmlns="http://www.w3.org/2000/svg">
<g clip-path="url(#clip0)">
<path d="M19.832 19.83C19.606 20.057 19.229 20.057 18.983 19.83L15.002 15.844C13.737 16.921 12.096 17.582 10.284 17.582C6.264 17.582 3 14.314 3 10.292C3 6.267 6.265 3 10.284 3C14.304 3 17.568 6.268 17.568 10.291C17.568 12.086 16.908 13.729 15.832 15.013L19.814 19C20.059 19.208 20.059 19.585 19.832 19.831V19.83ZM16.38 10.291C16.38 6.929 13.663 4.209 10.304 4.209C6.944 4.209 4.228 6.929 4.228 10.291C4.228 13.653 6.945 16.373 10.304 16.373C13.644 16.373 16.38 13.634 16.38 10.291V10.291Z" fill="#00A098"/>
</g>
<defs>
<clipPath id="clip0">
<rect width="24" height="24" fill="white"/>
</clipPath>
</defs>
</svg>
