<svg width="24" height="24" viewBox="0 0 24 24" fill="none" xmlns="http://www.w3.org/2000/svg">
<g clip-path="url(#clip0)">
<path d="M12.9555 17.7473C12.7836 17.8159 12.6097 17.8824 12.4414 17.9404C12.2731 17.9984 12.0963 18.0549 11.916 18.1221L12.9555 17.7473Z" fill="#131313"/>
<path d="M12.9555 17.7473C12.7836 17.8159 12.6097 17.8824 12.4414 17.9404C12.2731 17.9984 12.0963 18.0549 11.916 18.1221L12.9555 17.7473ZM10.4028 15.8127C10.4827 15.8177 10.5619 15.8544 10.622 15.9145C10.6828 15.9753 10.7196 16.0545 10.7245 16.1344C10.7288 16.215 10.7012 16.2893 10.6489 16.343C10.5958 16.3961 10.5202 16.4236 10.441 16.418C9.9446 16.3883 9.45528 16.162 9.08193 15.7887C8.70858 15.4153 8.4816 14.9267 8.4519 14.4303C8.44695 14.3504 8.47382 14.2755 8.52685 14.2224C8.58059 14.1687 8.65555 14.1418 8.73616 14.1461C8.90374 14.1581 9.0487 14.303 9.06001 14.4699C9.07981 14.8051 9.23254 15.136 9.48498 15.3884C9.73671 15.6402 10.0669 15.7922 10.4028 15.8127V15.8127Z" fill="#131313"/>
<path d="M17.4244 4.70547C17.1224 4.71042 16.824 4.79386 16.5589 4.9473L16.5659 4.51314C16.5737 4.04574 16.3955 3.60026 16.0703 3.27499C15.745 2.94972 15.2988 2.77082 14.8321 2.77931C14.5295 2.78497 14.2332 2.8677 13.968 3.01831L13.9709 2.87406C13.9786 2.40666 13.8005 1.96119 13.4745 1.63521C13.1492 1.30994 12.7044 1.13246 12.2363 1.13953C11.3227 1.15509 10.5492 1.86502 10.4573 2.77719C10.1956 2.6287 9.89651 2.55304 9.59246 2.56011C8.61948 2.57708 7.81904 3.37752 7.80207 4.3505L7.75186 7.35783C7.05324 7.57137 6.56392 8.21484 6.54978 8.93892L6.4918 12.9114C6.48968 13.0394 6.49109 13.1695 6.50311 13.282C6.58372 15.2491 7.57791 17.0381 9.19153 18.12L8.76939 21.9787C8.75807 22.1102 8.80333 22.2389 8.89455 22.3301C8.98647 22.422 9.11516 22.4673 9.24598 22.4553L12.172 22.2134L15.7287 22.3676C15.8567 22.3725 15.9826 22.323 16.0752 22.2304C16.1693 22.1364 16.2173 22.0062 16.2074 21.8761L15.9331 18.1964C16.3602 17.9319 16.7555 17.6187 17.1111 17.2616L17.1359 17.2368C18.3387 16.0255 19.0246 14.402 19.0451 12.7226L19.1455 6.44919C19.1589 5.47692 18.3839 4.70193 17.4116 4.71537L17.4244 4.70547V4.70547ZM15.2804 21.4399L12.2179 21.3048L12.1593 21.3069L9.72681 21.5205L10.0344 18.6051C11.6134 19.3284 13.4462 19.3412 15.081 18.6397L15.2804 21.4384L15.2804 21.4399ZM18.2552 6.45415L18.1555 12.7241C18.1393 14.1673 17.5495 15.5631 16.5164 16.6032L16.4952 16.6245C16.2336 16.8861 15.9465 17.1223 15.6382 17.3287C15.3929 17.4921 15.1348 17.6342 14.8668 17.7537C14.2841 18.0252 13.6597 18.1872 13.0233 18.2338C12.9109 18.243 12.7957 18.2494 12.6832 18.2515C12.5708 18.2536 12.4506 18.2522 12.3311 18.2572C11.7011 18.2268 11.0852 18.0846 10.5124 17.8357C10.2331 17.7134 9.96581 17.5663 9.71479 17.3959C8.31825 16.4618 7.45983 14.9147 7.39831 13.2127C7.38982 13.1094 7.38982 13.002 7.39265 12.8959L7.45488 8.9276C7.47185 8.53021 7.79712 8.20494 8.19451 8.18797C8.38896 8.18443 8.57352 8.25868 8.70787 8.39303C8.84222 8.52738 8.91647 8.71194 8.91293 8.90639L8.8797 10.9888C8.87828 11.1189 8.93344 11.2406 9.0289 11.3247C9.12648 11.4081 9.25588 11.4456 9.38528 11.4265L9.45387 11.4244C10.2996 11.4018 11.0003 12.0304 11.0661 12.8711L11.5349 12.8209L11.962 12.7757C11.8799 11.5906 10.9756 10.6537 9.7954 10.5299L9.82227 8.88093C9.82934 8.4496 9.666 8.03877 9.36548 7.73966C9.17244 7.54662 8.93344 7.40662 8.66827 7.33378L8.71423 4.34626C8.71989 3.99836 8.93485 3.68158 9.258 3.54369C9.58115 3.40439 9.95096 3.47298 10.1921 3.71411C10.3512 3.8732 10.4396 4.08887 10.436 4.31727L10.4035 5.91674L10.3512 9.05913C10.3476 9.30873 10.5463 9.50743 10.7952 9.50319C11.0441 9.49895 11.2499 9.29318 11.2535 9.04498L11.3022 5.90331L11.3298 4.29747L11.3277 4.27131L11.3503 2.9179C11.3694 2.44626 11.7541 2.0616 12.2257 2.0425C12.4534 2.03826 12.6705 2.12524 12.8296 2.28433C12.988 2.44273 13.0757 2.66052 13.0714 2.8882L13.0446 4.5697L13.0113 6.74264L12.959 9.96281C12.954 10.1445 13.0622 10.3079 13.2291 10.3743C13.3967 10.4415 13.5919 10.3991 13.7213 10.2669C13.8118 10.182 13.8655 10.066 13.8676 9.94372L13.9192 6.72284L13.9525 4.54991L13.9546 4.50536L13.9574 4.46152C14.0133 4.0224 14.3866 3.68441 14.8279 3.67451C15.3038 3.66673 15.6835 4.04645 15.6757 4.52233L15.6439 6.48879L15.5633 10.8771C15.5611 11.0376 15.6453 11.1854 15.7832 11.2639C15.9211 11.3424 16.0936 11.3395 16.2343 11.2568C16.3743 11.1734 16.4634 11.0235 16.4662 10.8622L16.5362 6.48172C16.5553 6.01008 16.9393 5.62612 17.4116 5.60632C17.8854 5.59925 18.2644 5.97826 18.2573 6.45202L18.2552 6.45415V6.45415Z" fill="#131313"/>
<path d="M12.935 4.52092V7.34935L12.9328 4.57678L12.935 4.52092ZM10.4028 15.8127C10.4827 15.8177 10.5619 15.8544 10.622 15.9145C10.6828 15.9753 10.7196 16.0545 10.7245 16.1344C10.7288 16.2151 10.7012 16.2893 10.6489 16.343C10.5958 16.3961 10.5202 16.4236 10.441 16.418C9.9446 16.3883 9.45529 16.162 9.08193 15.7887C8.70858 15.4153 8.4816 14.9267 8.4519 14.4303C8.44695 14.3504 8.47382 14.2755 8.52685 14.2224C8.58059 14.1687 8.65555 14.1418 8.73616 14.1461C8.90374 14.1581 9.0487 14.303 9.06001 14.4699C9.07981 14.8051 9.23255 15.136 9.48498 15.3884C9.73671 15.6402 10.0669 15.7922 10.4028 15.8127V15.8127Z" fill="#131313"/>
</g>
<defs>
<clipPath id="clip0">
<rect width="24" height="24" fill="white"/>
</clipPath>
</defs>
</svg>
