<svg width="24" height="24" viewBox="0 0 24 24" fill="none" xmlns="http://www.w3.org/2000/svg">
<g clip-path="url(#clip0)">
<path d="M13.716 12.023H13.669C15.437 11.188 16.686 9.373 16.686 7.25C16.686 4.362 14.352 2 11.5 2C8.648 2 6.314 4.362 6.314 7.25C6.314 9.374 7.564 11.188 9.331 12.023H9.284C6.337 12.023 3.768 13.693 2.495 16.175C2.306 16.533 2.141 16.915 2 17.32C2.212 17.702 2.424 18.06 2.684 18.418C4.664 21.186 7.87 23 11.5 23C15.13 23 18.336 21.186 20.316 18.418C20.552 18.06 20.788 17.702 21 17.32C20.859 16.915 20.694 16.533 20.505 16.175C19.232 13.693 16.663 12.023 13.715 12.023H13.716ZM7.256 7.25C7.257 4.888 9.167 2.955 11.5 2.955C13.834 2.955 15.743 4.888 15.743 7.25C15.743 9.612 13.833 11.545 11.5 11.545C9.166 11.545 7.257 9.612 7.257 7.25H7.256ZM11.5 22.045C7.917 22.045 4.782 20.112 3.037 17.225C4.051 14.743 6.479 12.977 9.284 12.977H13.716C16.545 12.977 18.949 14.743 19.963 17.225C18.218 20.113 15.083 22.045 11.5 22.045V22.045Z" fill="#131313"/>
</g>
<defs>
<clipPath id="clip0">
<rect width="24" height="24" fill="white"/>
</clipPath>
</defs>
</svg>
