<svg xmlns="http://www.w3.org/2000/svg" width="18" height="18" viewBox="0 0 18 18">
    <g fill="none" fill-rule="evenodd">
        <g fill="#000" fill-rule="nonzero">
            <g>
                <g>
                    <path d="M17.354 6.582c-.33 0-.599-.267-.599-.598V2.992c0-.991-.804-1.794-1.795-1.795h-2.992c-.33 0-.598-.268-.598-.599 0-.33.268-.598.598-.598h2.992c1.652.002 2.99 1.34 2.992 2.992v2.992c0 .33-.268.598-.598.598zM1.197 5.984V2.992c0-.991.804-1.794 1.795-1.795h2.992c.33 0 .598-.268.598-.599 0-.33-.267-.598-.598-.598H2.992C1.34.002.002 1.34 0 2.992v2.992c0 .33.268.598.598.598.33 0 .599-.267.599-.598zm5.385 11.37c0-.33-.267-.599-.598-.599H2.992c-.991 0-1.794-.804-1.795-1.795v-2.992c0-.33-.268-.598-.599-.598-.33 0-.598.268-.598.598v2.992c.002 1.652 1.34 2.99 2.992 2.992h2.992c.33 0 .598-.268.598-.598zm11.37-2.394v-2.992c0-.33-.268-.598-.598-.598-.33 0-.599.268-.599.598v2.992c0 .991-.804 1.794-1.795 1.795h-2.992c-.33 0-.598.268-.598.599 0 .33.268.598.598.598h2.992c1.652-.002 2.99-1.34 2.992-2.992zm0-5.984c0-.33-.268-.598-.598-.598H.598c-.33 0-.598.268-.598.598 0 .33.268.598.598.598h16.756c.33 0 .598-.267.598-.598z" transform="translate(-181 -731) translate(0 710) translate(181 21)"/>
                </g>
            </g>
        </g>
    </g>
</svg>
