<svg width="24" height="24" viewBox="0 0 24 24" fill="none" xmlns="http://www.w3.org/2000/svg">
<g clip-path="url(#clip0)">
<path d="M11.636 5.585H8.18201V9.03H11.636V5.585V5.585ZM10.62 8.018H9.19801V6.598H10.62V8.018ZM16.818 5.585H13.364V9.03H16.818V5.585ZM15.802 8.018H14.38V6.598H15.802V8.018V8.018ZM11.636 10.755H8.18201V14.2H11.636V10.755V10.755ZM10.62 13.187H9.19801V11.768H10.62V13.188V13.187ZM16.818 10.755H13.364V14.2H16.818V10.755ZM15.802 13.187H14.38V11.768H15.802V13.188V13.187Z" fill="#00A098"/>
<path d="M21.441 19.12H19.43V3H5.571V19.12H3.559C3.246 19.12 3 19.365 3 19.677C3 19.988 3.246 20.233 3.559 20.233H21.44C21.753 20.233 21.999 19.988 21.999 19.677C21.999 19.365 21.753 19.121 21.44 19.121L21.441 19.12ZM6.688 4.113H18.312V19.12H14.512V15.896H10.265V19.12H6.688V4.11V4.113ZM13.394 19.122H11.382V17.009H13.394V19.122Z" fill="#00A098"/>
</g>
<defs>
<clipPath id="clip0">
<rect width="24" height="24" fill="white"/>
</clipPath>
</defs>
</svg>
