<svg height='300px' width='300px'  fill="#000000" xmlns:xlink="http://www.w3.org/1999/xlink" xmlns="http://www.w3.org/2000/svg" stroke-width="0.501" stroke-linejoin="bevel" fill-rule="evenodd" version="1.1" overflow="visible" viewBox="0 0 75 75" x="0px" y="0px"><g fill="none" stroke="black" font-family="Times New Roman" font-size="16" transform="scale(1 -1)"><g transform="translate(0 -75)"><g><path d="M 9.695,12.377 C 15.083,15.39 18.138,18.498 19.903,23.157 C 19.432,23.98 19.003,24.839 18.62,25.729 C 18.246,25.902 17.874,26.079 17.501,26.26 L 11.967,26.26 C 9.75,26.26 7.95,28.06 7.95,30.277 L 7.95,38.475 C 7.95,40.581 9.575,42.311 11.639,42.479 C 14.323,56.65 24.884,65.507 37.542,65.507 C 50.201,65.507 60.764,56.647 63.445,42.471 C 65.468,42.264 67.05,40.552 67.05,38.475 L 67.05,30.277 C 67.05,28.06 65.25,26.26 63.033,26.26 L 56.866,26.26 C 56.805,26.26 56.745,26.261 56.686,26.263 C 56.393,25.542 56.071,24.84 55.722,24.159 C 57.423,18.934 60.517,15.601 66.286,12.377 C 58.517,8.738 51.045,7.988 44.213,13.4 C 42.115,12.59 39.872,12.152 37.542,12.152 C 35.435,12.152 33.4,12.51 31.479,13.176 C 24.723,8.009 17.353,8.789 9.695,12.377 Z M 56.797,36.606 C 56.797,37.848 56.709,39.047 56.541,40.197 C 52.396,41.288 45.125,44.258 43.009,47.012 C 41.861,43.622 26.895,39.747 18.394,38.946 C 18.324,38.185 18.288,37.404 18.288,36.606 C 18.288,33.853 18.717,31.216 19.502,28.779 C 23.647,26.82 27.662,25.427 32.523,25.058 C 33.4,25.893 34.929,26.447 36.668,26.447 C 39.387,26.447 41.594,25.092 41.594,23.424 C 41.594,21.755 39.387,20.401 36.668,20.401 C 34.837,20.401 33.239,21.014 32.389,21.924 C 28.268,22.226 24.718,23.196 21.324,24.556 C 24.748,18.359 30.734,14.251 37.542,14.251 C 48.17,14.251 56.797,24.266 56.797,36.606 Z M 26.765,35.019 C 26.765,36.559 28.016,37.811 29.557,37.811 C 31.099,37.811 32.35,36.559 32.35,35.019 C 32.35,33.479 31.099,32.227 29.557,32.227 C 28.016,32.227 26.765,33.479 26.765,35.019 Z M 42.516,35.019 C 42.516,36.559 43.767,37.811 45.309,37.811 C 46.85,37.811 48.101,36.559 48.101,35.019 C 48.101,33.479 46.85,32.227 45.309,32.227 C 43.767,32.227 42.516,33.479 42.516,35.019 Z M 37.539,60.256 C 47.605,60.256 56.042,53.453 58.223,42.492 L 60.134,42.492 C 57.554,55.016 48.382,62.701 37.542,62.701 C 26.699,62.701 17.528,55.016 14.948,42.492 L 16.855,42.492 C 19.036,53.452 27.474,60.256 37.539,60.256 Z" fill="#000000" stroke-linejoin="round" stroke-linecap="round" stroke-width="0.448" stroke="none" marker-start="none" marker-end="none" stroke-miterlimit="79.8403193612775"></path></g></g></g></svg>