<svg xmlns="http://www.w3.org/2000/svg" xmlns:xlink="http://www.w3.org/1999/xlink" version="1.1" x="0px" y="0px" viewBox="0 0 95.19 95.19" style="enable-background:new 0 0 95.19 95.19;" xml:space="preserve"><g id="Layer_2" style="display:none;"><rect x="8.37" y="8.37" style="display:inline;fill:#E6E8E9;" width="78.451" height="78.451"/></g><g id="Layer_3" style="display:none;"></g><g id="Layer_1"><g><g><path style="fill:#ffffff;" d="M59.701,21.643c-0.969,0-1.851,0-1.961,0s-0.198,0.088-0.198,0.176c0,0.088,0,1.057,0,2.137v0.771     c0,1.079,0.881,1.63,1.961,1.63h0.397c1.079,0,1.961-0.551,1.961-1.63v-0.771c0-1.079,0-2.049,0-2.137     c0-0.11-0.088-0.176-0.198-0.176C61.573,21.643,60.67,21.643,59.701,21.643z"/><path style="fill:#ffffff;" d="M55.185,20.85h9.429c0.859,0,1.564-0.705,1.564-1.564v-1.564c0-0.859-0.705-1.564-1.564-1.564     h-9.429c-0.859,0-1.564,0.705-1.564,1.564v1.564C53.62,20.145,54.325,20.85,55.185,20.85z"/><path style="fill:#ffffff;" d="M63.226,25.014c0,0.903-0.969,2.511-3.525,2.511c-2.556,0-3.525-1.762-3.525-2.511     c-13.306,1.74-23.595,13.108-23.595,26.899c0,14.981,12.139,27.12,27.12,27.12s27.12-12.139,27.12-27.12     C86.82,38.122,76.554,26.754,63.226,25.014z M59.701,73.525c-11.941,0-21.612-9.671-21.612-21.612s9.671-21.612,21.612-21.612     s21.612,9.671,21.612,21.612C81.335,63.854,71.641,73.525,59.701,73.525z"/><path style="fill:#ffffff;" d="M60.494,49.622V34.619h-1.168v15.003c-1.234,0.264-2.159,1.366-2.159,2.688     c0,1.52,1.234,2.754,2.754,2.754s2.754-1.234,2.754-2.754C62.653,50.988,61.728,49.886,60.494,49.622z"/><path style="fill:#ffffff;" d="M62.168,48.102c0,0,0.705,0.22,1.168,0.683c0.463,0.463,0.771,1.278,0.771,1.278l4.715-4.715     l-1.939-1.939L62.168,48.102z"/><path style="fill:#ffffff;" d="M8.37,51.054c0,1.079,0.881,1.961,1.961,1.961h16.831c1.079,0,1.961-0.881,1.961-1.961l0,0     c0-1.079-0.881-1.961-1.961-1.961H10.33C9.251,49.093,8.37,49.974,8.37,51.054L8.37,51.054z"/><path style="fill:#ffffff;" d="M20.178,31.403c0,1.079,0.881,1.961,1.961,1.961H34.3c1.079,0,1.961-0.881,1.961-1.961l0,0     c0-1.079-0.881-1.961-1.961-1.961H22.139C21.059,29.42,20.178,30.323,20.178,31.403L20.178,31.403z"/><path style="fill:#ffffff;" d="M20.178,70.705c0,1.079,0.881,1.961,1.961,1.961H34.3c1.079,0,1.961-0.881,1.961-1.961l0,0     c0-1.079-0.881-1.961-1.961-1.961H22.139C21.059,68.744,20.178,69.626,20.178,70.705L20.178,70.705z"/><path style="fill:#ffffff;" d="M12.71,61.078c0,1.079,0.881,1.961,1.961,1.961h14.298c1.079,0,1.961-0.881,1.961-1.961l0,0     c0-1.079-0.881-1.961-1.961-1.961H14.67C13.591,59.117,12.71,59.998,12.71,61.078L12.71,61.078z"/><path style="fill:#ffffff;" d="M12.71,41.096c0,1.079,0.881,1.961,1.961,1.961h14.298c1.079,0,1.961-0.881,1.961-1.961l0,0     c0-1.079-0.881-1.961-1.961-1.961H14.67C13.591,39.135,12.71,40.017,12.71,41.096L12.71,41.096z"/></g></g></g></svg>
