<?xml version="1.0" standalone="no"?>
<!DOCTYPE svg PUBLIC "-//W3C//DTD SVG 20010904//EN"
 "http://www.w3.org/TR/2001/REC-SVG-20010904/DTD/svg10.dtd">
<svg version="1.0" xmlns="http://www.w3.org/2000/svg"
 width="384.000000pt" height="384.000000pt" viewBox="0 0 384.000000 384.000000"
 preserveAspectRatio="xMidYMid meet">
<metadata>
Created by potrace 1.15, written by Peter Selinger 2001-2017
</metadata>
<g transform="translate(0.000000,384.000000) scale(0.100000,-0.100000)"
fill="#000000" stroke="none">
<path d="M1605 3705 c-615 -100 -1122 -497 -1356 -1064 -171 -414 -173 -895
-7 -1305 181 -449 540 -804 988 -979 221 -86 366 -112 630 -112 264 0 409 26
630 112 603 236 1026 784 1101 1425 17 152 6 404 -25 548 -148 694 -677 1218
-1375 1361 -130 27 -457 35 -586 14z m515 -131 c382 -59 749 -272 993 -574
484 -600 484 -1440 0 -2040 -69 -86 -180 -193 -268 -261 -654 -502 -1587 -430
-2153 165 -293 309 -445 690 -445 1116 0 357 105 679 313 960 363 489 954 729
1560 634z"/>
<path d="M1665 3349 c-599 -87 -1073 -554 -1170 -1154 -19 -115 -19 -315 0
-430 28 -177 99 -369 187 -510 81 -128 210 -275 242 -275 25 0 66 41 66 66 0
15 -22 48 -61 91 -161 177 -271 408 -311 647 -15 91 -15 301 0 392 29 176 103
361 202 510 73 109 234 267 348 341 239 157 531 231 803 203 97 -9 114 -9 135
5 16 10 24 25 24 43 0 45 -20 61 -85 72 -72 12 -296 11 -380 -1z"/>
<path d="M2280 3260 c-25 -25 -26 -62 -2 -82 28 -25 152 -78 183 -78 37 0 63
37 53 75 -6 23 -22 35 -89 66 -94 44 -117 47 -145 19z"/>
<path d="M2626 3058 c-9 -12 -16 -30 -16 -40 0 -9 53 -70 119 -135 264 -263
384 -545 384 -903 0 -323 -109 -608 -322 -843 -70 -77 -76 -105 -29 -140 38
-29 62 -15 143 79 310 364 412 840 280 1299 -71 244 -233 494 -428 656 -66 56
-106 64 -131 27z"/>
<path d="M1669 2737 c-103 -43 -164 -104 -206 -206 -19 -46 -23 -75 -23 -163
0 -121 18 -193 68 -273 l31 -50 -32 -3 c-41 -5 -67 -28 -67 -62 0 -44 27 -59
110 -62 l74 -3 24 -69 c16 -48 25 -102 29 -178 l6 -108 -135 0 c-118 0 -137
-2 -151 -18 -22 -24 -21 -65 1 -85 17 -15 64 -17 464 -17 418 0 446 1 461 18
22 24 21 65 -1 85 -16 15 -50 17 -270 17 l-252 0 0 103 c0 170 -32 266 -145
439 -94 142 -116 245 -79 369 33 112 129 169 284 169 109 0 175 -22 227 -76
41 -42 73 -117 73 -169 0 -49 71 -73 105 -35 14 16 17 31 12 79 -11 122 -92
236 -205 289 -52 25 -69 27 -202 30 -133 2 -150 0 -201 -21z"/>
<path d="M1877 2022 c-22 -24 -21 -65 1 -85 15 -14 41 -17 134 -17 126 0 148
9 148 62 0 48 -25 58 -152 58 -99 0 -117 -3 -131 -18z"/>
<path d="M1233 1038 c-38 -42 -85 -136 -78 -158 9 -30 33 -50 60 -50 28 0 60
36 100 113 l30 56 -21 28 c-27 36 -63 41 -91 11z"/>
<path d="M2401 1034 c-27 -34 -27 -37 10 -103 57 -103 96 -125 139 -79 27 29
26 42 -11 107 -58 105 -98 126 -138 75z"/>
<path d="M1516 925 c-13 -13 -32 -67 -51 -145 -8 -34 27 -80 60 -80 37 0 59
32 79 114 18 70 18 76 2 100 -19 30 -65 35 -90 11z"/>
<path d="M2113 914 c-16 -24 -16 -30 2 -100 28 -112 68 -141 121 -88 28 27 28
26 -2 131 -18 64 -36 83 -74 83 -21 0 -35 -8 -47 -26z"/>
<path d="M1817 882 c-26 -28 -24 -182 1 -205 24 -22 65 -21 85 1 26 28 24 182
-1 205 -24 22 -65 21 -85 -1z"/>
</g>
</svg>
