<?xml version="1.0" standalone="no"?>
<!DOCTYPE svg PUBLIC "-//W3C//DTD SVG 20010904//EN"
 "http://www.w3.org/TR/2001/REC-SVG-20010904/DTD/svg10.dtd">
<svg version="1.0" xmlns="http://www.w3.org/2000/svg"
 width="384.000000pt" height="384.000000pt" viewBox="0 0 384.000000 384.000000"
 preserveAspectRatio="xMidYMid meet">
<metadata>
Created by potrace 1.15, written by Peter Selinger 2001-2017
</metadata>
<g transform="translate(0.000000,384.000000) scale(0.100000,-0.100000)"
fill="#000000" stroke="none">
<path d="M1605 3705 c-140 -23 -250 -53 -375 -102 -450 -177 -807 -530 -988
-979 -163 -402 -163 -886 -1 -1288 222 -546 691 -939 1269 -1062 144 -31 396
-42 547 -25 725 85 1330 620 1496 1326 96 406 48 818 -139 1189 -240 476 -674
808 -1204 923 -148 32 -462 41 -605 18z m515 -131 c382 -59 749 -272 993 -574
484 -600 484 -1440 0 -2040 -69 -86 -180 -193 -268 -261 -654 -502 -1587 -430
-2153 165 -293 309 -445 690 -445 1116 0 357 105 679 313 960 363 489 954 729
1560 634z"/>
<path d="M1695 3414 c-222 -32 -499 -135 -542 -200 -15 -23 -15 -29 -2 -52 25
-44 49 -45 137 -2 226 109 460 153 686 130 94 -9 111 -9 132 5 16 10 24 25 24
43 -1 65 -31 75 -235 78 -93 1 -183 0 -200 -2z"/>
<path d="M2280 3320 c-25 -25 -26 -62 -2 -82 28 -25 152 -78 183 -78 37 0 63
37 53 75 -6 23 -22 35 -89 66 -94 44 -117 47 -145 19z"/>
<path d="M1723 2985 c-186 -50 -340 -206 -388 -392 -10 -36 -15 -104 -15 -185
l0 -128 -49 0 c-61 0 -97 -13 -135 -48 -55 -52 -56 -57 -56 -491 0 -258 4
-410 11 -428 14 -38 57 -83 96 -99 48 -21 1298 -21 1346 0 39 16 82 61 96 99
7 18 11 170 11 427 0 257 -4 409 -11 427 -26 69 -95 113 -179 113 l-50 0 0
128 c0 82 -5 149 -15 187 -48 183 -207 342 -390 390 -73 19 -202 18 -272 0z
m208 -115 c169 -32 307 -170 339 -340 5 -29 10 -97 10 -151 l0 -99 -60 0 -60
0 0 118 c0 154 -14 198 -89 273 -64 64 -124 89 -211 89 -87 0 -147 -25 -211
-89 -75 -75 -89 -119 -89 -273 l0 -118 -60 0 -60 0 0 99 c0 54 5 122 10 151
36 192 207 341 401 349 15 1 51 -4 80 -9z m-13 -244 c50 -18 98 -70 111 -121
6 -24 11 -85 11 -134 l0 -91 -180 0 -180 0 0 96 c0 53 5 114 12 136 20 67 99
126 168 126 14 0 40 -5 58 -12z m584 -484 c19 -19 19 -785 0 -804 -19 -19
-1265 -19 -1284 0 -10 10 -14 94 -16 375 -2 199 0 377 3 395 4 21 14 36 28 42
12 5 293 8 639 7 491 -2 620 -5 630 -15z"/>
<path d="M1785 1966 c-37 -17 -80 -62 -94 -99 -6 -16 -11 -73 -11 -127 0 -109
8 -141 48 -184 89 -95 256 -63 301 57 6 16 11 73 11 127 0 109 -8 141 -48 184
-51 54 -140 72 -207 42z m120 -128 c15 -13 13 -184 -2 -199 -16 -16 -70 -16
-85 -1 -14 14 -23 119 -14 167 10 50 64 68 101 33z"/>
<path d="M1233 918 c-38 -42 -85 -136 -78 -158 9 -30 33 -50 60 -50 28 0 60
36 100 113 l30 56 -21 28 c-27 36 -63 41 -91 11z"/>
<path d="M2401 914 c-27 -34 -27 -37 10 -103 54 -98 95 -124 133 -86 29 30 29
54 -4 113 -60 106 -99 127 -139 76z"/>
<path d="M1516 805 c-13 -13 -32 -67 -51 -145 -8 -33 27 -80 59 -80 35 0 61
38 81 117 17 67 17 73 1 97 -19 30 -65 35 -90 11z"/>
<path d="M2114 794 c-16 -24 -16 -30 1 -97 28 -112 70 -143 121 -91 28 27 28
26 -2 131 -18 64 -36 83 -74 83 -21 0 -35 -8 -46 -26z"/>
<path d="M1817 762 c-26 -28 -24 -182 1 -205 24 -22 65 -21 85 1 26 28 24 182
-1 205 -24 22 -65 21 -85 -1z"/>
</g>
</svg>
