<svg xmlns="http://www.w3.org/2000/svg" width="75" height="57" viewBox="0 0 75 57">
    <defs>
        <filter id="8slviyd89a">
            <feColorMatrix in="SourceGraphic" values="0 0 0 0 1.000000 0 0 0 0 0.788235 0 0 0 0 0.517647 0 0 0 1.000000 0"/>
        </filter>
    </defs>
    <g fill="none" fill-rule="evenodd">
        <g filter="url(#8slviyd89a)" transform="translate(-832 -2024)">
            <g>
                <path fill="#000" fill-rule="nonzero" d="M70.109 19.46H47.283v-5.32c1.491-.72 2.44-2.221 2.445-3.87V4.324C49.726 1.937 47.781.003 45.381 0H29.619c-2.4.003-4.345 1.937-4.347 4.324v5.946c.005 1.649.954 3.15 2.445 3.87v5.32H4.891c-2.7.002-4.888 2.179-4.891 4.864v30.811c0 .896.73 1.622 1.63 1.622.9 0 1.63-.726 1.63-1.622V30h23.287l-1.275 4.225v14.424c0 .895.73 1.621 1.63 1.621.9 0 1.63-.726 1.63-1.621v-4.054h17.935v4.054c0 .895.73 1.621 1.63 1.621.901 0 1.631-.726 1.631-1.621V34.225L48.453 30H71.74v25.135c0 .896.73 1.622 1.63 1.622.901 0 1.631-.726 1.631-1.622v-30.81c-.003-2.686-2.191-4.863-4.891-4.866zM28.533 4.323c0-.596.486-1.08 1.086-1.08h15.762c.6 0 1.086.484 1.086 1.08v5.946c0 .597-.486 1.08-1.086 1.081H29.619c-.6 0-1.086-.484-1.086-1.08V4.323zm2.445 10.27h13.044v4.865H30.978v-4.864zm-2.445 26.757v-4.054h17.934v4.054H28.533zm17.774-7.297H28.693L29.784 30h15.432l1.09 4.054zM3.26 26.757v-2.433c0-.895.73-1.62 1.63-1.621H70.11c.9 0 1.63.726 1.63 1.621v2.433H3.261z" transform="translate(832 2024)"/>
            </g>
        </g>
    </g>
</svg>
