<svg xmlns="http://www.w3.org/2000/svg" width="83" height="134" viewBox="0 0 83 134">
    <defs>
        <linearGradient id="bypr6ki1ub" x1="69.151%" x2="69.151%" y1="100%" y2="29.887%">
            <stop offset="0%" stop-color="#D18D46"/>
            <stop offset="100%" stop-color="#FFC985"/>
        </linearGradient>
        <linearGradient id="uyfdgja6gc" x1="69.151%" x2="69.151%" y1="100%" y2="29.887%">
            <stop offset="0%" stop-color="#D18D46"/>
            <stop offset="100%" stop-color="#FFC985"/>
        </linearGradient>
        <filter id="t9m4wt48za">
            <feColorMatrix in="SourceGraphic" values="0 0 0 0 0.000000 0 0 0 0 0.627451 0 0 0 0 0.596078 0 0 0 1.000000 0"/>
        </filter>
    </defs>
    <g fill="none" fill-rule="evenodd">
        <g>
            <g transform="translate(-979 -1232) translate(982 1235)">
                <rect width="77" height="128" stroke="#FFF" stroke-width="6" rx="15"/>
                <path stroke="#FFF" stroke-width="6" d="M0 78.903c8.649-6 21.482-6 38.5 0s29.851 6 38.5 0"/>
                <g filter="url(#t9m4wt48za)">
                    <g>
                        <path fill="url(#bypr6ki1ub)" d="M.826 23.071c2.548-3.734 5.54-7.413 10.385-11.23C14.442 9.294 15.343 5.348 13.914 0c-2.777 3.693-6.29 7.39-10.54 11.092-1.272 1.112-5.022 4.789-2.548 11.98z" transform="translate(29 18)"/>
                        <path fill="url(#uyfdgja6gc)" d="M10.451 41.286c2.052-2.75 2.187-5.492.405-8.229-1.656-2.384-1.334-4.463.965-6.238 4.707-3.872 6.205-7.955 4.496-12.248-3.06 2.49-5.344 4.361-6.85 5.615-2.26 1.88-9.065 8.21-3.981 15.649 1.032 1.772 4.052 4.084 4.965 5.45z" transform="translate(29 18)"/>
                    </g>
                </g>
            </g>
        </g>
    </g>
</svg>
