<svg xmlns="http://www.w3.org/2000/svg" width="124" height="124" viewBox="0 0 124 124">
    <defs>
        <filter id="2o9h04jp3a">
            <feColorMatrix in="SourceGraphic" values="0 0 0 0 1.000000 0 0 0 0 1.000000 0 0 0 0 1.000000 0 0 0 1.000000 0"/>
        </filter>
    </defs>
    <g fill="none" fill-rule="evenodd">
        <g>
            <g>
                <g fill="#262836" fill-rule="nonzero" filter="url(#2o9h04jp3a)" transform="translate(-662 -1235) translate(662 1235)">
                    <path d="M116.077 22.394V113.512c0 .337-.027.66-.066.998.052-.35.092-.687.145-1.037-.093.583-.251 1.127-.476 1.672l.397-.933c-.172.363-.357.712-.581 1.05-.225.336-.529.44.21-.247-.144.13-.263.298-.408.44-.04.04-.41.416-.45.403.014.013.951-.674.251-.208-.343.22-.7.402-1.07.57l.952-.388c-.555.22-1.11.375-1.704.466.357-.052.7-.09 1.057-.142-1.136.142-2.325.064-3.473.064H10.713c-.344 0-.687-.026-1.03-.064.356.051.7.09 1.056.142-.594-.09-1.149-.246-1.703-.466l.95.388c-.37-.168-.726-.35-1.07-.57-.343-.22-.448-.518.252.208-.132-.143-.304-.26-.45-.402-.039-.04-.422-.402-.409-.44-.013.012.687.932.212.245-.225-.337-.41-.686-.581-1.05l.396.934c-.225-.545-.383-1.089-.476-1.672.053.35.093.687.146 1.037-.132-1.037-.066-2.113-.066-3.15v-6.557-9.836-12.053-13.296-13.361-12.441-10.472-7.464-3.409c0-.337.026-.66.066-.998-.053.35-.093.687-.146 1.037.093-.583.251-1.127.476-1.672l-.396.933c.171-.362.356-.712.58-1.05.225-.336.529-.44-.21.247.145-.13.263-.298.409-.44.04-.04.41-.415.449-.402-.014-.013-.951.674-.251.207.343-.22.7-.402 1.07-.57l-.951.389c.554-.22 1.109-.376 1.703-.467-.356.052-.7.09-1.056.143 1.135-.143 2.324-.065 3.473-.065h100.148c.343 0 .686.026 1.03.065-.357-.052-.7-.091-1.057-.143.594.09 1.149.246 1.704.467l-.951-.39c.37.17.726.35 1.07.571.343.22.448.518-.251-.207.132.142.303.259.449.401.04.04.422.402.409.441.013-.013-.687-.933-.211-.246.224.337.409.687.58 1.05-.131-.312-.263-.623-.396-.934.225.545.383 1.089.476 1.672-.053-.35-.093-.687-.145-1.037.04.324.066.622.066.92.026 2.035 1.796 3.98 3.961 3.888 2.126-.09 3.988-1.71 3.962-3.887-.066-4.705-3.486-9.28-8.346-10.148-.938-.168-1.849-.246-2.786-.246H10.739c-2.786.013-5.4 1.01-7.448 2.864C1.14 16.821.017 19.672.003 22.524V112.89c0 .363-.013.726.014 1.088.277 5.003 4.027 9.215 9.137 9.889 1.321.168 2.642.13 3.975.13H113.29c2.853-.014 5.665-1.077 7.673-3.098 1.98-1.996 3.037-4.666 3.037-7.439v-4.264-8.968-12.363-14.307-14.826-13.944-11.651-7.931-2.812c0-2.035-1.823-3.979-3.962-3.888-2.152.09-3.961 1.71-3.961 3.888z"/>
                    <path d="M116.076 22.305v20.817l3.962-3.86H8.69c-1.506 0-3.012-.026-4.517 0h-.198l3.962 3.86v-18.54c0-1.042-.067-2.135.066-3.177-.053.347-.093.682-.146 1.029.093-.579.251-1.12.476-1.66l-.396.927c.171-.36.356-.708.58-1.042.225-.335.529-.438-.21.244.145-.129.263-.296.409-.437.04-.04.409-.412.449-.4-.014-.012-.951.67-.251.207.343-.22.7-.4 1.07-.567l-.951.386c.554-.218 1.109-.373 1.703-.463-.356.052-.7.09-1.056.142 1.135-.142 2.324-.065 3.473-.065H113.303c.344 0 .687.026 1.03.065-.356-.052-.7-.09-1.056-.142.594.09 1.149.245 1.703.463l-.95-.386c.37.168.726.348 1.07.567.343.218.448.514-.252-.206.132.141.304.257.45.399.039.038.422.398.409.437.013-.013-.687-.926-.212-.244.225.334.41.681.581 1.042l-.396-.927c.225.54.383 1.081.476 1.66-.053-.347-.093-.682-.146-1.03.04.31.066.605.066.901.027 2.02 1.796 3.95 3.962 3.86 2.126-.09 3.988-1.698 3.962-3.86-.08-5.66-4.78-10.254-10.604-10.305H10.789c-3.883.013-7.712 1.994-9.521 5.43C.409 19.075 0 20.8 0 22.64v20.495c0 2.084 1.81 3.86 3.962 3.86H115.31c1.506 0 3.011.012 4.517 0h.198c2.14 0 3.962-1.763 3.962-3.86V24.853v-2.535c0-2.02-1.823-3.95-3.962-3.86-2.14.078-3.949 1.686-3.949 3.847z"/>
                    <path d="M36 20.347V5.697 3.653c0-1.91-1.61-3.735-3.5-3.65-1.902.085-3.5 1.606-3.5 3.65v16.694c0 1.91 1.61 3.735 3.5 3.65 1.902-.085 3.5-1.606 3.5-3.65zM89 3.653v16.694c0 1.91 1.61 3.735 3.5 3.65 1.902-.085 3.5-1.606 3.5-3.65V5.697 3.653c0-1.91-1.61-3.735-3.5-3.65-1.902.085-3.5 1.594-3.5 3.65z"/>
                </g>
                <path stroke="#00A098" stroke-linecap="round" stroke-width="8" d="M38 78.031L54.969 95 87.56 62.408" transform="translate(-662 -1235) translate(662 1235)"/>
            </g>
        </g>
    </g>
</svg>
