<svg xmlns="http://www.w3.org/2000/svg" xmlns:xlink="http://www.w3.org/1999/xlink" width="640" height="207" viewBox="0 0 640 207">
    <defs>
        <linearGradient id="epjdlqg3sc" x1="45.551%" x2="53.822%" y1="-2.807%" y2="82.323%">
            <stop offset="0%" stop-color="#F4C989"/>
            <stop offset="100%" stop-color="#DD9E4E"/>
        </linearGradient>
        <linearGradient id="c91dyh3nxd" x1="49.436%" x2="50.484%" y1="-2.807%" y2="82.323%">
            <stop offset="0%" stop-color="#F4C989"/>
            <stop offset="100%" stop-color="#DD9E4E"/>
        </linearGradient>
        <linearGradient id="ozpfmyfuie" x1="39.139%" x2="59.33%" y1="2.427%" y2="79.119%">
            <stop offset="0%" stop-color="#F4C989"/>
            <stop offset="100%" stop-color="#DD9E4E"/>
        </linearGradient>
        <linearGradient id="cy0cq4ek7f" x1="39.139%" x2="59.33%" y1="26.243%" y2="64.541%">
            <stop offset="0%" stop-color="#F4C989"/>
            <stop offset="100%" stop-color="#DD9E4E"/>
        </linearGradient>
        <linearGradient id="4wdp6kh2ug" x1="42.349%" x2="56.572%" y1="-2.807%" y2="82.323%">
            <stop offset="0%" stop-color="#F4C989"/>
            <stop offset="100%" stop-color="#DD9E4E"/>
        </linearGradient>
        <linearGradient id="2z4yagb9mh" x1="43.596%" x2="55.501%" y1="-2.807%" y2="82.323%">
            <stop offset="0%" stop-color="#F4C989"/>
            <stop offset="100%" stop-color="#DD9E4E"/>
        </linearGradient>
        <linearGradient id="pp8hqsyzpi" x1="45.051%" x2="54.251%" y1="-2.807%" y2="82.323%">
            <stop offset="0%" stop-color="#F4C989"/>
            <stop offset="100%" stop-color="#DD9E4E"/>
        </linearGradient>
        <linearGradient id="h0vucmawkk" x1="69.151%" x2="69.151%" y1="100%" y2="29.887%">
            <stop offset="0%" stop-color="#D18D46"/>
            <stop offset="100%" stop-color="#FFC985"/>
        </linearGradient>
        <linearGradient id="axnoo1f9ym" x1="69.151%" x2="69.151%" y1="100%" y2="29.887%">
            <stop offset="0%" stop-color="#D18D46"/>
            <stop offset="100%" stop-color="#FFC985"/>
        </linearGradient>
        <filter id="vscf3cglca" width="181.6%" height="181.6%" x="-40.8%" y="-20.4%" filterUnits="objectBoundingBox">
            <feOffset dy="30" in="SourceAlpha" result="shadowOffsetOuter1"/>
            <feGaussianBlur in="shadowOffsetOuter1" result="shadowBlurOuter1" stdDeviation="15"/>
            <feColorMatrix in="shadowBlurOuter1" values="0 0 0 0 0 0 0 0 0 0 0 0 0 0 0 0 0 0 0.5 0"/>
        </filter>
        <circle id="cr4wtqkqbb" cx="73.5" cy="73.5" r="73.5"/>
        <path id="nwlzscdzjj" d="M0 0.682L40.846 0.682 40.846 59.349 0 59.349z"/>
    </defs>
    <g fill="none" fill-rule="evenodd">
        <g>
            <g>
                <g transform="translate(-396 -387) translate(426 387)">
                    <use fill="#000" filter="url(#vscf3cglca)" xlink:href="#cr4wtqkqbb"/>
                    <use fill="#222D3A" xlink:href="#cr4wtqkqbb"/>
                </g>
                <path fill="url(#epjdlqg3sc)" d="M220.778 83.955L195.334 83.955 195.334 114 178 114 178 39 224.001 39 226 52.475 195.334 52.475 195.334 70.48 218.778 70.48 220.778 83.955" transform="translate(-396 -387) translate(426 387)"/>
                <path fill="url(#c91dyh3nxd)" d="M233 115L233 37.231 251 36 251 115 233 115" transform="translate(-396 -387) translate(426 387)"/>
                <path fill="url(#ozpfmyfuie)" d="M288.443 101.863c2.427 0 4.504-.564 6.232-1.697 1.727-1.133 3.07-2.722 4.025-4.768.955-2.045 1.434-4.42 1.434-7.123 0-2.703-.46-5.113-1.378-7.234-.921-2.118-2.244-3.78-3.971-4.986-1.728-1.205-3.768-1.808-6.12-1.808-2.354 0-4.43.585-6.232 1.754-1.801 1.169-3.18 2.777-4.135 4.822-.956 2.046-1.433 4.494-1.433 7.342 0 2.63.477 4.987 1.433 7.068.955 2.082 2.297 3.709 4.025 4.877 1.727 1.17 3.767 1.753 6.12 1.753zM288.334 116c-5.808 0-10.918-1.06-15.33-3.178-4.41-2.117-7.847-5.277-10.31-9.48-2.464-4.2-3.694-9.26-3.694-15.177.072-5.917 1.378-10.96 3.915-15.124 2.535-4.164 6.026-7.378 10.476-9.644 4.447-2.263 9.501-3.397 15.164-3.397 5.806 0 10.917 1.097 15.328 3.289 4.411 2.191 7.866 5.388 10.367 9.588 2.499 4.202 3.75 9.335 3.75 15.398 0 5.771-1.288 10.739-3.86 14.904-2.574 4.164-6.085 7.343-10.533 9.534-4.448 2.192-9.539 3.287-15.273 3.287z" transform="translate(-396 -387) translate(426 387)"/>
                <path fill="url(#cy0cq4ek7f)" d="M369.531 114L360.285 84.15 351.37 114 336.18 114 320 63.701 336.4 59 344.325 91.476 351.919 60.968 369.2 60.968 377.235 91.476 384.5 60.968 402 60.968 384.61 114 369.531 114" transform="translate(-396 -387) translate(426 387)"/>
                <path fill="url(#4wdp6kh2ug)" d="M482.462 100.469c.483.73 1.116 1.312 1.898 1.75.78.437 1.654.656 2.623.656 1.564 0 3.163-.345 4.802-1.039 1.635-.692 3.198-1.696 4.688-3.008v-6.561h-8.485c-1.936 0-3.461.584-4.577 1.748-1.117 1.168-1.675 2.516-1.675 4.048 0 .874.24 1.677.726 2.406zm-13.23-35.546c1.711-.948 3.814-1.787 6.308-2.516 2.494-.728 5.135-1.312 7.927-1.75 2.79-.438 5.303-.657 7.535-.657 4.614 0 8.653.875 12.114 2.625 3.46 1.75 6.14 4.195 8.037 7.329 1.899 3.136 2.847 6.78 2.847 10.938v33.795h-9.712l-4.13-5.578c-1.862 2.116-3.908 3.792-6.14 5.031-2.233 1.239-4.618 1.86-7.146 1.86-6.7 0-11.686-1.64-14.96-4.922-3.276-3.28-4.912-7.583-4.912-12.906 0-5.613 1.933-9.716 5.805-12.304 3.87-2.588 8.893-3.883 15.071-3.883h8.485l-.11-.328c-.225-2.26-1.026-3.993-2.4-5.196-1.38-1.203-3.147-1.804-5.304-1.804-2.233 0-4.727.328-7.482.984-2.754.657-5.134 1.46-7.144 2.406l-4.688-13.124z" transform="translate(-396 -387) translate(426 387)"/>
                <path fill="url(#2z4yagb9mh)" d="M524.975 99.014c1.619.657 3.297 1.26 5.03 1.808 1.73.549 3.443 1.006 5.14 1.371 1.694.366 3.166.547 4.42.547 1.106 0 2.156-.145 3.151-.438.995-.291 1.841-.694 2.542-1.206.7-.51 1.051-1.132 1.051-1.863 0-.657-.295-1.295-.885-1.918-.59-.62-1.437-1.222-2.542-1.807-1.106-.584-2.396-1.058-3.87-1.425-2.874-1.021-5.747-2.263-8.621-3.727-2.874-1.46-5.25-3.286-7.13-5.478-1.879-2.192-2.819-4.822-2.819-7.89 0-5.334 1.99-9.497 5.97-12.494C530.39 61.499 535.88 60 542.882 60c1.474 0 3.371.184 5.693.549 2.321.365 4.679.95 7.074 1.753 2.394.804 4.588 1.9 6.578 3.287l-5.086 11.178c-2.36-1.021-4.68-1.844-6.963-2.465-2.286-.62-4.496-.932-6.632-.932-1.77 0-3.207.33-4.311.987-1.107.657-1.66 1.463-1.66 2.41 0 .806.72 1.573 2.156 2.302 1.437.731 3.04 1.39 4.81 1.972 2.946 1.024 5.839 2.321 8.676 3.892 2.836 1.571 5.176 3.489 7.02 5.753 1.84 2.266 2.763 5.005 2.763 8.219 0 5.333-1.88 9.517-5.637 12.547-3.759 3.033-9.324 4.548-16.692 4.548-1.475 0-3.482-.164-6.024-.492-2.543-.328-5.159-.949-7.848-1.864-2.69-.913-4.958-2.063-6.799-3.452l4.975-11.178M571.974 99.014c1.62.657 3.297 1.26 5.03 1.808 1.73.549 3.443 1.006 5.14 1.371 1.694.366 3.167.547 4.421.547 1.105 0 2.156-.145 3.15-.438.996-.291 1.842-.694 2.543-1.206.7-.51 1.05-1.132 1.05-1.863 0-.657-.295-1.295-.884-1.918-.591-.62-1.437-1.222-2.543-1.807-1.105-.584-2.396-1.058-3.869-1.425-2.875-1.021-5.747-2.263-8.622-3.727-2.874-1.46-5.25-3.286-7.13-5.478-1.879-2.192-2.819-4.822-2.819-7.89 0-5.334 1.99-9.497 5.97-12.494C577.39 61.499 582.879 60 589.88 60c1.474 0 3.372.184 5.694.549 2.32.365 4.678.95 7.074 1.753 2.393.804 4.588 1.9 6.578 3.287l-5.086 11.178c-2.359-1.021-4.68-1.844-6.963-2.465-2.286-.62-4.497-.932-6.633-.932-1.77 0-3.206.33-4.311.987s-1.66 1.463-1.66 2.41c0 .806.72 1.573 2.158 2.302 1.436.731 3.039 1.39 4.808 1.972 2.947 1.024 5.84 2.321 8.678 3.892 2.835 1.571 5.175 3.489 7.019 5.753 1.84 2.266 2.763 5.005 2.763 8.219 0 5.333-1.88 9.517-5.637 12.547-3.759 3.033-9.324 4.548-16.693 4.548-1.474 0-3.481-.164-6.024-.492-2.543-.328-5.159-.949-7.848-1.864-2.69-.913-4.958-2.063-6.798-3.452l4.974-11.178" transform="translate(-396 -387) translate(426 387)"/>
                <path fill="url(#pp8hqsyzpi)" d="M424.405 99.763c5.786 3.963 18.631 3.963 18.631-12.501 0-17.27-14.995-15.599-18.631-11.735v24.236zM407 60.78h8.813l3.292 3.17S424.665 59 433.553 59C442.441 59 461 61.774 461 87.15c0 25.376-18.788 28.706-28.228 28.706-4.438 0-8.367-1.772-8.367-1.772v23.803L407 139V60.781z" transform="translate(-396 -387) translate(426 387)"/>
                <g>
                    <g transform="translate(-396 -387) translate(426 387) translate(52 21) translate(0 .295)">
                        <mask id="2534use7nl" fill="#fff">
                            <use xlink:href="#nwlzscdzjj"/>
                        </mask>
                        <path fill="url(#h0vucmawkk)" d="M31.356 30.79C46.506 21.014 38.974.682 38.974.682 34.744 6.54 25.85 16.714 8.874 27.82c-14.598 9.55-6.787 31.53-6.787 31.53 2.38-4.239 2.967-11.588 29.27-28.56" mask="url(#2534use7nl)"/>
                    </g>
                    <path fill="url(#axnoo1f9ym)" d="M23.777 75.639c.617-5.447 6.875-9.702 12.74-15.7 11.267-12.055 4.737-25.412 4.737-25.412-3.092 6.425-35.11 19.829-35.105 41.295.004 16.929 14.277 20.827 18.94 28.118 11.527-15.02-2.116-21.206-1.312-28.301" transform="translate(-396 -387) translate(426 387) translate(52 21)"/>
                </g>
            </g>
        </g>
    </g>
</svg>
