<svg xmlns="http://www.w3.org/2000/svg" width="131" height="127" viewBox="0 0 131 127">
    <defs>
        <filter id="h2kynapzya">
            <feColorMatrix in="SourceGraphic" values="0 0 0 0 1.000000 0 0 0 0 1.000000 0 0 0 0 1.000000 0 0 0 1.000000 0"/>
        </filter>
    </defs>
    <g fill="none" fill-rule="evenodd">
        <g filter="url(#h2kynapzya)" transform="translate(-661 -1341)">
            <g fill="#000" fill-rule="nonzero">
                <path d="M34.31 60.599c-9.09 0-16.487-8.396-16.487-18.715 0-10.318 7.397-18.714 16.487-18.714 9.09 0 16.486 8.396 16.486 18.714 0 10.319-7.397 18.715-16.486 18.715zm0-30.434c-5.244 0-9.511 5.258-9.511 11.722 0 6.463 4.265 11.721 9.51 11.721 5.246 0 9.511-5.258 9.511-11.721 0-6.464-4.267-11.722-9.51-11.722zM11.35 116.741H4.457V88.874c.016-.771.535-17.127 13.815-21.252 11.71-3.635 31.654-.247 32.497-.104l.75.222c3.665 1.55 10.245 6.87 8.903 15.922l-6.82-1.019c.782-5.284-3.251-7.758-4.442-8.365-2.907-.46-19.583-2.912-28.854-.035-8.515 2.647-8.954 14.601-8.957 14.721l.003 27.777z" transform="translate(661 1341)"/>
                <path d="M73.89 123.87l-6.493-2.317 1.624-4.563c.083-.211 3.042-7.506 6.918-16.376 1.215-2.785 2.026-4.862 2.563-6.382H49.227l-10.89 22.427h-16.95v-6.9h12.639l10.889-22.426h41.527v3.45c0 .904-.409 3.94-4.193 12.598-3.834 8.78-6.76 15.996-6.79 16.067l-1.57 4.423z" transform="translate(661 1341)"/>
                <path d="M0 119.415H131V126.54400000000001H0z" transform="translate(661 1341)"/>
            </g>
        </g>
    </g>
</svg>
