<svg xmlns="http://www.w3.org/2000/svg" width="74" height="74" viewBox="0 0 74 74">
    <defs>
        <filter id="5z31y7g9ka">
            <feColorMatrix in="SourceGraphic" values="0 0 0 0 1.000000 0 0 0 0 0.788235 0 0 0 0 0.517647 0 0 0 1.000000 0"/>
        </filter>
    </defs>
    <g fill="none" fill-rule="evenodd">
        <g filter="url(#5z31y7g9ka)" transform="translate(-248 -2016)">
            <g>
                <path fill="#000" fill-rule="nonzero" d="M37 0C16.586 0 0 16.586 0 37s16.586 37 37 37 37-16.586 37-37S57.414 0 37 0zm0 3.524C55.51 3.524 70.476 18.49 70.476 37c0 18.51-14.967 33.476-33.476 33.476C18.49 70.476 3.524 55.51 3.524 37 3.524 18.49 18.49 3.524 37 3.524zm0 7.047c-.973 0-1.762.79-1.762 1.762V37c0 .652.355 1.21.881 1.514l19.849 11.452c.843.487 1.909.21 2.395-.633.487-.842.21-1.908-.633-2.395L38.762 35.981V12.333c0-.973-.789-1.762-1.762-1.762z" transform="translate(248 2016)"/>
            </g>
        </g>
    </g>
</svg>
