<svg xmlns="http://www.w3.org/2000/svg" width="108" height="126" viewBox="0 0 108 126">
    <defs>
        <filter id="2stf4tou5a">
            <feColorMatrix in="SourceGraphic" values="0 0 0 0 1.000000 0 0 0 0 1.000000 0 0 0 0 1.000000 0 0 0 1.000000 0"/>
        </filter>
    </defs>
    <g fill="none" fill-rule="evenodd">
        <g filter="url(#2stf4tou5a)" transform="translate(-966 -1351)">
            <g>
                <path fill="#000" fill-rule="nonzero" d="M97.058 57.99c-5.71-2.126-13.23-3.295-21.172-3.295-7.943 0-15.463 1.17-21.173 3.295-8.712 3.243-10.541 7.611-10.541 10.705v13.496l.003.169h-.003v13.496l.003.169h-.003v13.664c0 3.093 1.829 7.461 10.541 10.704 5.71 2.126 13.23 3.295 21.173 3.295 7.942 0 15.462-1.17 21.172-3.295 8.712-3.243 10.541-7.611 10.541-10.706v-.166-.003l-.004-13.274c.001-.074.004-.148.004-.22h-.003l.003-.171-.004-13.274c.001-.074.004-.148.004-.22h-.003l.003-.171-.004-13.274c.001-.074.004-.148.004-.22.002-3.093-1.827-7.46-10.541-10.704zm-39.905 6.554c4.95-1.841 11.602-2.856 18.733-2.856 7.13 0 13.784 1.015 18.732 2.856 4.722 1.758 5.909 3.527 5.984 4.094v.111c-.075.567-1.262 2.336-5.984 4.094-4.95 1.842-11.602 2.856-18.732 2.856-7.131 0-13.785-1.014-18.733-2.856-4.887-1.819-5.987-3.652-5.987-4.15 0-.497 1.1-2.33 5.987-4.149zm37.465 49.125c-4.948 1.843-11.602 2.857-18.732 2.857-7.131 0-13.785-1.014-18.733-2.856-4.887-1.819-5.987-3.652-5.987-4.15v-4.358c1.034.543 2.209 1.069 3.547 1.568 5.71 2.125 13.23 3.295 21.173 3.295 7.942 0 15.462-1.17 21.172-3.295 1.339-.5 2.514-1.024 3.545-1.566l.002 4.358c0 .497-1.101 2.33-5.987 4.147zm5.988-17.813h-.004v.054c-.075.567-1.262 2.336-5.984 4.094-4.95 1.841-11.602 2.856-18.732 2.856-7.131 0-13.785-1.015-18.733-2.856-4.887-1.82-5.987-3.652-5.987-4.15v-4.358c1.034.543 2.209 1.069 3.547 1.567 5.71 2.126 13.23 3.296 21.173 3.296 7.942 0 15.462-1.171 21.172-3.296 1.339-.498 2.514-1.023 3.545-1.566l.003 4.359c0-.002 0 0 0 0zm0-13.665h-.004v.054c-.075.567-1.262 2.336-5.984 4.094-4.95 1.842-11.602 2.856-18.732 2.856-7.131 0-13.785-1.014-18.733-2.856-4.887-1.82-5.987-3.652-5.987-4.15v-4.358c1.034.543 2.209 1.069 3.547 1.567 5.71 2.126 13.23 3.296 21.173 3.296 7.942 0 15.462-1.171 21.172-3.296 1.339-.498 2.514-1.023 3.545-1.566l.003 4.359c0-.002 0 0 0 0zM37.178 96.192v-.169-.08-5.426c-1.649.115-3.343.176-5.065.176-7.13 0-13.784-1.015-18.732-2.856-4.887-1.82-5.987-3.652-5.987-4.15V79.33c1.033.543 2.208 1.068 3.547 1.567 5.71 2.126 13.23 3.297 21.172 3.297 1.712 0 3.405-.058 5.065-.165v-1.67-.08-5.426c-1.649.115-3.343.176-5.065.176-7.13 0-13.784-1.014-18.732-2.856-4.887-1.82-5.987-3.652-5.987-4.15v-4.358c1.033.543 2.208 1.069 3.547 1.567 5.71 2.126 13.23 3.297 21.172 3.297 1.712 0 3.405-.058 5.065-.165v-1.67c0-1.555.251-3.582 1.176-5.767-2.016.176-4.105.27-6.24.27-7.13 0-13.784-1.015-18.732-2.857-4.887-1.819-5.987-3.652-5.987-4.15v-4.358c1.033.543 2.208 1.07 3.547 1.568 5.71 2.126 13.23 3.297 21.172 3.297 4.208 0 8.292-.331 12.055-.957 2.062-1.566 4.708-3.04 8.104-4.303 3.397-1.264 7.325-2.226 11.552-2.859l-.001-5.65c.003-.078.004-.155.004-.231h-.003l.003-.171-.004-13.263c.003-.078.004-.155.004-.231h-.003l.003-.17-.004-13.264c.003-.078.004-.154.004-.231 0-3.094-1.829-7.462-10.541-10.705-5.71-2.127-13.23-3.297-21.173-3.297-7.942 0-15.462 1.17-21.172 3.296C2.23 7.902.401 12.27.401 15.364V28.86l.003.17H.4v13.495l.003.17H.4v13.664l.003.17H.4v13.495l.003.169H.4v13.496c0 3.093 1.829 7.462 10.541 10.704 5.71 2.126 13.23 3.297 21.172 3.297 1.713 0 3.405-.058 5.065-.165v-1.333h-.001zM13.382 11.215c4.95-1.842 11.602-2.856 18.732-2.856 7.131 0 13.785 1.014 18.733 2.856 4.718 1.756 5.906 3.524 5.982 4.093v.113c-.076.569-1.264 2.336-5.982 4.093-4.95 1.842-11.602 2.856-18.733 2.856-7.13 0-13.784-1.014-18.732-2.856-4.887-1.82-5.987-3.652-5.987-4.15 0-.497 1.099-2.33 5.987-4.15zM7.394 24.502c1.033.543 2.208 1.068 3.547 1.567 5.71 2.126 13.23 3.297 21.172 3.297s15.462-1.17 21.172-3.297c1.339-.499 2.514-1.023 3.546-1.566l.001 4.357v.002h-.004v.055c-.077.568-1.265 2.336-5.983 4.093-4.95 1.841-11.601 2.856-18.732 2.856-7.13 0-13.784-1.015-18.732-2.856-4.887-1.82-5.987-3.652-5.987-4.15v-4.358zm0 13.665c1.033.542 2.208 1.068 3.547 1.567 5.71 2.126 13.23 3.297 21.172 3.297s15.462-1.171 21.172-3.297c1.339-.499 2.514-1.023 3.546-1.566l.001 4.357v.001h-.004v.056c-.077.568-1.265 2.336-5.983 4.092-4.95 1.842-11.601 2.857-18.732 2.857-7.13 0-13.784-1.015-18.732-2.857-4.887-1.818-5.987-3.652-5.987-4.149v-4.358z" transform="translate(966 1351)"/>
            </g>
        </g>
    </g>
</svg>
