<svg xmlns="http://www.w3.org/2000/svg" width="100" height="85" viewBox="0 0 100 85">
    <defs>
        <filter id="e6pvqefgia">
            <feColorMatrix in="SourceGraphic" values="0 0 0 0 1.000000 0 0 0 0 0.788235 0 0 0 0 0.517647 0 0 0 1.000000 0"/>
        </filter>
    </defs>
    <g fill="none" fill-rule="evenodd">
        <g filter="url(#e6pvqefgia)" transform="translate(-1106 -2010)">
            <g fill="#000" fill-rule="nonzero">
                <path d="M14.818 21.748h5.818s.893 1.844 1.995 3.18c.55.669 1.272 1.003 1.994 1.003s1.444-.334 1.994-1.004l1.995-3.18h5.818c3.213 0 5.818-2.71 5.818-6.056V6.056C40.25 2.711 37.452 0 34 0H15.25C11.798 0 9 2.71 9 6.056v9.635c0 3.345 2.605 6.057 5.818 6.057zM12.125 6.056c0-1.616 1.401-2.931 3.125-2.931H34c1.724 0 3.125 1.315 3.125 2.931v9.635c0 1.617-1.209 2.932-2.693 2.932h-5.818c-1.075 0-2.075.553-2.647 1.464l-1.395 2.223c-.517-.757-.966-1.6-1.124-1.925-.522-1.078-1.615-1.762-2.812-1.762h-5.818c-1.484 0-2.693-1.315-2.693-2.932V6.056z" transform="translate(1106 2010)"/>
                <path d="M18.636 9.303h11.978c.863 0 1.563-.7 1.563-1.562 0-.863-.7-1.563-1.563-1.563H18.636c-.863 0-1.563.7-1.563 1.563s.7 1.562 1.563 1.562zM18.636 15.496h11.978c.863 0 1.563-.7 1.563-1.562 0-.863-.7-1.563-1.563-1.563H18.636c-.863 0-1.563.7-1.563 1.563 0 .862.7 1.562 1.563 1.562zM83.75 4H65c-3.452 0-6.25 2.71-6.25 6.056v9.635c0 3.345 2.605 6.057 5.818 6.057h5.818s.893 1.844 1.995 3.18c.55.669 1.272 1.003 1.994 1.003s1.444-.334 1.994-1.004l1.995-3.18h5.818c3.213 0 5.818-2.71 5.818-6.056v-9.635C90 6.711 87.202 4 83.75 4zm3.125 15.691c0 1.617-1.209 2.932-2.693 2.932h-5.818c-1.075 0-2.075.553-2.647 1.464l-1.395 2.223c-.517-.757-.966-1.6-1.124-1.925-.522-1.078-1.615-1.762-2.812-1.762h-5.818c-1.484 0-2.693-1.315-2.693-2.932v-9.635c0-1.616 1.401-2.931 3.125-2.931h18.75c1.724 0 3.125 1.315 3.125 2.931v9.635z" transform="translate(1106 2010)"/>
                <path d="M80.364 10.178H68.386c-.863 0-1.563.7-1.563 1.563s.7 1.562 1.563 1.562h11.978c.863 0 1.563-.7 1.563-1.562 0-.863-.7-1.563-1.563-1.563zM80.364 16.371H68.386c-.863 0-1.563.7-1.563 1.563 0 .862.7 1.562 1.563 1.562h11.978c.863 0 1.563-.7 1.563-1.562 0-.863-.7-1.563-1.563-1.563zM89.394 58.176c-.737.908-1.6 1.708-2.559 2.38 5.397 1.89 10.04 6.544 10.04 12.593v7.948c0 .09-.066.153-.125.153H62.625c-.06 0-.125-.063-.125-.153v-7.948c0-6.05 4.643-10.703 10.04-12.593-.96-.672-1.822-1.472-2.559-2.38-5.992 2.636-10.606 8.17-10.606 14.973v7.948c0 1.809 1.456 3.278 3.25 3.278H96.75c1.794 0 3.25-1.47 3.25-3.278v-7.948c0-6.804-4.614-12.338-10.606-14.973z" transform="translate(1106 2010)"/>
                <path d="M79.688 59.605c5.177 0 9.374-4.16 9.374-9.29 0-5.13-4.197-9.289-9.374-9.289-5.178 0-9.376 4.16-9.376 9.29 0 5.13 4.198 9.289 9.376 9.289zm0-15.454c3.446 0 6.25 2.765 6.25 6.164 0 3.399-2.804 6.165-6.25 6.165-3.447 0-6.25-2.766-6.25-6.165s2.803-6.164 6.25-6.164zM40.625 38.704c0 5.13 4.198 9.29 9.375 9.29s9.375-4.16 9.375-9.29c0-5.13-4.198-9.289-9.375-9.289s-9.375 4.16-9.375 9.289zm15.625 0c0 3.399-2.804 6.164-6.25 6.164s-6.25-2.765-6.25-6.164c0-3.399 2.804-6.164 6.25-6.164s6.25 2.765 6.25 6.164zM30.02 58.176c-.738.908-1.6 1.708-2.56 2.38 5.397 1.89 10.04 6.544 10.04 12.593v7.948c0 .09-.066.153-.125.153H3.25c-.06 0-.125-.063-.125-.153v-7.948c0-6.05 4.643-10.703 10.04-12.593-.96-.672-1.822-1.472-2.559-2.38C4.614 60.812 0 66.346 0 73.15v7.948c0 1.809 1.456 3.278 3.25 3.278h34.125c1.794 0 3.25-1.47 3.25-3.278v-7.948c0-6.804-4.614-12.338-10.606-14.973z" transform="translate(1106 2010)"/>
                <path d="M20.313 41.026c-5.178 0-9.375 4.16-9.375 9.29 0 5.13 4.197 9.289 9.374 9.289 5.178 0 9.375-4.16 9.375-9.29 0-5.13-4.197-9.289-9.375-9.289zm0 15.454c-3.447 0-6.25-2.766-6.25-6.165s2.803-6.164 6.25-6.164c3.446 0 6.25 2.765 6.25 6.164 0 3.399-2.804 6.165-6.25 6.165zM40.294 46.565c-3.976 1.748-7.335 4.778-9.152 8.602.956.417 1.886.9 2.781 1.443 1.69-3.612 5.117-6.33 8.93-7.666-.96-.671-1.822-1.47-2.56-2.379zM43.747 81.25c-.01 1.136-.314 2.201-.837 3.125h14.18c-.523-.924-.828-1.989-.837-3.125H43.747zM66.077 56.61c.895-.543 1.825-1.025 2.781-1.443-1.817-3.825-5.176-6.854-9.152-8.603-.737.908-1.599 1.708-2.559 2.38 3.813 1.335 7.24 4.054 8.93 7.666z" transform="translate(1106 2010)"/>
            </g>
        </g>
    </g>
</svg>
