<svg xmlns="http://www.w3.org/2000/svg" width="39" height="98" viewBox="0 0 39 98">
    <defs>
        <filter id="7e7tf5mvga">
            <feColorMatrix in="SourceGraphic" values="0 0 0 0 1.000000 0 0 0 0 0.788235 0 0 0 0 0.517647 0 0 0 1.000000 0"/>
        </filter>
    </defs>
    <g fill="none" fill-rule="evenodd">
        <g filter="url(#7e7tf5mvga)" transform="translate(-568 -2003)">
            <g>
                <path fill="#000" fill-rule="nonzero" d="M37.273 74L3.485 68.697c-.758-.152-1.667.455-1.667 1.212-.151.758.455 1.667 1.212 1.667l33.637 5.454c.757.152 1.666-.454 1.666-1.212.303-.909-.303-1.666-1.06-1.818zM36.97 59.152L3.333 53.697c-.909-.152-1.666.455-1.666 1.212 0 .758.454 1.667 1.212 1.667l33.636 5.454c.758.152 1.667-.454 1.667-1.212.151-.757-.455-1.666-1.212-1.666zM36.667 44.303L3.03 38.848c-.909-.151-1.666.455-1.666 1.213-.152.757.454 1.666 1.212 1.666l33.636 5.455c.758.151 1.667-.455 1.667-1.212.151-.606-.455-1.515-1.212-1.667zM37.121 66.424L3.485 60.97c-.91-.152-1.667.454-1.667 1.212-.151.757.455 1.666 1.212 1.666l33.637 5.455c.757.152 1.666-.455 1.666-1.212.152-.758-.454-1.515-1.212-1.667zM36.818 51.727L3.03 46.273c-.909-.152-1.666.454-1.666 1.212 0 .757.454 1.667 1.212 1.667l33.788 5.606c.757.151 1.666-.455 1.666-1.213.152-.909-.454-1.666-1.212-1.818zM36.515 37.03L2.88 31.576c-.758-.152-1.667.454-1.667 1.212-.151.757.455 1.667 1.212 1.667l33.637 5.454c.757.152 1.666-.454 1.666-1.212.152-.758-.454-1.515-1.212-1.667zM36.364 29.606L2.727 24.152c-.909-.152-1.666.454-1.666 1.212-.152.757.454 1.666 1.212 1.666l33.636 5.455c.758.151 1.667-.455 1.667-1.212.151-.758-.455-1.515-1.212-1.667zM1.97 19.91c2.272.302 30.151 4.848 33.636 5.454.758.151 1.667-.455 1.667-1.212.151-.758-.455-1.667-1.212-1.667l-10.152-1.667c3.03-1.97 5-5.454 5-9.394 0-6.212-5-11.212-11.212-11.212s-11.212 5-11.212 11.212c0 2.576.909 5 2.424 6.818L2.576 16.88c-.91-.152-1.667.454-1.667 1.212-.303.909.303 1.667 1.06 1.818zM19.697 3.09c4.545 0 8.182 3.637 8.182 8.183 0 4.848-4.091 8.636-8.94 8.182-.151-.152-7.424-.758-7.424-8.182 0-4.394 3.637-8.182 8.182-8.182zM22.273 82.03l14.697 2.425c.757.151 1.666-.455 1.666-1.213.152-.757-.454-1.666-1.212-1.666l-14.697-2.424c-.151 0-.303-.152-.454-.152L3.788 75.97c-.91-.152-1.667.454-1.667 1.212-.151.757.455 1.666 1.212 1.666l14.394 2.273c-2.12 1.97-3.333 4.697-3.333 7.879l.151 7.273c0 .757.758 1.515 1.516 1.515.909 0 1.515-.758 1.515-1.515L17.424 89c-.151-3.182 1.818-5.91 4.849-6.97z" transform="translate(568 2003)"/>
            </g>
        </g>
    </g>
</svg>
