<svg xmlns="http://www.w3.org/2000/svg" width="18" height="18" viewBox="0 0 18 18">
    <g fill="none" fill-rule="evenodd">
        <g fill="#262836" fill-rule="nonzero">
            <g>
                <path d="M16.85 3.226V16.475c0 .049-.004.096-.01.145l.021-.15c-.013.084-.036.163-.069.242l.058-.135c-.025.052-.052.103-.085.152-.032.05-.076.064.031-.035-.02.018-.038.043-.06.064-.005.005-.059.06-.064.058.001.002.138-.098.036-.03-.05.032-.102.058-.155.083l.138-.057c-.08.032-.161.055-.248.068l.154-.02c-.165.02-.338.009-.504.009H1.555c-.05 0-.1-.004-.15-.01l.154.021c-.086-.013-.167-.036-.247-.068l.138.057c-.054-.025-.106-.051-.156-.083-.05-.032-.065-.076.037.03-.02-.02-.044-.038-.065-.058-.006-.006-.062-.059-.06-.064-.002.001.1.135.03.035-.032-.049-.059-.1-.083-.152l.057.135c-.033-.079-.056-.158-.069-.243l.021.151c-.02-.15-.01-.307-.01-.458v-.953-1.43-1.753-1.934V8.15 6.34 4.819 3.732v-.495c0-.05.004-.096.01-.145l-.021.15c.013-.084.036-.163.069-.243l-.057.136c.024-.053.051-.104.084-.153.032-.048.077-.064-.03.036.02-.019.038-.043.059-.064.005-.005.059-.06.065-.058-.002-.002-.138.098-.037.03.05-.032.102-.058.156-.083l-.138.057c.08-.032.16-.055.247-.068l-.153.02c.164-.02.337-.009.504-.009h14.537c.05 0 .1.004.15.01l-.154-.021c.087.013.167.036.248.068l-.138-.057c.053.025.105.05.155.083.05.032.065.075-.036-.03.019.02.044.038.065.058.005.006.061.059.06.064.001-.002-.1-.135-.032-.036.033.05.06.1.085.153L16.792 3c.033.08.056.159.07.244l-.022-.151c.006.047.01.09.01.134.004.295.26.578.575.565.309-.013.579-.249.575-.565-.01-.684-.506-1.35-1.212-1.476-.136-.024-.268-.036-.404-.036H1.559c-.405.002-.784.147-1.081.417C.165 2.415.002 2.83 0 3.244V16.385c0 .052-.001.105.002.158.04.727.585 1.34 1.327 1.438.192.024.383.018.577.018h14.539c.414-.001.823-.156 1.114-.45.288-.29.441-.678.441-1.082v-.62-1.304-1.797-2.08V8.51 6.482 4.788 3.635v-.41c0-.295-.265-.578-.575-.565-.313.013-.575.249-.575.566z" transform="translate(-538 -85) translate(538 85)"/>
                <path d="M16.85 3.229v3.058l.575-.567H1.26c-.218 0-.437-.004-.655 0H.577l.575.567V3.563c0-.153-.01-.314.01-.467l-.021.151c.013-.085.036-.164.069-.243l-.058.136c.025-.053.052-.104.084-.153.033-.05.077-.065-.03.035.02-.018.038-.043.06-.064.005-.005.059-.06.064-.058-.002-.002-.138.098-.036.03.05-.032.102-.059.155-.083l-.138.056c.08-.032.161-.054.247-.068l-.153.021c.165-.02.337-.01.504-.01H16.447c.05 0 .1.004.15.01l-.154-.02c.087.013.167.035.248.067l-.138-.056c.053.024.105.05.155.083.05.032.065.075-.036-.03.019.02.044.037.065.058.005.006.061.059.06.064.001-.001-.1-.136-.032-.035.033.049.06.1.085.153l-.058-.136c.033.079.056.158.07.243l-.022-.15c.006.045.01.088.01.132.004.296.26.58.575.567.309-.014.579-.25.575-.567-.012-.832-.694-1.507-1.54-1.515H1.567c-.563.002-1.12.293-1.382.798-.125.242-.184.495-.184.766V6.289c0 .306.263.567.575.567H16.74c.218 0 .437.002.655 0h.029c.31 0 .575-.259.575-.567V3.603 3.23c0-.296-.264-.58-.575-.567-.31.012-.573.248-.573.566z" transform="translate(-538 -85) translate(538 85)"/>
                <path d="M5.143 2.907V.814.522c0-.273-.197-.534-.429-.522-.233.013-.428.23-.428.522v2.385c0 .273.197.533.428.521.233-.012.429-.23.429-.521zM12.857.522v2.385c0 .273.197.533.429.521.233-.012.428-.23.428-.521V.814.522c0-.273-.197-.534-.428-.522-.233.013-.429.228-.429.522z" transform="translate(-538 -85) translate(538 85)"/>
            </g>
        </g>
    </g>
</svg>
