<svg xmlns="http://www.w3.org/2000/svg" width="19" height="15" viewBox="0 0 19 15">
    <defs>
        <filter id="v86w6mux3a">
            <feColorMatrix in="SourceGraphic" values="0 0 0 0 0.149020 0 0 0 0 0.156863 0 0 0 0 0.211765 0 0 0 1.000000 0"/>
        </filter>
    </defs>
    <g fill="none" fill-rule="evenodd">
        <g filter="url(#v86w6mux3a)" transform="translate(-1039 -89)">
            <g>
                <path fill="#000" fill-rule="nonzero" d="M1.996.226C.902.226 0 1.128 0 2.223v9.206c0 1.095.902 1.997 1.996 1.997h13.887c1.095 0 1.991-.902 1.991-1.997V2.223c0-1.095-.896-1.997-1.99-1.997H1.995zm0 1.117h13.887c.495 0 .874.384.874.88V3.34H1.117V2.223c0-.496.384-.88.88-.88zm-.879 3.114h15.64v1.047H1.117V4.457zm0 2.164h15.64v4.808c0 .496-.379.878-.874.878H1.996c-.495 0-.879-.382-.879-.878V6.621zM2.71 8.168c-.304.023-.533.283-.518.587.016.304.272.54.576.53h3.9c.203.005.392-.1.495-.275.103-.175.103-.391 0-.566-.103-.175-.292-.28-.494-.276H2.709zm.058 1.674c-.203-.005-.392.1-.495.275-.102.175-.102.392 0 .566.103.175.292.28.495.276h1.666c.202.004.391-.101.494-.276.102-.174.102-.39 0-.566-.103-.174-.292-.28-.494-.275H2.767z" transform="translate(1039 89)"/>
            </g>
        </g>
    </g>
</svg>
