<svg xmlns="http://www.w3.org/2000/svg" width="25" height="19" viewBox="0 0 25 19">
    <defs>
        <filter id="sj6ck3o7ja">
            <feColorMatrix in="SourceGraphic" values="0 0 0 0 0.074510 0 0 0 0 0.074510 0 0 0 0 0.074510 0 0 0 1.000000 0"/>
        </filter>
    </defs>
    <g fill="none" fill-rule="evenodd">
        <g filter="url(#sj6ck3o7ja)" transform="translate(-733 -84)">
            <g>
                <path fill="#000" fill-rule="nonzero" d="M23.37 6.486h-7.61V4.713c.498-.24.814-.74.816-1.29V1.441c0-.795-.65-1.44-1.45-1.441H9.874c-.8.001-1.448.646-1.45 1.441v1.982c.003.55.319 1.05.816 1.29v1.773H1.63C.73 6.487.001 7.213 0 8.108v10.27c0 .299.243.54.543.54.3 0 .544-.241.544-.54V10h7.762l-.425 1.408v4.808c0 .299.243.54.543.54.3 0 .544-.241.544-.54v-1.351h5.978v1.351c0 .299.243.54.544.54.3 0 .543-.241.543-.54v-4.808L16.151 10h7.762v8.378c0 .299.243.54.544.54.3 0 .543-.241.543-.54V8.108c-.001-.895-.73-1.62-1.63-1.622zM9.51 1.441c.001-.198.163-.36.363-.36h5.254c.2 0 .362.162.362.36v1.982c0 .2-.162.36-.362.36H9.873c-.2 0-.362-.16-.362-.36V1.441zm.816 3.424h4.348v1.621h-4.348V4.865zm-.815 8.919v-1.352h5.978v1.352H9.511zm5.925-2.433H9.564L9.928 10h5.144l.364 1.351zM1.087 8.92v-.81c0-.3.243-.541.543-.541h21.74c.3 0 .543.242.543.54v.81H1.087z" transform="translate(733 84)"/>
            </g>
        </g>
    </g>
</svg>
