<svg xmlns="http://www.w3.org/2000/svg" width="19" height="17" viewBox="0 0 19 17">
    <defs>
        <filter id="vununmdtga">
            <feColorMatrix in="SourceGraphic" values="0 0 0 0 0.000000 0 0 0 0 0.000000 0 0 0 0 0.000000 0 0 0 1.000000 0"/>
        </filter>
    </defs>
    <g fill="none" fill-rule="evenodd">
        <g filter="url(#vununmdtga)" transform="translate(-644 -86)">
            <g>
                <path fill="#000" fill-rule="nonzero" d="M9.192 16.333l-.28-.176c-.051-.032-5.315-3.475-7.3-6.298C-.696 6.577-.024 4.1.582 2.918 1.488 1.145 3.378 0 5.396 0c1.428 0 2.755.568 3.792 1.611C10.224.568 11.55 0 12.978 0c2.02 0 3.909 1.145 4.816 2.918.605 1.184 1.277 3.66-1.03 6.94-1.983 2.82-7.242 6.26-7.295 6.295l-.277.18zM5.396 1.05c-1.633 0-3.16.922-3.89 2.35-.86 1.677-.52 3.755.953 5.85 1.595 2.269 5.626 5.084 6.729 5.832 1.103-.748 5.133-3.563 6.728-5.831 1.473-2.095 1.812-4.174.954-5.852-.73-1.427-2.258-2.35-3.891-2.35-1.304 0-2.508.596-3.39 1.676l-.401.49-.401-.49C7.904 1.645 6.7 1.05 5.397 1.05z" transform="translate(644 86)"/>
            </g>
        </g>
    </g>
</svg>
