<svg xmlns="http://www.w3.org/2000/svg" width="16" height="15" viewBox="0 0 16 15">
    <defs>
        <filter id="9iocio2a7a">
            <feColorMatrix in="SourceGraphic" values="0 0 0 0 0.074510 0 0 0 0 0.074510 0 0 0 0 0.074510 0 0 0 1.000000 0"/>
        </filter>
    </defs>
    <g fill="none" fill-rule="evenodd">
        <g filter="url(#9iocio2a7a)" transform="translate(-612 -87)">
            <g>
                <path fill="#000" fill-rule="nonzero" d="M.572 0C.13 0-.144.481.08.863l6.206 8.28v4.685c0 .425.447.7.827.51l2.285-1.142c.194-.097.316-.295.316-.511V9.142L15.92.862c.225-.38-.05-.862-.493-.862H.572zm.978 1.018h12.852L8.65 8.832c-.052.09-.08.191-.079.295v3.144l-1.143.582V9.127c0-.104-.027-.206-.079-.295l-5.8-7.814z" transform="translate(612 87)"/>
            </g>
        </g>
    </g>
</svg>
