<svg xmlns="http://www.w3.org/2000/svg" width="23" height="25" viewBox="0 0 23 25">
    <defs>
        <filter id="q9wq90c2ta">
            <feColorMatrix in="SourceGraphic" values="0 0 0 0 0.074510 0 0 0 0 0.074510 0 0 0 0 0.074510 0 0 0 1.000000 0"/>
        </filter>
    </defs>
    <g fill="none" fill-rule="evenodd">
        <g>
            <g transform="translate(-125 -467) translate(125 467)">
                <circle cx="18.5" cy="4.5" r="4.5" fill="#131313"/>
                <rect width="5" height="1" x="16" y="4" fill="#FFF" rx=".5"/>
                <rect width="1" height="5" x="18" y="2" fill="#FFF" rx=".5"/>
                <g filter="url(#q9wq90c2ta)">
                    <g>
                        <path fill="#000" fill-rule="nonzero" d="M16.878 17.397l-2.34-7.48c-.074-.237-.294-.397-.541-.397h-.68c.623-1.176 1.056-2.428 1.056-3.64 0-3.245-2.63-5.874-5.873-5.874-3.244 0-5.873 2.63-5.873 5.873 0 1.213.433 2.465 1.056 3.641h-.68c-.247 0-.467.16-.54.397l-2.341 7.48c-.054.172-.023.36.084.505.107.146.276.232.457.231h15.674c.18 0 .35-.085.457-.23.107-.146.138-.334.084-.506zM8.5 1.133c2.617.003 4.737 2.124 4.74 4.74 0 1.27-.59 2.633-1.366 3.88l-.02.03c-.96 1.472-2.085 2.829-3.354 4.044-1.181-1.134-4.74-4.817-4.74-7.954.003-2.616 2.123-4.737 4.74-4.74zM1.434 17l1.983-6.352h.932c1.08 1.601 2.347 3.068 3.774 4.369.215.19.539.19.754 0 1.426-1.301 2.692-2.768 3.771-4.37h.932L15.563 17H1.433z" transform="translate(0 6)"/>
                    </g>
                </g>
            </g>
        </g>
    </g>
</svg>
