<svg xmlns="http://www.w3.org/2000/svg" width="24" height="24" viewBox="0 0 24 24">
    <g fill="none" fill-rule="evenodd">
        <g fill="#000" fill-rule="nonzero">
            <g>
                <path d="M9.574 19.149H14.361V20.149H9.574zM9.574 17.553H14.361V18.553H9.574zM10.372 14.362H13.562999999999999V15.362H10.372zM10.372 12.766H13.562999999999999V13.766H10.372zM10.372 11.17H13.562999999999999V12.17H10.372zM10.372 9.574H13.562999999999999V10.574H10.372zM11.17 5.585H12.766V6.585H11.17zM11.17 3.989H12.766V4.989H11.17z" transform="translate(-977 -142) translate(977 142)"/>
                <path d="M19.149 12.973v3.782h-2.394v2.394h-.798v-3.192h-.797V7.181h-.798V2.394h-1.995V0h-.798v2.394H9.574V7.18h-.797v8.776h-.798v.367l-1.596-1.277-1.596 1.277v-3.558H0v11.17h23.936V11.17h-2.533l-2.254 1.803zm-1.596 4.58h1.596v1.596h-1.596v-1.596zm-7.18-14.362h3.19v3.99h-3.19V3.19zM9.573 7.98h4.788v7.978H9.574V7.98zM3.99 23.139H.798v-9.575h3.191v9.574zm3.99 0H4.787v-5.793l1.596-1.277 1.596 1.277v5.792zm2.393 0v-1.596h3.192v1.595h-3.192zm4.788 0h-.798v-2.394H9.574v2.393h-.797v-6.383h6.383v6.383zm3.989 0h-3.192v-3.192h3.192v3.191zm3.99-11.17v11.17h-3.192v-9.783l1.736-1.388h1.455z" transform="translate(-977 -142) translate(977 142)"/>
                <path d="M7.979 2.793c0-.393-.194-.761-.518-.984-.324-.223-.736-.273-1.104-.133-.156-.967-.99-1.677-1.969-1.677-.979 0-1.813.71-1.969 1.677-.367-.14-.78-.09-1.103.133-.324.223-.517.59-.518.984v1.994h7.18V2.793zM7.18 3.989H1.596V2.793c0-.22.178-.4.399-.4.22 0 .399.18.399.4h.797v-.798c0-.661.536-1.197 1.197-1.197s1.197.536 1.197 1.197v.798h.798c0-.22.179-.4.399-.4.22 0 .399.18.399.4v1.196zM23.138 4.787c0-.393-.194-.76-.517-.983-.324-.223-.737-.273-1.104-.134-.156-.966-.99-1.676-1.97-1.676-.978 0-1.812.71-1.968 1.676-.368-.14-.78-.09-1.104.134-.323.223-.517.59-.518.983v1.995h7.181V4.787zm-.798 1.197h-5.585V4.787c0-.22.179-.399.4-.399.22 0 .398.179.398.4h.798v-.799c0-.66.536-1.196 1.197-1.196.66 0 1.197.535 1.197 1.196v.798h.798c0-.22.178-.399.398-.399.22 0 .4.179.4.4v1.196z" transform="translate(-977 -142) translate(977 142)"/>
            </g>
        </g>
    </g>
</svg>
