<svg xmlns="http://www.w3.org/2000/svg" width="23" height="23" viewBox="0 0 23 23">
    <g fill="none" fill-rule="evenodd">
        <g fill="#ffffff" fill-rule="nonzero">
            <g>
                <path d="M1.15 0h15.288c.61 0 1.083.474 1.083 1.15v1.556h1.623c.609 0 1.15.541 1.15 1.15v1.623h1.556c.609 0 1.15.474 1.15 1.083V21.85c0 .609-.541 1.15-1.15 1.15H6.562c-.61 0-1.083-.541-1.083-1.15v-1.556H3.856c-.609 0-1.15-.541-1.15-1.15v-1.623H1.15c-.676 0-1.15-.474-1.15-1.083V1.15C0 .474.474 0 1.15 0zm2.706 3.856v15.288h1.623V6.562c0-.61.474-1.083 1.083-1.083h12.582V3.856H3.856zM21.85 6.629H6.63V21.85h15.22V6.63zM16.37 1.15H1.15v15.22h1.556V3.857c0-.609.541-1.15 1.15-1.15H16.37V1.15z" transform="translate(-683 -83) translate(683 83)"/>
            </g>
        </g>
    </g>
</svg>
