<svg xmlns="http://www.w3.org/2000/svg" width="24" height="25" viewBox="0 0 24 25">
    <defs>
        <filter id="jd7ctp8zxa">
            <feColorMatrix in="SourceGraphic" values="0 0 0 0 0.074510 0 0 0 0 0.074510 0 0 0 0 0.074510 0 0 0 1.000000 0"/>
        </filter>
    </defs>
    <g fill="none" fill-rule="evenodd">
        <g>
            <g transform="translate(-125 -739) translate(125 739)">
                <g filter="url(#jd7ctp8zxa)">
                    <g>
                        <path fill="#000" fill-rule="nonzero" d="M11.1 9.545h-.045C12.73 8.75 13.913 7.023 13.913 5c0-2.75-2.21-5-4.913-5-2.702 0-4.913 2.25-4.913 5 0 2.023 1.183 3.75 2.858 4.545h-.044c-2.792 0-5.226 1.591-6.432 3.955-.179.34-.335.705-.469 1.09.201.365.402.705.648 1.046C2.524 18.273 5.56 20 9 20c3.44 0 6.476-1.727 8.352-4.364.224-.34.447-.681.648-1.045-.134-.386-.29-.75-.469-1.091-1.206-2.364-3.64-3.955-6.432-3.955zM4.98 5C4.98 2.75 6.79.91 9 .91c2.21 0 4.02 1.84 4.02 4.09S11.21 9.09 9 9.09C6.79 9.09 4.98 7.25 4.98 5zM9 19.09c-3.395 0-6.365-1.84-8.017-4.59.96-2.364 3.26-4.045 5.918-4.045h4.198c2.68 0 4.958 1.681 5.918 4.045-1.652 2.75-4.622 4.59-8.017 4.59z" transform="translate(0 5)"/>
                    </g>
                </g>
                <circle cx="19.5" cy="4.5" r="4.5" fill="#131313"/>
                <rect width="5" height="1" x="17" y="4" fill="#FFF" rx=".5"/>
                <rect width="1" height="5" x="19" y="2" fill="#FFF" rx=".5"/>
            </g>
        </g>
    </g>
</svg>
