<svg xmlns="http://www.w3.org/2000/svg" width="18" height="18" viewBox="0 0 18 18">
    <g fill="none" fill-rule="evenodd">
        <g fill="#222D3A" fill-rule="nonzero">
            <path d="M8.381 12.156l.829.828c.182.19.435.295.697.29h.981v.828c0 .621.504 1.125 1.125 1.125h.829v.979c0 .258.102.505.283.69l.65.65c.173.171.406.267.65.267h2.583c.445-.002.805-.362.806-.807v-2.584c.001-.244-.096-.48-.27-.652l-5.388-5.389c.951-2.712-.1-5.723-2.534-7.253-2.433-1.53-5.602-1.174-7.635.86-2.033 2.032-2.39 5.2-.86 7.634 1.531 2.434 4.542 3.485 7.254 2.534zM2.784 2.78C4.487 1.075 7.16.816 9.16 2.163c2 1.346 2.763 3.92 1.823 6.14-.09.21-.042.454.12.616l5.585 5.588v2.18h-2.18l-.55-.549v-1.326c0-.4-.324-.723-.723-.723h-1.22v-1.217c0-.4-.325-.724-.725-.724H9.966l-1.047-1.046c-.162-.162-.406-.21-.617-.12-2.218.938-4.79.173-6.137-1.825C.82 7.16 1.08 4.487 2.783 2.784l.001-.003zM5.14 7.204c1.14 0 2.063-.924 2.063-2.063 0-1.139-.924-2.062-2.063-2.062-1.139 0-2.062.923-2.062 2.062 0 1.14.923 2.063 2.062 2.063zm0-2.985c.518 0 .938.42.938.937 0 .518-.42.938-.938.938-.517 0-.937-.42-.937-.938 0-.249.098-.488.274-.664.176-.176.414-.275.663-.275v.002z" transform="translate(-126 -795) translate(126 795)"/>
        </g>
    </g>
</svg>
