<svg xmlns="http://www.w3.org/2000/svg" width="13" height="17" viewBox="0 0 13 17">
    <g fill="none" fill-rule="evenodd">
        <g fill="#000" fill-rule="nonzero">
            <g>
                <path d="M1.773 16.545h9.454c.978 0 1.773-.795 1.773-1.772v-6.5c0-.978-.795-1.773-1.773-1.773V4.136C11.227 1.856 9.372 0 7.091 0H5.909C3.63 0 1.773 1.855 1.773 4.136V6.5C.795 6.5 0 7.295 0 8.273v6.5c0 .977.795 1.772 1.773 1.772zM2.955 4.136c0-1.629 1.325-2.954 2.954-2.954h1.182c1.629 0 2.954 1.325 2.954 2.954V6.5h-7.09V4.136zM1.182 8.273c0-.326.265-.591.59-.591h9.455c.326 0 .591.265.591.59v6.5c0 .327-.265.592-.59.592H1.772c-.326 0-.591-.265-.591-.591v-6.5z" transform="translate(-1079 -86) translate(1079 86)"/>
                <path d="M5.318 10.636c0-.651.53-1.181 1.182-1.181.652 0 1.182.53 1.182 1.181 0 .436-.24.813-.591 1.018V13c0 .326-.265.59-.591.59-.326 0-.59-.264-.59-.59v-1.346c-.353-.205-.592-.582-.592-1.018z" transform="translate(-1079 -86) translate(1079 86)"/>
            </g>
        </g>
    </g>
</svg>
