<svg xmlns="http://www.w3.org/2000/svg" width="29" height="17" viewBox="0 0 29 17">
    <defs>
        <filter id="m151iq9vsa">
            <feColorMatrix in="SourceGraphic" values="0 0 0 0 0.074510 0 0 0 0 0.074510 0 0 0 0 0.074510 0 0 0 1.000000 0"/>
        </filter>
    </defs>
    <g fill="none" fill-rule="evenodd">
        <g filter="url(#m151iq9vsa)" transform="translate(-787 -86)">
            <g fill="#000" fill-rule="nonzero">
                <path d="M28.012 15.312H.492c-.272 0-.492-.22-.492-.492V7.077c0-.679.552-1.231 1.23-1.231h1.124V1.517c0-.678.551-1.23 1.23-1.23h9.927c.277 0 .533.092.739.247.206-.155.463-.247.741-.247h9.926c.678 0 1.23.552 1.23 1.23v4.329h1.125c.679 0 1.231.552 1.231 1.231v7.743c0 .272-.22.492-.491.492zM.983 14.329H27.52V7.077c0-.134-.113-.248-.248-.248h-1.124v5.636c0 .271-.22.491-.492.491H2.847c-.271 0-.491-.22-.491-.491v-2.55l-.002-.043V6.829H1.23c-.134 0-.247.114-.247.249v7.251zm2.356-2.355h21.826v-1.61H3.339v1.61zM14.74 9.38h10.425V1.518c0-.137-.112-.248-.248-.248H14.99c-.136 0-.25.113-.25.248V9.38zm-11.401 0h10.418V1.518c0-.134-.112-.248-.246-.248H3.584c-.136 0-.247.111-.247.248v4.776l.002.044V9.38z" transform="translate(787 86)"/>
                <path d="M8.549 4.833c.27 0 .492.22.492.492s-.223.493-.492.493c-.273 0-.494-.221-.494-.493 0-.271.221-.492.494-.492zM19.954 4.833c.272 0 .492.22.492.492s-.22.493-.492.493-.492-.221-.492-.493c0-.271.22-.492.492-.492zM27.082 16.65h-.63c-.272 0-.492-.271-.492-.605 0-.335.22-.606.492-.606h.63c.272 0 .491.271.491.606 0 .334-.22.605-.491.605zm-25.03 0H1.42c-.271 0-.491-.271-.491-.605 0-.335.22-.606.491-.606h.632c.272 0 .491.271.491.606 0 .334-.22.605-.491.605z" transform="translate(787 86)"/>
            </g>
        </g>
    </g>
</svg>
