<svg xmlns="http://www.w3.org/2000/svg" width="30" height="17" viewBox="0 0 30 17">
    <g fill="none" fill-rule="evenodd">
        <g fill="#000" fill-rule="nonzero">
            <g>
                <path d="M7.036 7.467H5.633V1.4c0-.773-.629-1.4-1.404-1.4H1.42C.646 0 .018.627.018 1.4v7.933c0 .258.21.467.468.467h1.871v2.417l-1.965.392c-.169.028-.309.145-.366.306-.056.161-.02.34.094.467s.289.181.455.142l1.778-.355V14c0 .258.21.467.468.467.259 0 .468-.21.468-.467v-.871l3.218.4c.02.003.04.005.061.004.247 0 .45-.192.466-.438.015-.245-.163-.46-.408-.491l-3.333-.416V9.8h3.743c.259 0 .468-.209.468-.467v-1.4c0-.257-.21-.466-.468-.466zM.953 1.4c0-.258.21-.467.468-.467H4.23c.258 0 .468.21.468.467v6.067H.953V1.4zm5.615 7.467H.953V8.4h5.615v.467zM28.582 0h-2.807C25 0 24.37.627 24.37 1.4v6.067h-1.404c-.258 0-.467.209-.467.466v1.4c0 .258.209.467.467.467h3.744v2.388l-3.334.416c-.244.03-.423.246-.408.492.016.245.22.437.466.437.02 0 .04 0 .059-.003l3.217-.401V14c0 .258.21.467.468.467s.468-.21.468-.467v-.83l1.778.354c.166.04.34-.015.455-.142.114-.127.15-.306.094-.467-.057-.16-.197-.278-.366-.306l-1.961-.392V9.8h1.871c.259 0 .468-.209.468-.467V1.4c0-.773-.628-1.4-1.404-1.4zm.468 8.867h-5.615V8.4h5.615v.467zm0-1.4h-3.743V1.4c0-.258.21-.467.468-.467h2.807c.259 0 .468.21.468.467v6.067zm-6.418-2.334h-3.48c0-.773-.628-1.4-1.403-1.4H14.94c-.775 0-1.403.627-1.403 1.4H7.84c-.258 0-.468.21-.468.467 0 .258.21.467.468.467h5.698V9.8h-.936c-.259 0-.468.209-.468.467v1.4c0 .257.21.466.468.466h3.275v2.418l-1.965.392c-.236.047-.397.265-.372.504.024.238.225.42.466.42.031 0 .062-.003.093-.01l1.778-.354v.83c0 .258.21.467.468.467.259 0 .468-.209.468-.467v-.83l1.778.354c.249.041.485-.122.535-.369.05-.246-.106-.488-.351-.545l-1.962-.392v-2.418h3.275c.259 0 .468-.209.468-.466v-1.4c0-.258-.21-.467-.468-.467h-.935V6.067h3.479c.258 0 .468-.21.468-.467 0-.258-.21-.467-.468-.467zM13.538 11.2h-.468v-.467h.468v.467zm4.679-.933v.933h-3.743V5.133c0-.257.209-.466.467-.466h2.808c.258 0 .468.209.468.466v5.134zm1.403.466v.467h-.467v-.467h.467z" transform="translate(-841 -87) translate(841 87)"/>
            </g>
        </g>
    </g>
</svg>
