<svg xmlns="http://www.w3.org/2000/svg" xmlns:xlink="http://www.w3.org/1999/xlink" width="61" height="61" viewBox="0 0 61 61">
    <defs>
        <linearGradient id="19v8alk53d" x1="69.151%" x2="69.151%" y1="100%" y2="29.887%">
            <stop offset="0%" stop-color="#D18D46"/>
            <stop offset="100%" stop-color="#FFC985"/>
        </linearGradient>
        <linearGradient id="hzoe8o9bjf" x1="69.151%" x2="69.151%" y1="100%" y2="29.887%">
            <stop offset="0%" stop-color="#D18D46"/>
            <stop offset="100%" stop-color="#FFC985"/>
        </linearGradient>
        <filter id="ouyto1nq8a" width="232.8%" height="232.8%" x="-66.4%" y="-33.2%" filterUnits="objectBoundingBox">
            <feOffset dy="12" in="SourceAlpha" result="shadowOffsetOuter1"/>
            <feGaussianBlur in="shadowOffsetOuter1" result="shadowBlurOuter1" stdDeviation="6"/>
            <feColorMatrix in="shadowBlurOuter1" values="0 0 0 0 0 0 0 0 0 0 0 0 0 0 0 0 0 0 0.5 0"/>
        </filter>
        <circle id="pqxvhhnjlb" cx="18.074" cy="18.074" r="18.074"/>
        <path id="i17nvna86c" d="M0 0.168L10.044 0.168 10.044 14.594 0 14.594z"/>
    </defs>
    <g fill="none" fill-rule="evenodd">
        <g>
            <g>
                <g transform="translate(-161 -16) translate(173 16)">
                    <use fill="#000" filter="url(#ouyto1nq8a)" xlink:href="#pqxvhhnjlb"/>
                    <use fill="#222D3A" xlink:href="#pqxvhhnjlb"/>
                </g>
                <g>
                    <g transform="translate(-161 -16) translate(173 16) translate(12.787 5.164) translate(0 .073)">
                        <mask id="z2iwr8swhe" fill="#fff">
                            <use xlink:href="#i17nvna86c"/>
                        </mask>
                        <path fill="url(#19v8alk53d)" d="M7.71 7.571C11.437 5.167 9.585.168 9.585.168 8.544 1.608 6.357 4.11 2.182 6.84-1.408 9.189.513 14.594.513 14.594c.586-1.042.73-2.85 7.198-7.023" mask="url(#z2iwr8swhe)"/>
                    </g>
                    <path fill="url(#hzoe8o9bjf)" d="M5.847 18.6c.151-1.34 1.69-2.386 3.133-3.86 2.77-2.965 1.165-6.25 1.165-6.25-.761 1.58-8.634 4.876-8.633 10.155.001 4.163 3.51 5.121 4.657 6.914 2.835-3.694-.52-5.215-.322-6.96" transform="translate(-161 -16) translate(173 16) translate(12.787 5.164)"/>
                </g>
            </g>
        </g>
    </g>
</svg>
