<svg xmlns="http://www.w3.org/2000/svg" width="20" height="22" viewBox="0 0 20 22">
    <g fill="none" fill-rule="evenodd">
        <g fill="#000" fill-rule="nonzero">
            <g>
                <path d="M.455 0C.195.029 0 .245 0 .5v20.43c0 .275.228.498.508.499h18.976c.136.001.267-.05.364-.145.097-.093.152-.221.152-.355V.5c0-.133-.055-.26-.152-.354-.097-.094-.228-.146-.364-.144H.455zm.561 1h17.96v19.43h-.038c-.08-4.033-2.936-7.383-6.765-8.33 1.382-.737 2.336-2.137 2.336-3.762 0-2.388-2.036-4.321-4.513-4.321-2.476 0-4.505 1.933-4.505 4.32 0 1.627.952 3.026 2.336 3.763-3.832.945-6.684 4.294-6.765 8.33h-.046V1zm8.98 4.022c1.941 0 3.489 1.485 3.489 3.316 0 1.831-1.548 3.323-3.489 3.323-1.94 0-3.489-1.492-3.489-3.323s1.548-3.316 3.49-3.316zm0 7.786c4.328 0 7.824 3.393 7.918 7.622H2.078c.095-4.229 3.59-7.622 7.918-7.622z" transform="translate(-1152 -145) translate(1152 145)"/>
            </g>
        </g>
    </g>
</svg>
