<svg xmlns="http://www.w3.org/2000/svg" width="12" height="22" viewBox="0 0 12 22">
    <g fill="none" fill-rule="evenodd">
        <g fill="#000" fill-rule="nonzero">
            <g>
                <path d="M.12 1.62v18.736c0 .76.62 1.379 1.38 1.379h8.603c.76 0 1.379-.619 1.379-1.38V1.62c0-.76-.619-1.38-1.38-1.38H1.5C.74.24.12.859.12 1.62zm10.384 15.794H1.099V3.855h9.405v13.559zm-.401 3.342H1.5c-.221 0-.401-.18-.401-.4v-1.964h9.405v1.964c0 .22-.18.4-.401.4zm.4-19.136v1.258H1.1V1.62c0-.221.18-.402.4-.402h8.604c.22 0 .4.18.4.402z" transform="translate(-1161 -84) translate(1161 84)"/>
                <path d="M6.32 19.117H5.282c-.27 0-.49.218-.49.488s.22.49.49.49H6.32c.27 0 .489-.22.489-.49 0-.269-.219-.488-.49-.488z" transform="translate(-1161 -84) translate(1161 84)"/>
            </g>
        </g>
    </g>
</svg>
