<svg xmlns="http://www.w3.org/2000/svg" width="22" height="22" viewBox="0 0 22 22">
    <g fill="none" fill-rule="evenodd">
        <g fill="#000" fill-rule="nonzero">
            <g transform="translate(-1192 -142) translate(1192 142)">
                <path d="M20.92 10.217c-.053-.005-1.332-.146-3.058.146-1.625.272-3.098.836-4.348 1.658-.248-.316-.51-.632-.788-.948 1.907-1.794 3.691-2.334 3.716-2.344.262-.078.413-.35.34-.613-.078-.262-.35-.413-.613-.34-.092.029-2.032.603-4.109 2.563-.32-.34-.637-.657-.997-.997 1.96-2.077 2.534-4.012 2.563-4.11.078-.262-.078-.54-.34-.612-.263-.078-.54.078-.613.34-.005.02-.535 1.804-2.344 3.716-.316-.278-.637-.54-.948-.788.821-1.25 1.39-2.724 1.663-4.348.287-1.721.15-3.005.146-3.059-.03-.272-.278-.466-.55-.437-.272.029-.467.277-.438.55.005.043.38 3.637-1.614 6.7-1.201-.85-2.261-1.376-2.884-1.376-.457 0-.754.258-.831.623L.5 17.798c-.345.885-.131 1.892.54 2.563.695.696 1.707.876 2.562.54 12.172-4.732 11.477-4.406 11.647-4.576.394-.394.185-1.036.117-1.245-.243-.74-.807-1.624-1.26-2.261 1.357-.88 2.797-1.289 3.886-1.474 1.585-.272 2.791-.146 2.816-.14.272.028.515-.166.55-.438.028-.273-.166-.516-.439-.55zm-7.688 5.89l-1.527.592c-2.422-1.094-5.903-4.58-6.998-6.997l.589-1.518c1.42 2.753 5.15 6.468 7.936 7.922zm-9.984 3.87c-1.137.443-2.26-.68-1.818-1.819l2.8-7.236c1.362 2.296 3.964 4.892 6.25 6.25l-7.232 2.805zm11.224-4.43c-.875-.19-2.46-1.367-3.156-1.93C9.206 11.9 7.46 9.856 6.521 8.33c-.223-.36-.574-.982-.666-1.4.413.087 1.187.486 2.14 1.162-.146.175-.302.35-.467.52-.307.316-.083.842.355.842.126 0 .258-.049.355-.151.194-.2.38-.404.554-.618.268.21.54.438.827.686-.097.087-.195.175-.297.263-.355.301-.136.875.321.875.112 0 .229-.04.321-.117.136-.117.268-.233.394-.35.365.345.676.656 1.007 1.007-.117.126-.234.257-.35.394-.175.209-.151.52.058.7.21.175.52.15.7-.059.088-.102.175-.204.263-.296.238.272.467.55.685.827-.213.175-.423.36-.617.554-.195.19-.2.506-.005.7.195.195.506.2.7.005.17-.165.346-.32.52-.467.365.53 1.007 1.508 1.153 2.14z"/>
                <circle cx="20.867" cy="2.028" r="1"/>
                <circle cx="13.422" cy="1.036" r="1"/>
                <circle cx="16.894" cy="15.921" r="1"/>
                <path d="M13.422 18.897c-.273 0-.496.224-.496.496 0 .273.223.496.496.496.272 0 .496-.223.496-.496 0-.277-.22-.496-.496-.496z"/>
                <circle cx="3.997" cy="1.036" r="1"/>
                <path d="M1.225 7.278L2.217 7.278 2.217 8.27 1.225 8.27z" transform="rotate(134.992 1.721 7.774)"/>
                <path d="M15.819 3.312L15.119 2.607 14.414 3.312 15.119 4.012z"/>
                <path d="M20.66 6.288L21.652 6.288 21.652 7.28 20.66 7.28z" transform="rotate(-135 21.156 6.784)"/>
                <path d="M18.676 13.232L19.668 13.232 19.668 14.224 18.676 14.224z" transform="rotate(45 19.172 13.728)"/>
                <path d="M7.966 3.224L7.265 2.524 6.56 3.224 7.265 3.924zM19.622 17.41c-.686 0-1.24.554-1.24 1.24 0 .685.554 1.24 1.24 1.24.686 0 1.24-.555 1.24-1.24 0-.686-.554-1.24-1.24-1.24zm0 1.487c-.136 0-.248-.111-.248-.248 0-.136.112-.248.248-.248s.248.112.248.248c0 .137-.107.248-.248.248zM1.512 5.5C2.334 5.5 3 4.834 3 4.012s-.666-1.488-1.488-1.488c-.821 0-1.488.666-1.488 1.488S.691 5.5 1.512 5.5zm0-1.984c.273 0 .496.224.496.496s-.223.496-.496.496c-.272 0-.496-.224-.496-.496s.224-.496.496-.496zM17.263 5.904l1.362.817c.234.14.54.068.68-.17.142-.234.064-.54-.17-.681l-1.025-.618.9-.54c.228-.136.369-.384.369-.651v-.02c0-.238-.112-.467-.302-.608l-.68-.51.384-.195c.37-.185.598-.554.598-.968v-.233c0-.272-.224-.496-.496-.496s-.496.224-.496.496v.233c0 .034-.02.068-.049.083l-.72.36c-.51.253-.564.953-.116 1.289l.715.535-.954.573c-.49.297-.49 1.007 0 1.304z"/>
            </g>
        </g>
    </g>
</svg>
