<svg xmlns="http://www.w3.org/2000/svg" width="26" height="26" viewBox="0 0 26 26">
    <g fill="none" fill-rule="evenodd">
        <g fill="#000" fill-rule="nonzero">
            <g>
                <path d="M12.856 15.427c.156 0 .303-.07.401-.193.215-.268 5.256-6.59 5.256-9.577 0-3.12-2.538-5.657-5.657-5.657S7.199 2.538 7.199 5.657c0 2.986 5.041 9.31 5.256 9.577.098.122.245.193.401.193zm0-14.399c2.552 0 4.628 2.077 4.628 4.629 0 1.995-3.04 6.358-4.628 8.422-1.588-2.064-4.628-6.427-4.628-8.422 0-2.552 2.076-4.629 4.628-4.629z" transform="translate(-1226 -140) translate(1226 140)"/>
                <path d="M15.427 5.657c0-1.418-1.153-2.572-2.571-2.572-1.418 0-2.571 1.154-2.571 2.572 0 1.417 1.153 2.57 2.571 2.57 1.418 0 2.571-1.153 2.571-2.57zm-4.114 0c0-.85.692-1.543 1.543-1.543.85 0 1.543.692 1.543 1.543 0 .85-.692 1.542-1.543 1.542-.85 0-1.543-.692-1.543-1.542zM25.198 24.684H.514c-.284 0-.514.23-.514.514 0 .284.23.514.514.514h24.684c.284 0 .514-.23.514-.514 0-.285-.23-.514-.514-.514zM1.18 22.476c.1.1.231.15.363.15.131 0 .263-.05.363-.15l.665-.665.665.665c.1.1.232.15.364.15.131 0 .263-.05.363-.15.201-.201.201-.526 0-.727l-.665-.665.665-.665c.201-.201.201-.526 0-.727-.2-.201-.526-.201-.727 0l-.665.665-.665-.665c-.2-.201-.526-.201-.727 0-.2.2-.2.526 0 .727l.665.665-.665.665c-.2.2-.2.526 0 .727zM6.322 22.476c.1.1.231.15.363.15.132 0 .263-.05.364-.15l.665-.665.665.665c.1.1.231.15.363.15.132 0 .263-.05.364-.15.2-.201.2-.526 0-.727l-.665-.665.665-.665c.2-.201.2-.526 0-.727-.201-.201-.526-.201-.727 0l-.665.665-.665-.665c-.201-.201-.526-.201-.727 0-.202.2-.202.526 0 .727l.664.665-.664.665c-.202.2-.202.526 0 .727zM14.248 19.692c-.201-.201-.526-.201-.727 0l-.665.665-.665-.665c-.201-.201-.526-.201-.727 0-.201.2-.201.526 0 .727l.665.665-.665.665c-.201.2-.201.526 0 .727.1.1.232.15.364.15.131 0 .263-.05.363-.15l.665-.665.665.665c.1.1.232.15.363.15.132 0 .264-.05.364-.15.201-.201.201-.526 0-.727l-.665-.665.665-.665c.201-.201.201-.526 0-.727zM17.334 19.692c-.202-.201-.527-.201-.728 0-.2.2-.2.526 0 .727l.665.665-.665.665c-.2.2-.2.526 0 .727.1.1.232.15.364.15.132 0 .263-.05.364-.15l.664-.665.665.665c.1.1.232.15.364.15.132 0 .263-.05.363-.15.202-.201.202-.526 0-.727l-.664-.665.664-.665c.202-.201.202-.526 0-.727-.2-.201-.526-.201-.727 0l-.665.665-.664-.665zM21.749 22.476c.1.1.232.15.363.15.132 0 .264-.05.364-.15l.665-.665.665.665c.1.1.232.15.363.15.132 0 .264-.05.364-.15.2-.201.2-.526 0-.727l-.665-.665.665-.665c.2-.201.2-.526 0-.727-.201-.201-.526-.201-.727 0l-.665.665-.665-.665c-.201-.201-.526-.201-.727 0-.201.2-.201.526 0 .727l.665.665-.665.665c-.201.2-.201.526 0 .727z" transform="translate(-1226 -140) translate(1226 140)"/>
            </g>
        </g>
    </g>
</svg>
