<svg xmlns="http://www.w3.org/2000/svg" width="20" height="20" viewBox="0 0 20 20">
    <g fill="none" fill-rule="evenodd">
        <g fill="#000" fill-rule="nonzero">
            <g>
                <path d="M17.03.585l2.102 1.977c.848.799.904 2.123.14 2.99l-.06.064-12.48 12.717L0 19.863l1.53-6.728L14.033.63c.822-.822 2.15-.842 2.996-.045zM2.565 14.29l-.885 3.892 3.938-.895c-.288-.923-.603-1.549-.922-1.868-.333-.334-1.05-.719-2.131-1.129zm10.3-10.702L3.254 13.2c1.11.438 1.885.872 2.337 1.325.433.432.8 1.105 1.117 2.025l9.47-9.649-3.313-3.312zm2.064-2.064L13.76 2.694l3.304 3.304L18.29 4.75l.048-.052c.299-.357.27-.89-.073-1.214l-2.101-1.977c-.349-.329-.895-.32-1.234.018z" transform="translate(-1194 -87) translate(1194 87)"/>
            </g>
        </g>
    </g>
</svg>
