<svg xmlns="http://www.w3.org/2000/svg" width="17" height="19" viewBox="0 0 17 19">
    <defs>
        <filter id="hxlcu3j63a">
            <feColorMatrix in="SourceGraphic" values="0 0 0 0 0.074510 0 0 0 0 0.074510 0 0 0 0 0.074510 0 0 0 1.000000 0"/>
        </filter>
    </defs>
    <g fill="none" fill-rule="evenodd">
        <g filter="url(#hxlcu3j63a)" transform="translate(-414 -85)">
            <g>
                <path fill="#000" fill-rule="nonzero" d="M16.878 17.397l-2.34-7.48c-.074-.237-.294-.397-.541-.397h-.68c.623-1.176 1.056-2.428 1.056-3.64 0-3.245-2.63-5.874-5.873-5.874-3.244 0-5.873 2.63-5.873 5.873 0 1.213.433 2.465 1.056 3.641h-.68c-.247 0-.467.16-.54.397l-2.341 7.48c-.054.172-.023.36.084.505.107.146.276.232.457.231h15.674c.18 0 .35-.085.457-.23.107-.146.138-.334.084-.506zM8.5 1.133c2.617.003 4.737 2.124 4.74 4.74 0 1.27-.59 2.633-1.366 3.88l-.02.03c-.96 1.472-2.085 2.829-3.354 4.044-1.181-1.134-4.74-4.817-4.74-7.954.003-2.616 2.123-4.737 4.74-4.74zM1.434 17l1.983-6.352h.932c1.08 1.601 2.347 3.068 3.774 4.369.215.19.539.19.754 0 1.426-1.301 2.692-2.768 3.771-4.37h.932L15.563 17H1.433zM11.739 4.647L8.245 8.234c-.207.213-.543.23-.77.04L5.68 6.76c-.166-.127-.248-.334-.215-.54.034-.206.177-.376.374-.445.197-.068.415-.023.569.118L7.8 7.066l3.117-3.213c.219-.223.578-.227.802-.008.223.219.227.578.008.802h.011z" transform="translate(414 85)"/>
            </g>
        </g>
    </g>
</svg>
