<svg xmlns="http://www.w3.org/2000/svg" width="13" height="19" viewBox="0 0 13 19">
    <defs>
        <filter id="8i2dccyv8a">
            <feColorMatrix in="SourceGraphic" values="0 0 0 0 0.074510 0 0 0 0 0.074510 0 0 0 0 0.074510 0 0 0 1.000000 0"/>
        </filter>
    </defs>
    <g fill="none" fill-rule="evenodd">
        <g filter="url(#8i2dccyv8a)" transform="translate(-457 -85)">
            <g fill="#000" fill-rule="nonzero">
                <path d="M6.448 0C2.888 0 0 2.887 0 6.448c0 4.708 5.726 11.124 5.971 11.395.123.136.297.214.48.214.184 0 .359-.078.481-.214.239-.271 5.965-6.687 5.965-11.395 0-1.71-.68-3.35-1.889-4.56C9.798.68 8.158 0 6.448 0zm0 16.418c-1.36-1.632-5.158-6.494-5.158-9.97C1.29 3.6 3.6 1.29 6.448 1.29c2.85 0 5.16 2.31 5.16 5.158 0 3.476-3.799 8.338-5.16 9.97z" transform="translate(457 85)"/>
                <path d="M6.448 3.224c-1.424 0-2.579 1.155-2.579 2.58 0 1.424 1.155 2.579 2.58 2.579 1.424 0 2.579-1.155 2.579-2.58 0-.684-.272-1.34-.756-1.823-.483-.484-1.14-.756-1.824-.756zm0 3.87c-.712 0-1.29-.578-1.29-1.29 0-.713.578-1.29 1.29-1.29.713 0 1.29.577 1.29 1.29 0 .712-.577 1.29-1.29 1.29z" transform="translate(457 85)"/>
            </g>
        </g>
    </g>
</svg>
