<svg xmlns="http://www.w3.org/2000/svg" width="19" height="22" viewBox="0 0 19 22">
    <defs>
        <filter id="lzlkzmeiza">
            <feColorMatrix in="SourceGraphic" values="0 0 0 0 0.074510 0 0 0 0 0.074510 0 0 0 0 0.074510 0 0 0 1.000000 0"/>
        </filter>
    </defs>
    <g fill="none" fill-rule="evenodd">
        <g filter="url(#lzlkzmeiza)" transform="translate(-493 -83)">
            <g>
                <path fill="#000" fill-rule="nonzero" d="M11.716 10.023h-.047c1.768-.835 3.017-2.65 3.017-4.773C14.686 2.362 12.352 0 9.5 0S4.314 2.362 4.314 5.25c0 2.124 1.25 3.938 3.017 4.773h-.047c-2.947 0-5.516 1.67-6.789 4.152-.189.358-.354.74-.495 1.145.212.382.424.74.684 1.098C2.664 19.186 5.87 21 9.5 21c3.63 0 6.836-1.814 8.816-4.582.236-.358.472-.716.684-1.098-.141-.405-.306-.787-.495-1.145-1.273-2.482-3.842-4.152-6.79-4.152zM5.256 5.25C5.257 2.888 7.167.955 9.5.955c2.334 0 4.243 1.933 4.243 4.295S11.833 9.545 9.5 9.545c-2.334 0-4.243-1.933-4.243-4.295zM9.5 20.045c-3.583 0-6.718-1.933-8.463-4.82 1.014-2.482 3.442-4.248 6.247-4.248h4.432c2.829 0 5.233 1.766 6.247 4.248-1.745 2.888-4.88 4.82-8.463 4.82z" transform="translate(493 83.85)"/>
            </g>
        </g>
    </g>
</svg>
