<svg xmlns="http://www.w3.org/2000/svg" xmlns:xlink="http://www.w3.org/1999/xlink" width="61" height="144" viewBox="0 0 61 144">
    <defs>
        <linearGradient id="6tio0s933b" x1="69.151%" x2="69.151%" y1="100%" y2="29.887%">
            <stop offset="0%" stop-color="#D18D46"/>
            <stop offset="100%" stop-color="#FFC985"/>
        </linearGradient>
        <linearGradient id="hmq83t9ozd" x1="69.151%" x2="69.151%" y1="100%" y2="29.887%">
            <stop offset="0%" stop-color="#D18D46"/>
            <stop offset="100%" stop-color="#FFC985"/>
        </linearGradient>
        <path id="32wm18w9ga" d="M0 0.929L55.629 0.929 55.629 80.828 0 80.828z"/>
    </defs>
    <g fill="none" fill-rule="evenodd">
        <g>
            <g>
                <g transform="translate(-159 -67) translate(159.344 67.197) translate(0 .402)">
                    <mask id="so2plljanc" fill="#fff">
                        <use xlink:href="#32wm18w9ga"/>
                    </mask>
                    <path fill="url(#6tio0s933b)" d="M42.705 41.933C63.337 28.62 53.08.93 53.08.93c-5.761 7.977-17.874 21.834-40.994 36.959-19.882 13.006-9.243 42.94-9.243 42.94 3.241-5.773 4.04-15.781 39.862-38.895" mask="url(#so2plljanc)"/>
                </g>
                <path fill="url(#hmq83t9ozd)" d="M32.382 103.014c.84-7.419 9.364-13.213 17.352-21.381 15.344-16.42 6.45-34.61 6.45-34.61-4.211 8.75-47.816 27.005-47.81 56.24.006 23.056 19.444 28.365 25.795 38.294 15.699-20.457-2.882-28.88-1.787-38.543" transform="translate(-159 -67) translate(159.344 67.197)"/>
            </g>
        </g>
    </g>
</svg>
