<svg xmlns="http://www.w3.org/2000/svg" width="19" height="19" viewBox="0 0 19 19">
    <defs>
        <filter id="73xfq0xcna">
            <feColorMatrix in="SourceGraphic" values="0 0 0 0 0.074510 0 0 0 0 0.074510 0 0 0 0 0.074510 0 0 0 1.000000 0"/>
        </filter>
    </defs>
    <g fill="none" fill-rule="evenodd">
        <g filter="url(#73xfq0xcna)" transform="translate(-296 -85)">
            <g fill="#000" fill-rule="nonzero">
                <path d="M8.636 2.585H5.182V6.03h3.454V2.585zM7.62 5.018H6.198v-1.42H7.62v1.42zM13.818 2.585h-3.454V6.03h3.454V2.585zm-1.016 2.433H11.38v-1.42h1.422v1.42zM8.636 7.755H5.182V11.2h3.454V7.755zM7.62 10.187H6.198V8.768H7.62v1.42zM13.818 7.755h-3.454V11.2h3.454V7.755zm-1.016 2.432H11.38V8.768h1.422v1.42z" transform="translate(296 85.85)"/>
                <path d="M18.441 16.12H16.43V0H2.571v16.12H.559c-.313 0-.559.245-.559.557 0 .311.246.556.559.556H18.44c.313 0 .559-.245.559-.556 0-.312-.246-.556-.559-.556zM3.688 1.113h11.624V16.12h-3.8v-3.224H7.265v3.224H3.688V1.11zm6.706 15.009H8.382v-2.113h2.012v2.113z" transform="translate(296 85.85)"/>
            </g>
        </g>
    </g>
</svg>
